<svg width="812" height="199" viewBox="0 0 812 199" fill="none" xmlns="http://www.w3.org/2000/svg">
<g filter="url(#filter0_d_980_1053)">
<path d="M143.829 36.5066C159.318 51.309 168.907 78.6459 164.165 102.043C159.318 125.56 140.141 145.257 117.275 158.746C94.3048 172.236 67.7516 179.518 52.8944 167.938C38.0373 156.359 35.0869 126.038 35.6138 102.401C36.1406 78.6459 40.25 61.6947 49.2065 48.444C58.1629 35.3128 71.861 25.8822 89.4578 22.5397C106.949 19.0778 128.339 21.5847 143.829 36.5066Z" fill="#F63B89"/>
</g>
<g opacity="0.5" filter="url(#filter1_d_980_1053)">
<path d="M166.489 43.1836C177.453 50.8291 173.226 72.3455 173.226 93.7528C173.226 115.269 177.453 136.676 166.621 153.06C155.657 169.333 129.766 180.583 111.668 173.921C93.703 167.367 83.5315 143.12 65.9626 126.737C48.3936 110.464 23.2951 102.054 13.9162 85.9981C4.53734 69.9427 10.878 46.0234 28.4469 38.3779C46.0159 30.7325 74.9452 39.2517 102.289 40.4531C129.633 41.6546 155.657 35.5382 166.489 43.1836Z" fill="#00C2FF"/>
</g>
<mask id="mask0_980_1053" style="mask-type:alpha" maskUnits="userSpaceOnUse" x="35" y="21" width="131" height="153">
<path d="M143.829 36.5066C159.318 51.309 168.907 78.6459 164.165 102.043C159.318 125.56 140.141 145.257 117.275 158.746C94.3048 172.236 67.7516 179.518 52.8944 167.938C38.0373 156.359 35.0869 126.038 35.6138 102.401C36.1406 78.6459 40.25 61.6947 49.2065 48.444C58.1629 35.3128 71.861 25.8822 89.4578 22.5397C106.949 19.0778 128.339 21.5847 143.829 36.5066Z" fill="white"/>
</mask>
<g mask="url(#mask0_980_1053)">
<path d="M166.489 43.1836C177.453 50.8291 173.226 72.3455 173.226 93.7528C173.226 115.269 177.453 136.676 166.621 153.06C155.657 169.333 129.766 180.583 111.668 173.921C93.703 167.367 83.5315 143.12 65.9626 126.737C48.3936 110.464 23.2951 102.054 13.9162 85.9981C4.53734 69.9427 10.878 46.0234 28.4469 38.3779C46.0159 30.7325 74.9452 39.2517 102.289 40.4531C129.633 41.6546 155.657 35.5382 166.489 43.1836Z" fill="#4B80AC"/>
</g>
<path d="M266.967 141V54.2926H285.299V125.885H322.472V141H266.967ZM334.273 141V75.9695H352.309V141H334.273ZM343.333 67.5866C340.652 67.5866 338.352 66.6975 336.432 64.9193C334.541 63.1129 333.596 60.9537 333.596 58.4417C333.596 55.9579 334.541 53.8269 336.432 52.0487C338.352 50.2423 340.652 49.3391 343.333 49.3391C346.015 49.3391 348.301 50.2423 350.192 52.0487C352.111 53.8269 353.071 55.9579 353.071 58.4417C353.071 60.9537 352.111 63.1129 350.192 64.9193C348.301 66.6975 346.015 67.5866 343.333 67.5866ZM384.792 103.404V141H366.757V75.9695H383.946V87.443H384.708C386.147 83.6608 388.561 80.6689 391.948 78.4674C395.335 76.2376 399.441 75.1227 404.268 75.1227C408.784 75.1227 412.721 76.1106 416.08 78.0863C419.439 80.0621 422.05 82.8846 423.912 86.5539C425.775 90.1949 426.707 94.5416 426.707 99.5938V141H408.671V102.811C408.699 98.8318 407.683 95.727 405.623 93.4972C403.562 91.2392 400.726 90.1102 397.113 90.1102C394.685 90.1102 392.54 90.6324 390.677 91.6767C388.843 92.721 387.403 94.2452 386.359 96.2492C385.343 98.2249 384.821 100.61 384.792 103.404ZM470.558 142.27C463.869 142.27 458.111 140.915 453.284 138.206C448.486 135.468 444.788 131.601 442.192 126.605C439.595 121.581 438.297 115.64 438.297 108.781C438.297 102.092 439.595 96.2209 442.192 91.1687C444.788 86.1164 448.444 82.179 453.157 79.3565C457.899 76.534 463.459 75.1227 469.838 75.1227C474.128 75.1227 478.122 75.8142 481.82 77.1973C485.545 78.5521 488.791 80.5984 491.557 83.3362C494.352 86.074 496.525 89.5175 498.077 93.6666C499.63 97.7874 500.406 102.614 500.406 108.146V113.1H445.494V101.922H483.429C483.429 99.3257 482.864 97.0254 481.735 95.0214C480.606 93.0174 479.04 91.4509 477.036 90.3219C475.06 89.1647 472.759 88.5861 470.135 88.5861C467.397 88.5861 464.969 89.2211 462.852 90.4913C460.764 91.7332 459.127 93.4125 457.941 95.5294C456.756 97.6181 456.149 99.9466 456.121 102.515V113.142C456.121 116.36 456.713 119.14 457.899 121.482C459.113 123.825 460.82 125.631 463.022 126.902C465.223 128.172 467.834 128.807 470.854 128.807C472.858 128.807 474.693 128.525 476.358 127.96C478.023 127.396 479.449 126.549 480.634 125.42C481.82 124.291 482.723 122.908 483.344 121.271L500.025 122.371C499.178 126.379 497.442 129.879 494.817 132.871C492.221 135.835 488.862 138.149 484.741 139.815C480.648 141.452 475.921 142.27 470.558 142.27ZM512.176 141V75.9695H529.661V87.3159H530.339C531.524 83.2798 533.514 80.2314 536.308 78.171C539.102 76.0824 542.32 75.038 545.961 75.038C546.864 75.038 547.838 75.0945 548.882 75.2074C549.927 75.3203 550.844 75.4755 551.634 75.6731V91.6767C550.788 91.4227 549.616 91.1969 548.12 90.9993C546.624 90.8017 545.255 90.7029 544.014 90.7029C541.36 90.7029 538.99 91.2816 536.901 92.4388C534.84 93.5678 533.203 95.1484 531.99 97.1806C530.804 99.2128 530.212 101.555 530.212 104.209V141H512.176ZM564.05 142.101C561.256 142.101 558.856 141.113 556.852 139.137C554.877 137.133 553.889 134.734 553.889 131.94C553.889 129.174 554.877 126.803 556.852 124.827C558.856 122.851 561.256 121.863 564.05 121.863C566.759 121.863 569.13 122.851 571.163 124.827C573.195 126.803 574.211 129.174 574.211 131.94C574.211 133.803 573.731 135.51 572.771 137.063C571.84 138.587 570.612 139.815 569.088 140.746C567.564 141.649 565.884 142.101 564.05 142.101ZM607.562 142.228C603.413 142.228 599.716 141.508 596.47 140.069C593.224 138.601 590.655 136.442 588.764 133.591C586.902 130.712 585.97 127.127 585.97 122.837C585.97 119.224 586.633 116.19 587.96 113.735C589.287 111.279 591.093 109.303 593.379 107.807C595.665 106.311 598.262 105.182 601.169 104.42C604.105 103.658 607.181 103.122 610.399 102.811C614.181 102.416 617.229 102.049 619.544 101.711C621.858 101.344 623.538 100.808 624.582 100.102C625.626 99.3963 626.149 98.3519 626.149 96.9689V96.7149C626.149 94.0335 625.302 91.959 623.608 90.4913C621.943 89.0236 619.572 88.2897 616.496 88.2897C613.25 88.2897 610.667 89.0094 608.748 90.4489C606.828 91.8602 605.558 93.6384 604.937 95.7835L588.256 94.4287C589.103 90.4771 590.768 87.0619 593.252 84.183C595.736 81.2758 598.94 79.046 602.863 77.4936C606.814 75.913 611.387 75.1227 616.58 75.1227C620.193 75.1227 623.651 75.5461 626.953 76.3928C630.283 77.2396 633.233 78.5521 635.801 80.3302C638.398 82.1084 640.444 84.3946 641.94 87.1889C643.436 89.955 644.184 93.2714 644.184 97.1383V141H627.08V131.982H626.572C625.528 134.014 624.13 135.807 622.38 137.359C620.631 138.883 618.528 140.083 616.072 140.958C613.617 141.804 610.78 142.228 607.562 142.228ZM612.727 129.781C615.381 129.781 617.723 129.258 619.756 128.214C621.788 127.141 623.382 125.702 624.54 123.896C625.697 122.089 626.276 120.043 626.276 117.757V110.856C625.711 111.223 624.935 111.561 623.947 111.872C622.987 112.154 621.901 112.422 620.687 112.676C619.473 112.902 618.26 113.114 617.046 113.311C615.832 113.481 614.731 113.636 613.744 113.777C611.627 114.087 609.778 114.581 608.197 115.259C606.617 115.936 605.389 116.853 604.514 118.011C603.639 119.14 603.202 120.551 603.202 122.244C603.202 124.7 604.091 126.577 605.869 127.875C607.675 129.145 609.961 129.781 612.727 129.781ZM658.177 141V75.9695H676.213V141H658.177ZM667.237 67.5866C664.556 67.5866 662.255 66.6975 660.336 64.9193C658.445 63.1129 657.499 60.9537 657.499 58.4417C657.499 55.9579 658.445 53.8269 660.336 52.0487C662.255 50.2423 664.556 49.3391 667.237 49.3391C669.919 49.3391 672.205 50.2423 674.096 52.0487C676.015 53.8269 676.975 55.9579 676.975 58.4417C676.975 60.9537 676.015 63.1129 674.096 64.9193C672.205 66.6975 669.919 67.5866 667.237 67.5866Z" fill="#615656"/>
<defs>
<filter id="filter0_d_980_1053" x="18.8652" y="0.853294" width="174.028" height="196.748" filterUnits="userSpaceOnUse" color-interpolation-filters="sRGB">
<feFlood flood-opacity="0" result="BackgroundImageFix"/>
<feColorMatrix in="SourceAlpha" type="matrix" values="0 0 0 0 0 0 0 0 0 0 0 0 0 0 0 0 0 0 127 0" result="hardAlpha"/>
<feOffset dx="5.40941" dy="1.792"/>
<feGaussianBlur stdDeviation="11.0507"/>
<feColorMatrix type="matrix" values="0 0 0 0 0 0 0 0 0 0 0 0 0 0 0 0 0 0 0.2 0"/>
<feBlend mode="normal" in2="BackgroundImageFix" result="effect1_dropShadow_980_1053"/>
<feBlend mode="normal" in="SourceGraphic" in2="effect1_dropShadow_980_1053" result="shape"/>
</filter>
<filter id="filter1_d_980_1053" x="0.936741" y="29.8178" width="192.575" height="168.774" filterUnits="userSpaceOnUse" color-interpolation-filters="sRGB">
<feFlood flood-opacity="0" result="BackgroundImageFix"/>
<feColorMatrix in="SourceAlpha" type="matrix" values="0 0 0 0 0 0 0 0 0 0 0 0 0 0 0 0 0 0 127 0" result="hardAlpha"/>
<feOffset dx="5.40941" dy="8.65505"/>
<feGaussianBlur stdDeviation="7.03223"/>
<feColorMatrix type="matrix" values="0 0 0 0 0 0 0 0 0 0 0 0 0 0 0 0 0 0 0.25 0"/>
<feBlend mode="normal" in2="BackgroundImageFix" result="effect1_dropShadow_980_1053"/>
<feBlend mode="normal" in="SourceGraphic" in2="effect1_dropShadow_980_1053" result="shape"/>
</filter>
</defs>
</svg>
