<svg width="167" height="120" viewBox="0 0 167 120" fill="none" xmlns="http://www.w3.org/2000/svg">
<path d="M167 0H0V120H167V0Z" fill="white"/>
<path d="M38.4516 24C37.0726 24 36 24.9032 36 26.0645V77.2903C36 78.4516 37.0726 79.3548 38.4516 79.3548C39.8306 79.3548 40.9032 78.4516 40.9032 77.2903V26.0645C40.9032 24.9032 39.6774 24 38.4516 24Z" fill="#D7D7D7" fill-opacity="0.5"/>
<path d="M49.5 48.129C48.0937 48.129 47 48.6535 47 49.3278V72.9302C47 73.6045 48.0937 74.129 49.5 74.129C50.9062 74.129 52 73.6045 52 72.9302V49.3278C52 48.6535 50.9062 48.129 49.5 48.129Z" fill="#B9B9B9"/>
<path d="M61.4516 33.129C60.0726 33.129 59 34.0322 59 35.1935V67.4516C59 68.6129 60.0726 69.5161 61.4516 69.5161C62.8306 69.5161 63.9032 68.6129 63.9032 67.4516V35.1935C63.9032 34.0322 62.8306 33.129 61.4516 33.129Z" fill="#D7D7D7" fill-opacity="0.5"/>
<path d="M72.4516 42.129C71.0726 42.129 70 43.0322 70 44.1935V58.7742C70 59.9355 71.0726 60.8387 72.4516 60.8387C73.8306 60.8387 74.9032 59.9355 74.9032 58.7742V44.1935C74.9032 43.0322 73.8306 42.129 72.4516 42.129Z" fill="#B9B9B9"/>
<path d="M83.4516 38.129C82.0726 38.129 81 39.0322 81 40.1935V63.2903C81 64.4516 82.0726 65.3548 83.4516 65.3548C84.8306 65.3548 85.9032 64.4516 85.9032 63.2903V40.1935C85.9032 39.0322 84.8306 38.129 83.4516 38.129Z" fill="#D7D7D7" fill-opacity="0.5"/>
<path d="M95.4516 36.7419C94.0726 36.7419 93 37.6451 93 38.8064V68.6129C93 69.7742 94.0726 70.6774 95.4516 70.6774C96.8307 70.6774 97.9032 69.7742 97.9032 68.6129V38.8064C97.75 37.6451 96.6774 36.7419 95.4516 36.7419Z" fill="#B9B9B9"/>
<path d="M106.452 28.129C105.073 28.129 104 29.0322 104 30.1935V75.6129C104 76.7742 105.073 77.6774 106.452 77.6774C107.831 77.6774 108.903 76.7742 108.903 75.6129V30.1935C108.903 29.0322 107.831 28.129 106.452 28.129Z" fill="#D7D7D7" fill-opacity="0.5"/>
<path d="M117.363 24.7742C115.984 24.7742 114.911 25.6774 114.911 26.8387V77.2903C114.911 78.4516 115.984 79.3548 117.363 79.3548C118.742 79.3548 119.814 78.4516 119.814 77.2903V26.7096C119.661 25.6774 118.589 24.7742 117.363 24.7742Z" fill="#B9B9B9"/>
<path d="M129.452 42.129C128.073 42.129 127 43.0322 127 44.1935V73.3548C127 74.5161 128.073 75.4193 129.452 75.4193C130.831 75.4193 131.903 74.5161 131.903 73.3548V44.1935C131.903 43.0322 130.831 42.129 129.452 42.129Z" fill="#D7D7D7" fill-opacity="0.5"/>
<path d="M47 72.129V79.2339C47 79.7374 48.0937 80.129 49.5 80.129C50.9062 80.129 52 79.7374 52 79.2339V72.129H47Z" fill="#A2A3A3" fill-opacity="0.5"/>
<path d="M36 77.8064V94.194C36 95.355 37.0726 96.258 38.4516 96.258C39.8306 96.258 40.9032 95.355 40.9032 94.194V77.8064H36Z" fill="#B8B8B8" fill-opacity="0.5"/>
<path d="M59 67.8387V84.2258C59 85.3871 60.0726 86.2903 61.4516 86.2903C62.8306 86.2903 63.9032 85.3871 63.9032 84.2258V67.8387H59Z" fill="#B8B8B8" fill-opacity="0.5"/>
<path d="M70.1533 59.2903V75.6774C70.1533 76.8387 71.2259 77.7419 72.6049 77.7419C73.984 77.7419 75.0565 76.8387 75.0565 75.6774V59.2903H70.1533Z" fill="#A2A3A3" fill-opacity="0.5"/>
<path d="M81 62.129V78.5161C81 79.6774 82.0726 80.5806 83.4516 80.5806C84.8306 80.5806 85.9032 79.6774 85.9032 78.5161V62.129H81Z" fill="#B8B8B8" fill-opacity="0.5"/>
<path d="M93 69.129V85.5161C93 86.6774 94.0726 87.5806 95.4516 87.5806C96.8307 87.5806 97.9032 86.6774 97.9032 85.5161V69.129H93Z" fill="#A2A3A3" fill-opacity="0.5"/>
<path d="M104 76.129V92.5161C104 93.677 105.073 94.581 106.452 94.581C107.831 94.581 108.903 93.677 108.903 92.5161V76.129H104Z" fill="#B8B8B8" fill-opacity="0.5"/>
<path d="M114.911 77.8064V94.194C114.911 95.355 115.984 96.258 117.363 96.258C118.742 96.258 119.814 95.355 119.814 94.194V77.8064H114.911Z" fill="#A2A3A3" fill-opacity="0.5"/>
<path d="M126.097 77.8064V94.194C126.097 95.355 127.169 96.258 128.548 96.258C129.927 96.258 131 95.355 131 94.194V77.8064H126.097Z" fill="#B8B8B8" fill-opacity="0.5"/>
</svg>
