<svg width="410" height="353" viewBox="0 0 410 353" fill="none" xmlns="http://www.w3.org/2000/svg">
<path d="M317.557 226.138C317.209 225.553 316.997 224.901 316.936 224.228C316.875 223.554 316.966 222.876 317.203 222.241C317.44 221.606 317.817 221.029 318.307 220.551C318.798 220.073 319.39 219.705 320.041 219.475L319.797 203.045L327.178 207.642L326.279 222.539C326.604 223.632 326.507 224.803 326.005 225.831C325.503 226.859 324.633 227.671 323.558 228.115C322.482 228.559 321.278 228.602 320.172 228.238C319.066 227.874 318.135 227.127 317.557 226.138V226.138Z" fill="#FFB8B8"/>
<path d="M308.661 136.939C306.473 137.316 304.487 138.421 303.04 140.065C301.594 141.709 300.777 143.791 300.728 145.956C300.621 150.765 302.267 152.558 304.593 153.206C308.893 154.403 315.741 178.625 315.741 178.625C315.741 178.625 316.468 201.216 317.64 200.1C318.813 198.985 317.486 201.588 317.842 202.382C318.198 203.177 316.154 204.366 318.097 205.268C320.041 206.171 318.813 213.357 318.813 213.357L327.413 212.758C327.413 212.758 325.985 206.904 327.927 206.537C329.87 206.171 328.987 204.505 328.2 203.242C327.413 201.979 329.593 200.179 328.503 199.582C327.413 198.985 330.484 175.631 330.484 175.631L318.476 141.186C317.459 139.606 315.982 138.358 314.234 137.602C312.485 136.845 310.545 136.614 308.661 136.939V136.939Z" fill="#3E7BFA"/>
<path d="M282.57 138.295L288.756 127.724H297.114L303.383 138.894L282.57 138.295Z" fill="#3E7BFA"/>
<path d="M265.93 43.2389C260.987 27.0979 247.022 16.5606 230.147 14.2489C229.962 14.2234 229.785 14.2571 229.601 14.2455C229.362 14.1743 229.118 14.1196 228.871 14.0817C205.665 11.1579 180.332 16.3944 160.169 28.6924C140.843 40.4806 118.636 47.1321 95.8382 46.9843C95.1302 46.9797 94.4195 46.9947 93.706 47.0292C76.1616 47.8826 60.6782 60.3323 55.9352 76.7074C55.3128 78.8559 56.3974 80.7755 58.1416 81.9931C61.2065 84.133 63.3 85.6328 67.0709 86.4115C73.7994 87.8011 80.5509 89.0788 87.3254 90.2448V63.939C87.3283 61.4486 88.3445 59.061 90.1509 57.3C91.9573 55.5391 94.4065 54.5485 96.9612 54.5456H229.32C231.875 54.5485 234.324 55.5391 236.13 57.3C237.937 59.061 238.953 61.4486 238.956 63.939V96.6991C240.771 96.1458 242.543 95.4658 244.259 94.6644C250.644 91.59 256.099 86.9495 260.088 81.1986C267.751 70.3596 269.775 55.7924 265.93 43.2389Z" fill="#F2F2F2"/>
<path d="M210.201 197.188H93.1944C90.4944 197.185 87.9058 196.138 85.9965 194.277C84.0873 192.416 83.0133 189.892 83.0102 187.26V143.001C68.7589 138.748 53.7491 137.465 38.9561 139.237C38.7093 139.274 38.4655 139.329 38.2266 139.4C38.0418 139.412 37.8656 139.378 37.68 139.404C20.8053 141.715 6.84035 152.253 1.89725 168.394C-1.94749 180.947 0.0764485 195.514 7.73938 206.353C11.7285 212.104 17.1834 216.745 23.5685 219.819C32.345 223.94 41.5826 224.25 51.1616 224.541C79.9223 225.416 108.711 224.355 137.321 221.367C151.402 219.894 165.423 217.97 179.387 215.595C186.533 214.376 193.657 213.033 200.756 211.566C204.527 210.788 206.621 209.288 209.686 207.148C211.43 205.93 212.514 204.011 211.892 201.862C211.43 200.271 210.865 198.71 210.201 197.188V197.188Z" fill="#F2F2F2"/>
<path d="M220.556 184.058H105.725C103.509 184.055 101.384 183.196 99.8166 181.668C98.2494 180.14 97.3678 178.069 97.3652 175.908V71.8784C97.3678 69.7178 98.2494 67.6465 99.8166 66.1187C101.384 64.5909 103.509 63.7315 105.725 63.729H220.556C222.773 63.7315 224.897 64.5909 226.465 66.1187C228.032 67.6465 228.913 69.7178 228.916 71.8784V175.908C228.913 178.069 228.032 180.14 226.465 181.668C224.897 183.196 222.773 184.055 220.556 184.058V184.058Z" fill="#E6E6E6"/>
<path d="M196.388 178.561H111.365C109.149 178.558 107.024 177.699 105.457 176.171C103.89 174.643 103.008 172.572 103.005 170.411V77.3797C103.008 75.2191 103.89 73.1477 105.457 71.62C107.024 70.0922 109.149 69.2328 111.365 69.2303H214.917C217.134 69.2328 219.259 70.0922 220.826 71.62C222.393 73.1477 223.275 75.2191 223.277 77.3797V152.348C223.269 159.298 220.434 165.96 215.393 170.875C210.352 175.789 203.517 178.553 196.388 178.561V178.561Z" fill="white"/>
<path d="M163.141 160.424C183.836 160.424 200.613 144.07 200.613 123.896C200.613 103.722 183.836 87.3672 163.141 87.3672C142.447 87.3672 125.67 103.722 125.67 123.896C125.67 144.07 142.447 160.424 163.141 160.424Z" fill="#3E7BFA"/>
<path d="M324.62 346.316L319.061 346.315L316.417 325.412L324.621 325.413L324.62 346.316Z" fill="#FFB8B8"/>
<path d="M324.816 351.969L307.721 351.969V351.758C307.721 350.038 308.422 348.388 309.67 347.171C310.918 345.955 312.61 345.272 314.375 345.271H314.375L317.498 342.962L323.324 345.272L324.816 345.272L324.816 351.969Z" fill="#2F2E41"/>
<path d="M282.848 346.316L277.289 346.315L274.645 325.412L282.85 325.413L282.848 346.316Z" fill="#FFB8B8"/>
<path d="M283.044 351.969L265.949 351.969V351.758C265.949 350.038 266.65 348.388 267.898 347.171C269.146 345.955 270.838 345.272 272.603 345.271H272.604L275.726 342.962L281.552 345.272L283.045 345.272L283.044 351.969Z" fill="#2F2E41"/>
<path d="M326.392 329.016C328.42 327.724 327.246 327.807 327.246 327.807C327.246 327.807 322.71 291.962 319.26 281.099L315.267 228.201C315.267 228.201 315.014 229.256 315.267 226.691C315.521 224.127 317.363 225.923 315.521 224.127C313.678 222.33 312.449 221.415 313.678 220.076C314.906 218.737 318.295 216.029 316.294 214.389C314.292 212.749 310.353 202.054 310.353 202.054L271.96 202.353L273.496 202.054C273.496 202.054 268.703 200.32 270.899 202.578C273.094 204.835 269.67 210.363 268.441 215.752C267.424 220.216 264.403 221.4 268.441 222.339C272.48 223.278 268.825 225.939 268.825 225.939C268.825 225.939 262.746 254.152 267.353 272.715C267.353 272.715 270.531 318.629 272.14 322.577C273.749 326.526 274.364 324.131 273.749 326.526C273.135 328.921 271.906 324.729 273.135 328.921C273.805 331.111 274.336 333.339 274.724 335.592L283.055 334.993C283.055 334.993 284.99 329.049 283.055 327.488C281.121 325.927 282.457 330.482 284.553 327.007C286.649 323.532 284.192 324.729 283.578 319.939C282.964 315.148 288.599 292.831 284.553 279.138L292.031 240.716L303.903 280.5C303.903 280.5 310.2 329.089 312.246 330.802C314.292 332.514 313.466 328.357 314.292 332.514C315.127 336.715 317.023 335.601 316.97 336.116C316.398 341.609 326.392 336.191 326.392 336.191C326.295 334.795 326.295 333.395 326.392 331.999C326.578 330.718 324.364 330.308 326.392 329.016Z" fill="#2F2E41"/>
<path d="M275.813 214.554C273.356 214.554 266.599 211.31 267.827 209.938C269.056 208.566 269.056 204.011 269.056 202.696C269.056 201.38 274.584 152.875 274.584 152.875L274.164 140.999C274.139 140.287 274.261 139.578 274.523 138.913C274.785 138.248 275.182 137.641 275.69 137.129C276.197 136.616 276.806 136.209 277.478 135.931C278.151 135.653 278.874 135.509 279.605 135.509L285.027 133.713L300.384 133.114L308.042 135.509C308.802 135.509 309.549 135.699 310.212 136.061C310.875 136.423 311.431 136.945 311.828 137.577C312.225 138.208 312.449 138.929 312.478 139.669C312.508 140.409 312.342 141.144 311.996 141.804V141.804C316.06 148.271 318.099 155.754 317.864 163.334C317.688 169.006 314.741 175.933 314.03 182.34C313.968 182.902 313.923 183.461 313.898 184.014C313.891 184.168 312.634 184.937 313.88 184.476C315.127 184.014 313.212 185.643 313.863 186.625C314.513 187.607 315.772 187.005 313.914 188.204C312.055 189.404 316.145 200.986 315.741 201.38C314.513 202.578 312.055 203.177 313.898 204.973C315.741 206.77 317.584 205.572 315.127 207.967C312.67 210.363 305.308 214.554 305.308 214.554L275.813 214.554Z" fill="#3F3D56"/>
<path d="M292.235 126.16C299.537 126.16 305.456 120.39 305.456 113.271C305.456 106.153 299.537 100.383 292.235 100.383C284.933 100.383 279.014 106.153 279.014 113.271C279.014 120.39 284.933 126.16 292.235 126.16Z" fill="#FFB8B8"/>
<path d="M211.709 153.261C212.343 152.987 213.031 152.853 213.724 152.867C214.417 152.881 215.099 153.043 215.721 153.341C216.343 153.64 216.891 154.068 217.325 154.595C217.759 155.122 218.069 155.735 218.234 156.392L235.014 157.939L229.525 164.593L214.432 162.104C213.282 162.3 212.098 162.079 211.104 161.481C210.111 160.883 209.377 159.951 209.041 158.861C208.705 157.771 208.791 156.599 209.283 155.567C209.775 154.535 210.638 153.714 211.709 153.261V153.261Z" fill="#FFB8B8"/>
<path d="M291.27 143.666C290.884 141.534 289.751 139.597 288.064 138.187C286.378 136.777 284.242 135.981 282.021 135.933C277.088 135.829 275.249 137.433 274.584 139.701C273.356 143.893 253.578 158.628 253.578 158.628L236.592 156.836C235.571 156.512 236.055 155.605 232.215 156.374C230.323 155.166 229.1 155.371 228.047 155.934L221.756 155.27L222.37 164.852C222.37 164.852 229.105 163.29 230.356 166.049C231.607 168.809 231.321 169.205 234.042 167.247C236.763 165.289 236.499 167.247 236.499 167.247L256.156 172.038L286.914 153.234C288.535 152.243 289.815 150.803 290.591 149.099C291.367 147.394 291.604 145.503 291.271 143.666H291.27Z" fill="#3E7BFA"/>
<path d="M297.368 124.778L298.234 125.048C295.525 125.269 290.697 126.742 291.17 125.928C291.643 125.113 289.855 122.041 290.728 121.652C291.634 121.342 292.443 120.808 293.074 120.101C293.627 119.347 293.615 118.101 292.785 117.64C291.981 117.185 290.986 117.676 290.187 118.137C289.382 118.592 287.896 111.897 288.277 109.807C286.035 108.61 283.319 110.903 280.801 110.454C279.259 110.179 278.147 108.945 277.447 107.544C278.591 106.486 279.442 105.164 279.922 103.699C278.853 104.225 277.711 104.594 276.532 104.795C276.32 103.708 276.349 102.589 276.618 101.514C276.823 100.655 277.243 99.8595 277.84 99.1972C278.437 98.5349 279.192 98.0265 280.039 97.7171C280.898 97.4394 281.829 97.4554 282.678 97.7623C283.526 98.0693 284.242 98.649 284.708 99.4058C284.76 98.5907 284.545 97.7804 284.095 97.0918C283.644 96.4031 282.981 95.8714 282.201 95.5733C282.771 95.2854 283.4 95.1296 284.042 95.1181C284.683 95.1065 285.318 95.2395 285.898 95.5068C286.478 95.774 286.986 96.1682 287.384 96.6586C287.782 97.149 288.058 97.7223 288.191 98.3339C290.965 96.9787 294.148 96.6469 297.153 97.3998C300.126 98.1603 304.07 101.376 304.07 101.376C310.778 102.819 310.458 127.682 297.368 124.778Z" fill="#2F2E41"/>
<path d="M367.412 346.83C367.565 346.837 367.717 346.798 367.846 346.718C367.976 346.638 368.077 346.521 368.136 346.384C368.195 346.246 368.209 346.094 368.177 345.948C368.144 345.802 368.066 345.669 367.954 345.568L367.903 345.369L367.923 345.322C368.077 344.967 368.336 344.664 368.666 344.452C368.996 344.239 369.383 344.127 369.778 344.128C370.174 344.13 370.56 344.245 370.888 344.46C371.217 344.674 371.473 344.979 371.624 345.335C372.23 346.756 373.001 348.18 373.19 349.683C373.274 350.347 373.239 351.021 373.086 351.673C374.508 348.65 375.246 345.363 375.251 342.037C375.251 341.203 375.204 340.369 375.109 339.539C375.03 338.859 374.921 338.184 374.781 337.514C374.019 333.876 372.383 330.467 370.007 327.566C368.857 326.955 367.927 326.014 367.342 324.871C367.13 324.461 366.98 324.022 366.897 323.569C367.149 322.921 367.282 322.235 367.289 321.542C367.47 321.274 367.793 321.141 367.991 320.88C368.973 319.583 370.325 319.809 371.032 321.573C372.54 322.315 372.555 323.546 371.629 324.73C371.04 325.484 370.959 326.503 370.443 327.309C370.496 327.376 370.551 327.44 370.604 327.506C371.576 328.725 372.423 330.033 373.133 331.412C372.961 329.867 373.167 328.304 373.735 326.851C374.31 325.498 375.389 324.357 376.339 323.187C376.591 322.873 376.932 322.638 377.32 322.513C377.708 322.388 378.126 322.377 378.52 322.483C378.914 322.589 379.267 322.806 379.534 323.108C379.802 323.409 379.971 323.781 380.022 324.177L380.028 324.229C379.886 324.306 379.748 324.389 379.613 324.476C379.443 324.586 379.312 324.744 379.236 324.929C379.16 325.114 379.143 325.317 379.187 325.511C379.231 325.705 379.334 325.882 379.483 326.018C379.632 326.154 379.82 326.244 380.022 326.274L380.042 326.277C379.992 326.773 379.903 327.264 379.777 327.747C380.996 332.342 378.364 334.016 374.607 334.091C374.524 334.132 374.443 334.174 374.36 334.213C375.073 336.184 375.521 338.237 375.691 340.321C375.788 341.55 375.782 342.785 375.674 344.013L375.681 343.969C375.953 342.604 376.7 341.371 377.797 340.48C379.425 339.176 381.726 338.696 383.483 337.648C383.669 337.531 383.886 337.469 384.108 337.468C384.33 337.468 384.547 337.529 384.735 337.645C384.922 337.761 385.071 337.927 385.165 338.123C385.259 338.319 385.293 338.537 385.264 338.751L385.257 338.797C384.995 338.901 384.74 339.021 384.494 339.155C384.352 339.233 384.214 339.315 384.079 339.403C383.909 339.513 383.778 339.671 383.702 339.856C383.626 340.041 383.609 340.244 383.653 340.438C383.697 340.632 383.8 340.809 383.949 340.945C384.098 341.081 384.286 341.17 384.488 341.201L384.509 341.204L384.551 341.21C384.104 342.252 383.476 343.21 382.694 344.044C381.932 348.055 378.659 348.436 375.157 347.268H375.155C374.771 348.895 374.215 350.479 373.494 351.995H367.561C367.54 351.93 367.521 351.864 367.501 351.8C368.051 351.833 368.602 351.801 369.143 351.704C368.703 351.178 368.263 350.647 367.823 350.12C367.813 350.111 367.803 350.1 367.795 350.089C367.572 349.82 367.346 349.552 367.123 349.283L367.123 349.283C367.111 348.456 367.208 347.632 367.412 346.83L367.412 346.83Z" fill="#F2F2F2"/>
<path d="M169.867 352.816L409.269 353C409.463 353 409.649 352.925 409.786 352.791C409.923 352.657 410 352.476 410 352.287C410 352.098 409.923 351.917 409.786 351.783C409.649 351.649 409.463 351.574 409.269 351.574L169.867 351.39C169.673 351.39 169.487 351.465 169.35 351.599C169.213 351.733 169.135 351.914 169.135 352.103C169.135 352.292 169.213 352.473 169.35 352.607C169.487 352.741 169.673 352.816 169.867 352.816V352.816Z" fill="#CACACA"/>
<path d="M157.636 252.879C155.918 252.879 154.238 252.382 152.809 251.452C151.38 250.521 150.266 249.198 149.608 247.65C148.951 246.102 148.778 244.399 149.114 242.756C149.449 241.113 150.277 239.604 151.492 238.419C152.707 237.234 154.255 236.427 155.941 236.101C157.627 235.774 159.374 235.941 160.961 236.583C162.549 237.224 163.906 238.309 164.861 239.702C165.816 241.095 166.325 242.733 166.325 244.409C166.323 246.654 165.407 248.807 163.778 250.395C162.149 251.983 159.94 252.877 157.636 252.879V252.879ZM157.636 237.136C156.161 237.136 154.718 237.562 153.491 238.361C152.264 239.16 151.308 240.296 150.743 241.625C150.179 242.954 150.031 244.417 150.319 245.827C150.607 247.238 151.317 248.534 152.361 249.551C153.404 250.569 154.733 251.261 156.181 251.542C157.628 251.823 159.128 251.679 160.491 251.128C161.855 250.578 163.02 249.645 163.84 248.449C164.659 247.253 165.097 245.847 165.097 244.409C165.095 242.48 164.308 240.632 162.909 239.268C161.511 237.905 159.614 237.138 157.636 237.136V237.136Z" fill="#F2F2F2"/>
<path d="M161.038 244.012L158.343 240.818C158.27 240.731 158.178 240.661 158.075 240.612C157.971 240.564 157.858 240.537 157.743 240.536C157.628 240.534 157.513 240.556 157.408 240.602C157.303 240.647 157.209 240.714 157.133 240.798L154.251 243.993C154.114 244.147 154.044 244.349 154.058 244.553C154.072 244.757 154.169 244.947 154.326 245.082C154.484 245.217 154.69 245.286 154.899 245.274C155.109 245.261 155.305 245.168 155.444 245.016L156.935 243.363V247.507C156.935 247.713 157.019 247.909 157.168 248.055C157.317 248.2 157.519 248.281 157.729 248.281C157.94 248.281 158.142 248.2 158.291 248.055C158.44 247.909 158.524 247.713 158.524 247.507V243.47L159.811 244.996C159.945 245.155 160.137 245.255 160.347 245.275C160.557 245.295 160.766 245.233 160.929 245.102C161.091 244.972 161.194 244.784 161.215 244.579C161.235 244.375 161.171 244.171 161.038 244.012H161.038Z" fill="#F2F2F2"/>
<path d="M256.536 127.724C254.817 127.724 253.137 127.228 251.708 126.297C250.279 125.366 249.165 124.043 248.508 122.495C247.85 120.947 247.678 119.244 248.013 117.601C248.348 115.958 249.176 114.449 250.391 113.264C251.606 112.079 253.155 111.273 254.84 110.946C256.526 110.619 258.273 110.787 259.861 111.428C261.449 112.069 262.806 113.155 263.76 114.548C264.715 115.941 265.225 117.578 265.225 119.254C265.222 121.499 264.306 123.653 262.677 125.241C261.048 126.829 258.839 127.722 256.536 127.724V127.724ZM256.536 111.981C255.06 111.981 253.617 112.407 252.391 113.206C251.164 114.006 250.207 115.141 249.643 116.47C249.078 117.799 248.93 119.262 249.218 120.673C249.506 122.083 250.217 123.379 251.26 124.397C252.303 125.414 253.633 126.106 255.08 126.387C256.527 126.668 258.027 126.524 259.391 125.973C260.754 125.423 261.919 124.49 262.739 123.294C263.559 122.098 263.996 120.692 263.996 119.254C263.994 117.325 263.207 115.477 261.809 114.113C260.41 112.75 258.514 111.983 256.536 111.981V111.981Z" fill="#F2F2F2"/>
<path d="M259.937 118.858L257.242 115.663C257.169 115.576 257.078 115.506 256.974 115.457C256.87 115.409 256.757 115.383 256.642 115.381C256.527 115.379 256.413 115.401 256.308 115.447C256.202 115.492 256.108 115.559 256.032 115.643L253.151 118.838C253.013 118.992 252.944 119.194 252.958 119.398C252.972 119.602 253.068 119.792 253.226 119.928C253.383 120.063 253.589 120.131 253.799 120.119C254.008 120.106 254.204 120.014 254.344 119.861L255.835 118.208V122.352C255.835 122.558 255.918 122.755 256.067 122.9C256.216 123.045 256.418 123.127 256.629 123.127C256.84 123.127 257.042 123.045 257.191 122.9C257.339 122.755 257.423 122.558 257.423 122.352V118.316L258.71 119.841C258.844 120 259.037 120.1 259.247 120.12C259.456 120.14 259.665 120.078 259.828 119.947C259.991 119.817 260.094 119.629 260.114 119.424C260.135 119.22 260.071 119.016 259.937 118.858L259.937 118.858Z" fill="#F2F2F2"/>
<path d="M60.5795 120.538C58.8609 120.538 57.1809 120.042 55.7519 119.111C54.323 118.18 53.2093 116.857 52.5516 115.309C51.8939 113.762 51.7218 112.058 52.0571 110.415C52.3924 108.772 53.22 107.263 54.4352 106.078C55.6504 104.893 57.1987 104.087 58.8843 103.76C60.5698 103.433 62.317 103.601 63.9047 104.242C65.4925 104.883 66.8496 105.969 67.8044 107.362C68.7592 108.755 69.2688 110.392 69.2688 112.068C69.2662 114.314 68.3499 116.467 66.7209 118.055C65.0919 119.643 62.8832 120.536 60.5795 120.538V120.538ZM60.5795 104.795C59.1039 104.795 57.6614 105.221 56.4345 106.02C55.2076 106.82 54.2513 107.956 53.6866 109.284C53.1219 110.613 52.9742 112.076 53.2621 113.487C53.5499 114.898 54.2605 116.193 55.3039 117.211C56.3473 118.228 57.6767 118.92 59.124 119.201C60.5712 119.482 62.0713 119.338 63.4346 118.787C64.7979 118.237 65.9631 117.305 66.7829 116.108C67.6027 114.912 68.0402 113.506 68.0402 112.068C68.038 110.139 67.2513 108.291 65.8526 106.927C64.4539 105.564 62.5575 104.797 60.5795 104.795V104.795Z" fill="#F2F2F2"/>
<path d="M63.9811 111.672L61.2863 108.477C61.2132 108.39 61.1217 108.32 61.018 108.272C60.9144 108.223 60.8011 108.197 60.686 108.195C60.5709 108.193 60.4568 108.215 60.3516 108.261C60.2463 108.306 60.1524 108.373 60.0764 108.458L57.1947 111.652C57.057 111.806 56.9875 112.008 57.0015 112.212C57.0156 112.416 57.1119 112.607 57.2695 112.742C57.4271 112.877 57.6332 112.946 57.8427 112.933C58.0522 112.921 58.2481 112.828 58.3876 112.675L59.8786 111.022V115.166C59.8786 115.372 59.9622 115.569 60.1112 115.714C60.2601 115.859 60.4622 115.941 60.6728 115.941C60.8835 115.941 61.0855 115.859 61.2345 115.714C61.3834 115.569 61.4671 115.372 61.4671 115.166V111.13L62.754 112.655C62.8878 112.814 63.0808 112.914 63.2905 112.934C63.5001 112.954 63.7093 112.892 63.872 112.761C64.0347 112.631 64.1376 112.443 64.1581 112.239C64.1785 112.034 64.1148 111.83 63.981 111.672L63.9811 111.672Z" fill="#F2F2F2"/>
<path d="M129.993 16.9414C128.275 16.9414 126.595 16.4446 125.166 15.5139C123.737 14.5831 122.623 13.2601 121.965 11.7123C121.308 10.1645 121.136 8.46133 121.471 6.81817C121.806 5.17501 122.634 3.66567 123.849 2.48102C125.064 1.29637 126.613 0.489616 128.298 0.162771C129.984 -0.164073 131.731 0.00366723 133.319 0.644795C134.906 1.28592 136.263 2.37164 137.218 3.76464C138.173 5.15764 138.683 6.79537 138.683 8.47072C138.68 10.7165 137.764 12.8696 136.135 14.4576C134.506 16.0456 132.297 16.9389 129.993 16.9414ZM129.993 1.19767C128.518 1.19767 127.075 1.62423 125.848 2.4234C124.621 3.22258 123.665 4.35847 123.1 5.68745C122.536 7.01643 122.388 8.4788 122.676 9.88963C122.964 11.3005 123.674 12.5964 124.718 13.6136C125.761 14.6307 127.091 15.3234 128.538 15.604C129.985 15.8847 131.485 15.7406 132.848 15.1902C134.212 14.6397 135.377 13.7075 136.197 12.5114C137.016 11.3154 137.454 9.90919 137.454 8.47072C137.452 6.54244 136.665 4.69375 135.266 3.33025C133.868 1.96675 131.971 1.1998 129.993 1.19766V1.19767Z" fill="#F2F2F2"/>
<path d="M133.395 8.07454L130.7 4.88008C130.627 4.79343 130.536 4.7233 130.432 4.67454C130.328 4.62579 130.215 4.59958 130.1 4.59773C129.985 4.59587 129.871 4.61841 129.765 4.66379C129.66 4.70917 129.566 4.7763 129.49 4.86054L126.608 8.05501C126.471 8.20941 126.401 8.41069 126.415 8.61484C126.429 8.819 126.526 9.00944 126.683 9.14456C126.841 9.27969 127.047 9.3485 127.257 9.33597C127.466 9.32345 127.662 9.23059 127.801 9.0777L129.292 7.42494V11.5693C129.292 11.7747 129.376 11.9716 129.525 12.1168C129.674 12.262 129.876 12.3436 130.087 12.3436C130.297 12.3436 130.499 12.262 130.648 12.1168C130.797 11.9716 130.881 11.7747 130.881 11.5693V7.53258L132.168 9.05819C132.302 9.2168 132.495 9.3171 132.704 9.33703C132.914 9.35695 133.123 9.29487 133.286 9.16443C133.449 9.03399 133.551 8.84589 133.572 8.6415C133.592 8.43711 133.529 8.23318 133.395 8.07457L133.395 8.07454Z" fill="#F2F2F2"/>
<path d="M37.2368 183.415C35.5181 183.415 33.8381 182.919 32.4091 181.988C30.9801 181.057 29.8663 179.734 29.2086 178.186C28.5509 176.638 28.3788 174.935 28.7141 173.292C29.0494 171.649 29.877 170.139 31.0922 168.955C32.3075 167.77 33.8558 166.963 35.5414 166.636C37.227 166.31 38.9742 166.477 40.562 167.118C42.1498 167.76 43.5069 168.845 44.4617 170.238C45.4165 171.631 45.9261 173.269 45.9261 174.945C45.9235 177.19 45.0072 179.343 43.3782 180.932C41.7492 182.52 39.5405 183.413 37.2368 183.415ZM37.2368 167.671C35.7611 167.671 34.3186 168.098 33.0917 168.897C31.8647 169.696 30.9084 170.832 30.3437 172.161C29.7789 173.49 29.6312 174.952 29.919 176.363C30.2069 177.774 30.9174 179.07 31.9608 180.087C33.0042 181.105 34.3337 181.797 35.7809 182.078C37.2282 182.359 38.7283 182.215 40.0916 181.664C41.455 181.114 42.6202 180.181 43.4401 178.985C44.2599 177.789 44.6975 176.383 44.6975 174.945C44.6954 173.016 43.9086 171.168 42.5099 169.804C41.1112 168.44 39.2149 167.673 37.2368 167.671V167.671Z" fill="white"/>
<path d="M40.6383 174.548L37.9436 171.354C37.8705 171.267 37.7789 171.197 37.6753 171.148C37.5716 171.1 37.4583 171.073 37.3432 171.072C37.2282 171.07 37.114 171.092 37.0088 171.138C36.9035 171.183 36.8096 171.25 36.7336 171.334L33.8519 174.529C33.7142 174.683 33.6447 174.885 33.6588 175.089C33.6728 175.293 33.7691 175.483 33.9268 175.618C34.0844 175.754 34.2904 175.822 34.4999 175.81C34.7094 175.797 34.9053 175.704 35.0448 175.552L36.5358 173.899V178.043C36.5358 178.249 36.6195 178.446 36.7684 178.591C36.9174 178.736 37.1194 178.818 37.3301 178.818C37.5407 178.818 37.7427 178.736 37.8917 178.591C38.0406 178.446 38.1243 178.249 38.1243 178.043V174.006L39.4113 175.532C39.5451 175.691 39.738 175.791 39.9477 175.811C40.1574 175.831 40.3666 175.769 40.5293 175.638C40.692 175.508 40.7949 175.32 40.8153 175.115C40.8357 174.911 40.772 174.707 40.6382 174.548L40.6383 174.548Z" fill="white"/>
<path d="M225.207 41.4933C223.489 41.4934 221.809 40.9966 220.38 40.0658C218.951 39.135 217.837 37.8121 217.179 36.2642C216.521 34.7163 216.349 33.0131 216.685 31.3699C217.02 29.7267 217.847 28.2174 219.063 27.0327C220.278 25.848 221.826 25.0412 223.512 24.7144C225.197 24.3875 226.945 24.5553 228.532 25.1964C230.12 25.8376 231.477 26.9234 232.432 28.3164C233.387 29.7094 233.897 31.3472 233.897 33.0226C233.894 35.2684 232.978 37.4215 231.349 39.0095C229.72 40.5975 227.511 41.4908 225.207 41.4933V41.4933ZM225.207 25.7493C223.732 25.7492 222.289 26.1758 221.062 26.9749C219.835 27.7741 218.879 28.91 218.314 30.239C217.749 31.568 217.602 33.0304 217.889 34.4413C218.177 35.8521 218.888 37.1481 219.931 38.1653C220.975 39.1825 222.304 39.8752 223.751 40.1559C225.199 40.4366 226.699 40.2926 228.062 39.7421C229.425 39.1916 230.591 38.2594 231.411 37.0634C232.23 35.8673 232.668 34.4611 232.668 33.0226C232.666 31.0943 231.879 29.2456 230.48 27.882C229.082 26.5185 227.185 25.7515 225.207 25.7493V25.7493Z" fill="white"/>
<path d="M171.599 128.364L183.531 147.365H159.667L171.599 128.364Z" fill="#E6E6E6"/>
<ellipse cx="146.548" cy="122.03" rx="11.2729" ry="11.4007" fill="#E6E6E6"/>
<rect x="162.831" y="98.8062" width="17.5357" height="21.9569" fill="#E6E6E6"/>
</svg>
