<svg width="104" height="139" viewBox="0 0 104 139" fill="none" xmlns="http://www.w3.org/2000/svg">
<path d="M100.181 26.5146L77.4583 3.79165C75.0208 1.35415 71.7167 -0.0270996 68.2771 -0.0270996H13C5.82292 -1.62274e-05 0 5.82289 0 13V125.667C0 132.844 5.82292 138.667 13 138.667H91C98.1771 138.667 104 132.844 104 125.667V35.7229C104 32.2833 102.619 28.9521 100.181 26.5146ZM89.9438 34.6667H69.3333V14.0562L89.9438 34.6667ZM13 125.667V13H56.3333V41.1667C56.3333 44.7687 59.2313 47.6667 62.8333 47.6667H91V125.667H13Z" fill="#D1D1D1"/>
</svg>
