<svg width="167" height="122" viewBox="0 0 167 122" fill="none" xmlns="http://www.w3.org/2000/svg">
<rect width="167" height="120" fill="white"/>
<rect x="38.813" y="31.1786" width="85.4903" height="66.7321" rx="4.5" stroke="#D1D1D1" stroke-opacity="0.51" stroke-width="3"/>
<g clip-path="url(#clip0_1249_1246)">
<path fill-rule="evenodd" clip-rule="evenodd" d="M81.8824 83.3325C81.1618 83.4899 80.3116 83.6742 79.7353 83.807C79.037 83.8481 78.3422 83.8861 77.674 83.6488C77.12 83.3713 76.3402 83.0913 75.6127 83.0162C74.6783 82.6824 73.7979 82.2403 73.0361 81.5926C71.8552 80.9765 71.4403 79.7918 70.7172 78.8246C69.8188 77.7648 69.1051 76.6039 68.1835 75.5425C67.7807 75.0482 67.1766 74.0391 66.3369 72.8931C65.6163 71.9235 64.7233 70.1876 64.4904 69.532C64.2884 69.127 63.7595 67.9408 63.4168 67.1989C63.0529 66.5306 62.4557 65.5176 62.0426 64.9054C61.6645 64.3455 61.6991 62.9219 61.6991 62.3747C61.7993 61.6502 62.4486 61.6463 62.6009 61.6234C63.0655 61.5553 64.1961 61.4272 64.6192 61.742C66.0542 62.1611 66.7002 63.0208 67.3676 64.2727C67.5857 64.6753 67.9671 65.9328 68.3123 66.2499C69.4993 67.2891 69.9828 68.1725 70.4166 68.7411C70.7069 69.2061 71.3244 69.5549 71.7478 69.6506C72.1772 69.8357 72.5818 69.1808 72.7784 68.9784C73.2637 68.4801 73.3711 67.9439 73.3797 67.3176C73.3848 66.9514 73.4089 66.3503 73.4655 65.9335C73.5763 65.1245 73.5325 64.559 73.5514 63.9959C73.5738 63.3474 73.122 62.5376 73.122 61.742C72.9433 61.1417 73.0164 59.7965 73.0361 59.2903C73.0653 58.5342 72.9502 57.2697 72.9073 56.6805C72.8678 56.1364 72.5491 54.7911 72.5208 54.0706C72.4882 53.2355 72.2056 51.7748 72.1772 50.9072C72.1592 50.3654 72.2563 49.4166 72.3061 48.9302C72.3585 48.4189 72.3963 47.5227 72.392 46.9135C72.3894 46.5372 72.6797 45.9334 73.079 45.6481C73.6511 45.0818 74.8019 44.7409 75.5268 45.2527C76.4982 45.9002 76.4011 46.5334 76.6004 46.9135C76.9113 47.505 76.8297 48.2448 76.901 48.8511C76.9551 49.4768 77.0238 50.0802 76.901 51.1049C76.901 51.5557 76.9474 52.5332 76.9869 53.1216C77.0298 53.7606 77.2394 55.0284 77.3304 55.4942C77.467 56.1917 77.631 57.4239 77.5881 58.0645C77.5314 58.9123 77.7736 59.8281 77.8458 60.3975C77.9213 60.997 78.4298 61.897 78.8764 62.256C79.2199 62.5321 79.8641 61.8393 79.8641 60.9116C79.7756 59.5624 80.0822 58.0352 80.0359 57.4713C79.9946 56.9707 80.0788 56.391 80.0788 56.285C80.0092 56.0296 80.0788 55.7583 80.0788 55.4942C80.0788 54.9216 79.8521 54.1869 79.907 53.4379C79.9405 52.9777 79.8564 51.7281 79.8212 51.0653C79.8212 49.3426 79.7731 50.28 79.7782 49.5233C79.7816 49.0228 79.9414 48.0126 80.0359 47.6648C80.0634 46.855 80.2901 46.0072 80.4653 45.4504C80.7444 44.7377 81.4581 43.6874 82.4836 43.6314C83.9068 43.6946 84.228 44.2265 84.2873 45.0154C84.3104 45.325 84.4015 46.3072 84.459 46.5971C84.4814 47.0301 84.5587 48.0327 84.5879 48.5743C84.6231 49.2235 84.8043 50.1772 84.8455 50.749C84.8696 51.0812 84.7227 52.0033 84.7596 52.6471C84.5964 53.3035 84.8026 54.2501 84.8026 54.9801V57.2341C84.8026 58.206 84.5338 59.0341 84.7167 59.8439C84.7931 60.1848 84.8824 61.167 85.275 61.2279C85.932 61.3307 86.5916 60.2615 86.778 58.4994C86.8922 57.378 87.1215 56.2471 87.1215 55.336C86.9807 54.818 87.484 53.2173 87.6368 52.6866C87.879 51.8451 88.0019 50.8684 88.238 50.2349C88.1281 49.2467 88.5206 48.2467 88.6675 47.2694C88.8822 46.5467 89.1201 45.7452 89.6981 45.5295C90.2564 45.0776 90.8859 45.2659 91.2441 45.4108C91.8453 45.8261 92.066 46.4188 92.2318 47.0321C92.3683 47.5377 92.2172 48.4293 92.1459 48.8906C92.1467 49.5256 92.1983 50.3014 92.1459 51.0258C92.0944 51.7384 91.8882 52.5901 91.8882 53.1611C91.8977 53.9504 91.7594 55.1604 91.7594 56.0873C91.5679 57.2515 91.5017 58.3753 91.2441 59.5276C91.0671 60.2947 90.6059 61.3655 90.5999 62.2165C90.5999 62.9496 90.2048 63.9018 91.2441 64.0355C91.8453 64.6974 92.6483 62.6665 93.0047 62.0583C93.4179 61.1552 93.9856 59.7656 94.2072 59.1321C94.4519 58.5192 94.9973 57.6588 95.1949 57.0759C95.7119 56.1229 95.9395 55.3052 96.1396 54.6638C96.4806 54.0366 97.129 53.5067 97.5997 53.4379C98.2292 53.3462 98.7463 53.8247 99.1456 54.387C99.4042 55.0181 99.1113 55.9932 98.9739 56.9177C98.7119 58.1175 98.3744 59.1788 98.0781 59.8684C97.8651 60.3627 97.3274 61.4494 97.0844 62.101C96.7966 62.7416 96.4643 63.5966 96.1903 64.0687C95.8888 64.5867 95.3409 65.3246 95.1519 66.0126C94.8822 67.0067 94.8513 67.8561 94.8513 68.6225C94.8513 69.1136 94.6795 69.5517 94.6795 70.2042C94.7457 71.0148 94.4013 71.7677 94.5078 72.5768C94.5636 72.7816 94.5507 73.3945 94.4648 73.9212C94.5352 74.6955 94.1307 75.7054 93.9924 76.2147C93.8258 76.8277 93.3912 78.2022 93.3912 78.4687C92.6217 79.7681 92.5461 80.6974 92.06 81.3158C91.6434 81.8061 91.2166 82.5211 90.7288 82.858C90.3268 83.1356 89.8948 83.4796 89.5263 83.6488C88.8384 83.996 88.0663 84.3416 86.8639 84.4397C86.0385 84.3709 85.0877 84.0308 84.5449 83.9652C83.7273 83.6109 82.7731 83.3776 81.8824 83.3325Z" stroke="#E8E8E8" stroke-width="2"/>
<path d="M75.7847 63.4819C77.0266 63.0754 78.7263 62.3573 79.6925 62.1374C80.7309 61.9792 81.8594 61.7333 82.3979 61.5838C83.6373 61.4122 84.9986 61.0903 86.0911 61.4256C87.0624 61.5917 88.2339 62.2861 88.8824 62.5328C89.4759 62.8334 90.3459 63.6076 90.9007 63.9168C91.6127 64.3139 92.4166 65.0335 92.7473 65.2613" stroke="#E8E8E8"/>
<path d="M68.4411 66.4476C68.1911 66.6255 67.9481 66.8383 67.7187 67.0479C67.4699 67.2748 67.2362 67.4987 67.0239 67.6734" stroke="#E8E8E8"/>
</g>
<path d="M104.593 80.0801C104.793 80.0782 104.992 80.0763 105.198 80.0744C105.417 80.074 105.636 80.0737 105.862 80.0733C106.092 80.0717 106.323 80.07 106.561 80.0684C107.194 80.064 107.827 80.0619 108.46 80.0605C108.856 80.0595 109.252 80.0582 109.648 80.0567C110.887 80.0522 112.127 80.049 113.366 80.0478C114.796 80.0463 116.225 80.0405 117.654 80.031C118.759 80.0239 119.865 80.0206 120.971 80.0202C121.631 80.0198 122.29 80.0179 122.95 80.012C123.687 80.0056 124.424 80.007 125.161 80.0092C125.378 80.0061 125.596 80.0031 125.819 80C126.981 80.0105 127.759 80.1 128.64 80.8369C129.607 81.7871 129.73 82.4626 129.718 83.7241C129.719 83.8854 129.72 84.0468 129.722 84.213C129.725 84.745 129.723 85.2768 129.72 85.8088C129.721 86.1796 129.722 86.5505 129.722 86.9213C129.724 87.6982 129.722 88.4751 129.719 89.252C129.715 90.2459 129.717 91.2398 129.721 92.2337C129.724 92.9995 129.723 93.7653 129.721 94.5312C129.721 94.8975 129.721 95.2639 129.723 95.6303C129.725 96.1434 129.722 96.6563 129.718 97.1694C129.719 97.3197 129.721 97.47 129.722 97.6249C129.709 98.5988 129.514 99.34 128.919 100.153C128.156 100.827 127.573 100.991 126.539 101.018C126.338 101.023 126.137 101.029 125.931 101.034C125.71 101.04 125.49 101.045 125.263 101.05C124.914 101.059 124.914 101.059 124.559 101.068C122.414 101.12 120.268 101.15 118.123 101.175C116.681 101.191 115.241 101.215 113.8 101.255C112.542 101.291 111.284 101.313 110.024 101.32C109.359 101.325 108.695 101.335 108.03 101.361C104.008 101.511 104.008 101.511 102.8 100.621C101.97 99.7688 101.389 98.8212 100.856 97.7904C100.546 97.2125 100.171 96.711 99.7659 96.1871C99.4028 95.691 99.0401 95.1947 98.678 94.698C98.1531 93.979 97.6281 93.2616 97.0768 92.5597C97.0006 92.4617 96.9243 92.3638 96.8457 92.2628C96.6564 92.0216 96.4641 91.7823 96.2714 91.5433C95.97 91.0227 95.9737 90.7261 96.029 90.1397C96.2516 89.7241 96.2516 89.7241 96.5685 89.3074C96.687 89.1488 96.8054 88.9903 96.9275 88.827C97.0577 88.6575 97.1879 88.488 97.3221 88.3134C97.5258 88.0421 97.7296 87.7707 97.9331 87.4991C98.1494 87.211 98.3667 86.9235 98.584 86.6361C99.2798 85.7132 99.9579 84.7791 100.638 83.846C100.855 83.5479 101.072 83.2501 101.29 82.9523C101.359 82.8586 101.427 82.7648 101.498 82.6682C101.564 82.5787 101.629 82.4891 101.697 82.3968C102.057 81.9035 102.414 81.4108 102.759 80.9077C103.301 80.1924 103.691 80.0852 104.593 80.0801Z" fill="#68D585"/>
<path d="M132.52 89.2436C133.659 88.8368 134.87 89.0067 136.001 89.3771C136.946 89.866 137.392 90.6102 137.937 91.4529C138.196 91.8057 138.456 92.1572 138.717 92.5077C139.065 92.9835 139.411 93.4607 139.757 93.9379C139.979 94.2433 140.2 94.5487 140.422 94.854C140.495 94.9547 140.568 95.0554 140.644 95.1591C141.123 95.8168 141.613 96.4656 142.112 97.1112C142.236 97.2738 142.36 97.4365 142.488 97.6041C142.72 97.9075 142.955 98.2093 143.193 98.5089C143.649 99.1096 143.935 99.4978 144 100.239C143.682 101.037 143.2 101.658 142.657 102.338C142.429 102.632 142.201 102.925 141.974 103.218C141.86 103.365 141.745 103.512 141.628 103.663C141.144 104.292 140.683 104.935 140.225 105.581C139.463 106.649 138.693 107.713 137.915 108.771C137.817 108.906 137.718 109.041 137.617 109.179C137.525 109.304 137.434 109.428 137.339 109.556C137.258 109.666 137.177 109.776 137.094 109.89C136.876 110.167 136.876 110.167 136.523 110.495C136.107 110.537 136.107 110.537 135.576 110.539C135.274 110.541 135.274 110.541 134.966 110.543C134.745 110.543 134.523 110.543 134.295 110.543C134.062 110.544 133.829 110.545 133.59 110.546C132.95 110.549 132.311 110.55 131.672 110.55C131.138 110.55 130.604 110.551 130.07 110.553C128.81 110.555 127.55 110.556 126.289 110.556C124.99 110.556 123.691 110.559 122.393 110.564C121.277 110.569 120.162 110.57 119.046 110.57C118.38 110.57 117.714 110.571 117.048 110.574C116.421 110.578 115.794 110.578 115.166 110.575C114.828 110.575 114.489 110.577 114.15 110.58C112.965 110.572 112.174 110.54 111.236 109.838C109.759 108.431 109.758 106.201 109.721 104.345C109.752 103.491 109.82 102.679 110.352 101.959C112.37 100.627 116.062 101.291 118.364 101.44C119.402 101.501 120.441 101.526 121.48 101.553C122.65 101.585 123.82 101.621 124.989 101.684C125.258 101.698 125.258 101.698 125.532 101.712C125.864 101.73 126.196 101.75 126.527 101.771C127.577 101.827 128.624 101.795 129.626 101.466C129.626 101.358 129.626 101.25 129.626 101.138C129.75 101.081 129.874 101.023 130.002 100.964C131.093 100.281 131.592 99.286 131.86 98.1217C131.978 97.3407 131.899 96.5711 131.843 95.787C131.566 90.165 131.566 90.165 132.52 89.2436Z" fill="#FEC1C0"/>
<defs>
<clipPath id="clip0_1249_1246">
<rect width="41.3115" height="49.6447" fill="white" transform="translate(58.9507 39.0658)"/>
</clipPath>
</defs>
</svg>
