<svg width="167" height="122" viewBox="0 0 167 122" fill="none" xmlns="http://www.w3.org/2000/svg">
<rect width="167" height="120" fill="white"/>
<rect x="38.813" y="31.1786" width="85.4903" height="66.7321" rx="4.5" stroke="#D1D1D1" stroke-opacity="0.51" stroke-width="3"/>
<path d="M68 39C76.91 39 85.82 39 95 39C95 55.83 95 72.66 95 90C86.09 90 77.18 90 68 90C68 73.17 68 56.34 68 39Z" fill="#FEFEFE"/>
<path d="M74.0362 41.9435C74.08 41.9422 74.1239 41.9408 74.169 41.9394C74.5012 41.939 74.6953 42.0227 74.9491 42.2246C74.985 42.2524 75.0208 42.2802 75.0577 42.3088C75.3876 42.6195 75.5729 42.9664 75.5802 43.4113C75.5776 43.7046 75.5132 43.9593 75.4305 44.24C75.2765 44.802 75.187 45.3666 75.1096 45.9425C75.1012 46.0048 75.1012 46.0048 75.0926 46.0684C74.9415 47.1954 74.8927 48.2914 75.0294 49.4217C75.033 49.4526 75.0367 49.4834 75.0405 49.5153C75.2289 51.0723 75.8475 52.8072 77.0295 53.9351C77.0835 53.9888 77.1374 54.0426 77.1913 54.0964C77.8423 54.7873 77.8423 54.7873 78.7022 55.1341C78.7449 55.1343 78.7877 55.1345 78.8317 55.1347C78.8811 55.1351 78.9305 55.1355 78.9814 55.1359C79.035 55.1359 79.0886 55.136 79.1438 55.136C79.2008 55.1363 79.2578 55.1367 79.3165 55.1371C79.4402 55.1378 79.564 55.1384 79.6877 55.1387C79.8846 55.1392 80.0814 55.1402 80.2783 55.1414C80.5909 55.1432 80.9036 55.1445 81.2163 55.1457C81.7727 55.1479 82.3291 55.1506 82.8855 55.1536C83.0799 55.1546 83.2744 55.1555 83.4688 55.1561C84.052 55.1582 84.6349 55.1631 85.2178 55.1844C85.2621 55.186 85.3065 55.1876 85.3522 55.1892C86.4394 55.2341 87.2972 55.6684 88.095 56.3536C88.1421 56.3933 88.1421 56.3933 88.1901 56.4338C89.9185 57.9858 90.5481 60.5835 90.8192 62.7448C90.8651 63.1067 90.9224 63.4633 91.0028 63.8198C91.111 64.3137 91.1119 64.8174 91.1141 65.3202C91.1145 65.3834 91.115 65.4466 91.1154 65.5098C91.1168 65.7151 91.1177 65.9204 91.1185 66.1257C91.1187 66.1609 91.1188 66.196 91.119 66.2322C91.1203 66.5641 91.1215 66.896 91.1223 67.2279C91.1232 67.6501 91.1251 68.0723 91.1282 68.4946C91.1303 68.7929 91.1313 69.0912 91.1317 69.3895C91.1319 69.567 91.1325 69.7446 91.1343 69.9222C91.1359 70.0892 91.1363 70.2562 91.1357 70.4232C91.1357 70.4841 91.1362 70.545 91.1371 70.6058C91.1457 71.186 90.9425 71.6299 90.5295 72.0524C90.5001 72.0851 90.4707 72.1177 90.4404 72.1514C90.1197 72.4415 89.7646 72.4378 89.3409 72.4324C89.0032 72.4155 88.7865 72.373 88.5356 72.1464C88.5071 72.1154 88.4785 72.0844 88.4491 72.0524C88.4224 72.0271 88.3957 72.0018 88.3682 71.9757C88.0894 71.6948 87.9568 71.3746 87.9564 70.9904C87.9563 70.9392 87.9563 70.8881 87.9562 70.8354C87.9564 70.782 87.9565 70.7285 87.9567 70.6735C87.9565 70.6227 87.9564 70.5718 87.9562 70.5195C87.9565 70.2585 87.9621 69.9993 87.9781 69.7388C88.0182 69.0803 88.0153 68.4212 88.0148 67.7618C88.0148 67.7297 88.0148 67.6977 88.0148 67.6646C88.0146 66.7203 88.0065 65.7808 87.918 64.8394C87.913 64.7837 87.908 64.7279 87.9029 64.6704C87.8686 64.2878 87.8286 63.9059 87.7852 63.5241C87.7779 63.4578 87.7779 63.4578 87.7705 63.3902C87.702 62.7742 87.5748 62.1802 87.4207 61.5789C87.3875 61.4478 87.356 61.3164 87.3251 61.1847C87.3154 61.144 87.3058 61.1033 87.2958 61.0613C87.2777 60.9854 87.2599 60.9094 87.2424 60.8334C87.1978 60.6495 87.1525 60.4962 87.0327 60.3419C87.0035 60.3279 86.9743 60.3139 86.9442 60.2995C86.9442 60.2715 86.9442 60.2435 86.9442 60.2146C86.915 60.2146 86.8858 60.2146 86.8557 60.2146C86.8556 60.2689 86.8555 60.3232 86.8555 60.3792C86.8521 62.7734 86.8486 65.1676 86.8449 67.5619C86.8448 67.6163 86.8448 67.6163 86.8447 67.6718C86.8435 68.4606 86.8423 69.2493 86.841 70.038C86.8404 70.4249 86.8398 70.8117 86.8392 71.1985C86.8391 71.237 86.8391 71.2755 86.839 71.3152C86.8371 72.5613 86.8353 73.8074 86.8335 75.0536C86.8317 76.3349 86.8298 77.6162 86.8277 78.8975C86.8274 79.0787 86.8271 79.26 86.8268 79.4412C86.8267 79.4769 86.8267 79.5126 86.8266 79.5493C86.8257 80.122 86.8249 80.6946 86.8242 81.2673C86.8234 81.8439 86.8225 82.4206 86.8215 82.9972C86.8209 83.3392 86.8204 83.6812 86.82 84.0231C86.8198 84.2795 86.8193 84.5359 86.8187 84.7923C86.8185 84.8953 86.8184 84.9982 86.8184 85.1012C86.8181 85.6048 86.8135 86.108 86.7959 86.6113C86.7948 86.6528 86.7937 86.6944 86.7925 86.7372C86.7703 87.2811 86.5342 87.6958 86.1475 88.0907C86.1097 88.1311 86.1097 88.1311 86.0711 88.1722C85.6807 88.5448 85.0343 88.763 84.4904 88.7802C83.893 88.7633 83.3618 88.5545 82.9163 88.1755C82.8896 88.1549 82.8629 88.1342 82.8354 88.1129C82.3554 87.7087 82.1588 87.0821 82.1056 86.4933C82.062 85.823 82.0679 85.1512 82.0671 84.4799C82.0669 84.2964 82.0663 84.1128 82.0659 83.9292C82.0651 83.612 82.0644 83.2948 82.0638 82.9776C82.063 82.5186 82.0619 82.0596 82.0608 81.6006C82.0589 80.8552 82.0571 80.1098 82.0555 79.3644C82.0554 79.2977 82.0554 79.2977 82.0552 79.2296C82.0545 78.8683 82.0537 78.507 82.0529 78.1457C82.0523 77.8292 82.0516 77.5127 82.0509 77.1962C82.0508 77.1293 82.0508 77.1293 82.0506 77.0611C82.049 76.3177 82.0473 75.5744 82.0454 74.831C82.0442 74.373 82.0432 73.9151 82.0424 73.4571C82.0418 73.1437 82.0411 72.8303 82.0403 72.5169C82.0398 72.3361 82.0394 72.1554 82.0392 71.9746C82.039 71.8091 82.0386 71.6436 82.0381 71.4781C82.0379 71.4183 82.0378 71.3585 82.0378 71.2987C82.0401 70.8673 82.0401 70.8673 81.9868 70.4401C81.8904 70.3609 81.8236 70.3572 81.6991 70.3393C81.5483 70.361 81.5055 70.4114 81.4114 70.525C81.385 70.6479 81.385 70.6479 81.3892 70.7867C81.3887 70.8407 81.3883 70.8948 81.3878 70.9505C81.3882 71.0106 81.3886 71.0707 81.389 71.1308C81.3889 71.1946 81.3886 71.2584 81.3882 71.3221C81.3875 71.4977 81.3879 71.6732 81.3884 71.8487C81.3888 72.0379 81.3882 72.2271 81.3877 72.4164C81.387 72.7445 81.3869 73.0726 81.3872 73.4008C81.3877 73.8761 81.3871 74.3515 81.3862 74.8268C81.3848 75.5992 81.3842 76.3716 81.384 77.144C81.384 77.1903 81.384 77.2365 81.384 77.2842C81.384 77.3305 81.384 77.3768 81.384 77.4245C81.3838 78.0793 81.3835 78.7341 81.383 79.3889C81.383 79.4349 81.383 79.4809 81.3829 79.5283C81.3823 80.297 81.3813 81.0656 81.3802 81.8343C81.3795 82.308 81.3792 82.7816 81.3793 83.2552C81.3794 83.5805 81.3792 83.9057 81.3788 84.231C81.3786 84.4183 81.3785 84.6055 81.3788 84.7928C81.3825 87.341 81.3825 87.341 80.6593 88.0981C80.2339 88.4948 79.5562 88.762 78.9632 88.7934C78.2599 88.7648 77.6607 88.433 77.1839 87.9584C77.0314 87.7891 76.9107 87.6125 76.8081 87.4118C76.7843 87.3664 76.7843 87.3664 76.7599 87.32C76.6483 86.9865 76.669 86.6168 76.67 86.2702C76.6699 86.2208 76.6699 86.1713 76.6698 86.1203C76.6697 85.9836 76.6699 85.8469 76.67 85.7101C76.6702 85.5612 76.6701 85.4122 76.67 85.2632C76.67 85.0023 76.67 84.7414 76.6702 84.4805C76.6705 84.0926 76.6705 83.7046 76.6705 83.3166C76.6704 82.823 76.6704 82.3294 76.6705 81.8358C76.6705 81.7966 76.6705 81.7575 76.6705 81.7171C76.6705 81.6778 76.6705 81.6385 76.6705 81.598C76.6708 80.5857 76.6705 79.5734 76.6699 78.5611C76.6698 78.3957 76.6697 78.2303 76.6696 78.0648C76.6694 77.772 76.6693 77.4791 76.6691 77.1862C76.6686 76.239 76.6681 75.2917 76.6677 74.3445C76.6677 74.2796 76.6677 74.2796 76.6676 74.2134C76.667 72.8089 76.6672 71.4045 76.6677 70C76.6681 68.556 76.6678 67.112 76.6663 65.6679C76.6661 65.4641 76.6659 65.2603 76.6657 65.0564C76.6657 65.0163 76.6657 64.9762 76.6656 64.9349C76.6651 64.2888 76.6654 63.6428 76.6662 62.9967C76.6669 62.3478 76.6666 61.6989 76.6654 61.0499C76.6647 60.6643 76.6648 60.2786 76.6659 59.8929C76.6665 59.6354 76.6662 59.3779 76.6652 59.1204C76.6646 58.9736 76.6644 58.8268 76.6654 58.68C76.6663 58.5219 76.6655 58.3639 76.6643 58.2058C76.665 58.1602 76.6656 58.1146 76.6663 58.0676C76.6622 57.8025 76.6175 57.645 76.4395 57.4396C76.3617 57.3684 76.2825 57.3148 76.1912 57.2605C75.8568 57.0611 75.5847 56.7848 75.3032 56.5233C75.258 56.4817 75.258 56.4817 75.2119 56.4392C74.8489 56.1043 74.5127 55.7647 74.2114 55.3772C74.1131 55.2497 74.1131 55.2497 73.998 55.1515C73.8774 55.0287 73.805 54.9086 73.7232 54.7605C73.6645 54.6546 73.6022 54.5514 73.5386 54.4481C73.2673 54.0036 73.0292 53.5626 72.8245 53.0865C72.7955 53.0248 72.7663 52.9632 72.7371 52.9016C72.4351 52.2527 72.2611 51.5585 72.0991 50.8678C72.0763 50.7709 72.0529 50.6742 72.0292 50.5776C71.8885 49.9856 71.8364 49.3989 71.8343 48.7932C71.8339 48.7289 71.8335 48.6647 71.8331 48.6004C71.8324 48.4663 71.8321 48.3323 71.8319 48.1982C71.8317 48.0639 71.8308 47.9297 71.8292 47.7955C71.8182 46.863 71.891 45.984 72.0721 45.0674C72.0858 44.9942 72.0995 44.921 72.113 44.8477C72.1435 44.6854 72.1765 44.5237 72.2104 44.362C72.2262 44.2846 72.2262 44.2846 72.2424 44.2055C72.2735 44.0543 72.3056 43.9032 72.3377 43.7521C72.3482 43.7001 72.3587 43.6481 72.3695 43.5946C72.4281 43.314 72.492 43.0569 72.6309 42.8027C72.6461 42.7743 72.6614 42.7458 72.677 42.7165C72.8142 42.4737 72.9818 42.2936 73.2229 42.1398C73.2677 42.1095 73.3125 42.0792 73.3586 42.048C73.5736 41.933 73.7956 41.942 74.0362 41.9435Z" fill="#D1D1D1" fill-opacity="0.7"/>
<path d="M81.763 46.0777C81.8003 46.0772 81.8376 46.0767 81.876 46.0762C82.1312 46.0756 82.3602 46.1085 82.6067 46.1706C82.648 46.18 82.6894 46.1895 82.7319 46.1992C83.4528 46.3809 84.0174 46.6503 84.5543 47.1464C84.5775 47.1674 84.6008 47.1884 84.6248 47.21C84.9485 47.5024 85.2259 47.7864 85.4395 48.1647C85.4756 48.2277 85.4756 48.2277 85.5123 48.292C85.6558 48.5544 85.7616 48.8115 85.8379 49.0982C85.8464 49.1268 85.855 49.1555 85.8638 49.185C86.1408 50.147 85.9745 51.2403 85.4838 52.1107C85.0893 52.7739 84.5029 53.3588 83.8018 53.723C83.7668 53.7412 83.7317 53.7595 83.6957 53.7783C83.0766 54.0875 82.5414 54.2008 81.852 54.2069C81.7752 54.2078 81.6985 54.2092 81.6217 54.2112C80.7203 54.2345 79.82 53.9898 79.1349 53.4021C79.0675 53.3395 79.0001 53.2767 78.933 53.2138C78.8742 53.1667 78.8152 53.1198 78.7559 53.0733C77.8931 52.3429 77.5588 51.3219 77.4611 50.2476C77.436 49.2625 77.8383 48.166 78.5346 47.4434C79.4125 46.582 80.4958 46.0787 81.763 46.0777Z" fill="#D1D1D1" fill-opacity="0.7"/>
<path d="M104.593 80.0801C104.793 80.0782 104.992 80.0763 105.198 80.0744C105.417 80.074 105.636 80.0737 105.862 80.0733C106.092 80.0717 106.323 80.07 106.561 80.0684C107.194 80.064 107.827 80.0619 108.46 80.0605C108.856 80.0595 109.252 80.0582 109.648 80.0567C110.887 80.0522 112.127 80.049 113.366 80.0478C114.796 80.0463 116.225 80.0405 117.654 80.031C118.759 80.0239 119.865 80.0206 120.971 80.0202C121.631 80.0198 122.29 80.0179 122.95 80.012C123.687 80.0056 124.424 80.007 125.161 80.0092C125.378 80.0061 125.596 80.0031 125.819 80C126.981 80.0105 127.759 80.1 128.64 80.8369C129.607 81.7871 129.73 82.4626 129.718 83.7241C129.719 83.8854 129.72 84.0468 129.722 84.213C129.725 84.745 129.723 85.2768 129.72 85.8088C129.721 86.1796 129.722 86.5505 129.722 86.9213C129.724 87.6982 129.722 88.4751 129.719 89.252C129.715 90.2459 129.717 91.2398 129.721 92.2337C129.724 92.9995 129.723 93.7653 129.721 94.5312C129.721 94.8975 129.721 95.2639 129.723 95.6303C129.725 96.1434 129.722 96.6563 129.718 97.1694C129.719 97.3197 129.721 97.47 129.722 97.6249C129.709 98.5988 129.514 99.34 128.919 100.153C128.156 100.827 127.573 100.991 126.539 101.018C126.338 101.023 126.137 101.029 125.931 101.034C125.71 101.04 125.49 101.045 125.263 101.05C124.914 101.059 124.914 101.059 124.559 101.068C122.414 101.12 120.268 101.15 118.123 101.175C116.681 101.191 115.241 101.215 113.8 101.255C112.542 101.291 111.284 101.313 110.024 101.32C109.359 101.325 108.695 101.335 108.03 101.361C104.008 101.511 104.008 101.511 102.8 100.621C101.97 99.7688 101.389 98.8212 100.856 97.7904C100.546 97.2125 100.171 96.711 99.7659 96.1871C99.4028 95.691 99.0401 95.1947 98.678 94.698C98.1531 93.979 97.6281 93.2616 97.0768 92.5597C97.0006 92.4617 96.9243 92.3638 96.8457 92.2628C96.6564 92.0216 96.4641 91.7823 96.2714 91.5433C95.97 91.0227 95.9737 90.7261 96.029 90.1397C96.2516 89.7241 96.2516 89.7241 96.5685 89.3074C96.687 89.1488 96.8054 88.9903 96.9275 88.827C97.0577 88.6575 97.1879 88.488 97.3221 88.3134C97.5258 88.0421 97.7296 87.7707 97.9331 87.4991C98.1494 87.211 98.3667 86.9235 98.584 86.6361C99.2798 85.7132 99.9579 84.7791 100.638 83.846C100.855 83.5479 101.072 83.2501 101.29 82.9523C101.359 82.8586 101.427 82.7648 101.498 82.6682C101.564 82.5787 101.629 82.4891 101.697 82.3968C102.057 81.9035 102.414 81.4108 102.759 80.9077C103.301 80.1924 103.691 80.0852 104.593 80.0801Z" fill="#68D585"/>
<path d="M132.52 89.2436C133.659 88.8368 134.87 89.0067 136.001 89.3771C136.946 89.866 137.392 90.6102 137.937 91.4529C138.196 91.8057 138.456 92.1572 138.717 92.5077C139.065 92.9835 139.411 93.4607 139.757 93.9379C139.979 94.2433 140.2 94.5487 140.422 94.854C140.495 94.9547 140.568 95.0554 140.644 95.1591C141.123 95.8168 141.613 96.4656 142.112 97.1112C142.236 97.2738 142.36 97.4365 142.488 97.6041C142.72 97.9075 142.955 98.2093 143.193 98.5089C143.649 99.1096 143.935 99.4978 144 100.239C143.682 101.037 143.2 101.658 142.657 102.338C142.429 102.632 142.201 102.925 141.974 103.218C141.86 103.365 141.745 103.512 141.628 103.663C141.144 104.292 140.683 104.935 140.225 105.581C139.463 106.649 138.693 107.713 137.915 108.771C137.817 108.906 137.718 109.041 137.617 109.179C137.525 109.304 137.434 109.428 137.339 109.556C137.258 109.666 137.177 109.776 137.094 109.89C136.876 110.167 136.876 110.167 136.523 110.495C136.107 110.537 136.107 110.537 135.576 110.539C135.274 110.541 135.274 110.541 134.966 110.543C134.745 110.543 134.523 110.543 134.295 110.543C134.062 110.544 133.829 110.545 133.59 110.546C132.95 110.549 132.311 110.55 131.672 110.55C131.138 110.55 130.604 110.551 130.07 110.553C128.81 110.555 127.55 110.556 126.289 110.556C124.99 110.556 123.691 110.559 122.393 110.564C121.277 110.569 120.162 110.57 119.046 110.57C118.38 110.57 117.714 110.571 117.048 110.574C116.421 110.578 115.794 110.578 115.166 110.575C114.828 110.575 114.489 110.577 114.15 110.58C112.965 110.572 112.174 110.54 111.236 109.838C109.759 108.431 109.758 106.201 109.721 104.345C109.752 103.491 109.82 102.679 110.352 101.959C112.37 100.627 116.062 101.291 118.364 101.44C119.402 101.501 120.441 101.526 121.48 101.553C122.65 101.585 123.82 101.621 124.989 101.684C125.258 101.698 125.258 101.698 125.532 101.712C125.864 101.73 126.196 101.75 126.527 101.771C127.577 101.827 128.624 101.795 129.626 101.466C129.626 101.358 129.626 101.25 129.626 101.138C129.75 101.081 129.874 101.023 130.002 100.964C131.093 100.281 131.592 99.286 131.86 98.1217C131.978 97.3407 131.899 96.5711 131.843 95.787C131.566 90.165 131.566 90.165 132.52 89.2436Z" fill="#FEC1C0"/>
</svg>
