<svg width="376" height="378" viewBox="0 0 376 378" fill="none" xmlns="http://www.w3.org/2000/svg">
<g clip-path="url(#clip0_1024_1112)">
<path d="M342.554 302.838L312.032 253.518C312.032 253.518 358.255 271.072 353.009 302.838H342.554Z" fill="#E5E5E5"/>
<path d="M26.1651 303.165L25.0063 303.14C25.4545 289.125 26.8291 275.163 29.1195 261.363C34.13 231.816 42.4616 212.411 53.8829 203.687L54.5483 204.719C27.868 225.097 26.1786 302.386 26.1651 303.165Z" fill="#E5E5E5"/>
<path d="M40.6489 302.863L39.4902 302.839C39.5151 301.443 40.2393 268.544 52.1449 259.451L52.8103 260.483C41.385 269.209 40.6546 302.528 40.6489 302.863Z" fill="#E5E5E5"/>
<path d="M61.1402 204.833C64.3399 204.833 66.9338 202.012 66.9338 198.531C66.9338 195.05 64.3399 192.228 61.1402 192.228C57.9405 192.228 55.3467 195.05 55.3467 198.531C55.3467 202.012 57.9405 204.833 61.1402 204.833Z" fill="#3E7BFA"/>
<path d="M58.2711 259.035C61.4707 259.035 64.0646 256.213 64.0646 252.733C64.0646 249.252 61.4707 246.43 58.2711 246.43C55.0714 246.43 52.4775 249.252 52.4775 252.733C52.4775 256.213 55.0714 259.035 58.2711 259.035Z" fill="#3E7BFA"/>
<path d="M37.9485 208.611C39.0373 216.177 36.1995 222.944 36.1995 222.944C36.1995 222.944 31.5964 217.444 30.5076 209.879C29.4188 202.313 32.2566 195.546 32.2566 195.546C32.2566 195.546 36.8597 201.046 37.9485 208.611Z" fill="#E5E5E5"/>
<path d="M56.8855 226.986C50.227 229.47 43.6074 227.609 43.6074 227.609C43.6074 227.609 47.7833 221.72 54.4418 219.236C61.1003 216.751 67.7199 218.612 67.7199 218.612C67.7199 218.612 63.5439 224.501 56.8855 226.986Z" fill="#E5E5E5"/>
<path d="M57.0998 274.986C54.0862 276.016 50.8769 276.167 47.793 275.424C49.7511 272.712 52.3884 270.673 55.387 269.554C58.3857 268.435 61.6177 268.284 64.6939 269.117C62.6786 271.763 60.0599 273.787 57.0998 274.986V274.986Z" fill="#E5E5E5"/>
<path d="M375.421 304.098H0.579353C0.425699 304.098 0.278347 304.032 0.169697 303.914C0.0610472 303.796 0 303.635 0 303.468C0 303.301 0.0610472 303.141 0.169697 303.022C0.278347 302.904 0.425699 302.838 0.579353 302.838H375.421C375.574 302.838 375.722 302.904 375.83 303.022C375.939 303.141 376 303.301 376 303.468C376 303.635 375.939 303.796 375.83 303.914C375.722 304.032 375.574 304.098 375.421 304.098Z" fill="#CBCBCB"/>
<path d="M237.414 333.153L232.675 346.573L182.836 333.071L189.832 313.264L237.414 333.153Z" fill="#FFB7B7"/>
<path d="M250.581 334.728L235.298 378L234.795 377.79C230.689 376.073 227.378 372.653 225.59 368.281C223.802 363.909 223.683 358.943 225.261 354.476L225.261 354.475L234.595 328.046L250.581 334.728Z" fill="#2F2E41"/>
<path d="M161.683 165.121L139.964 167.333L138.886 237.633C139.174 241.079 140.691 244.264 143.111 246.508C145.532 248.752 148.664 249.875 151.837 249.637L165.607 248.605L161.683 165.121Z" fill="#E5E5E5"/>
<path d="M238.251 161.661L223.391 161.453L222.51 244.984C225.794 245.103 229.065 244.485 232.12 243.168C235.175 241.851 237.947 239.863 240.264 237.329C242.581 234.795 244.393 231.769 245.588 228.439C246.782 225.109 247.333 221.547 247.206 217.975L238.251 161.661Z" fill="#E5E5E5"/>
<path d="M152.023 274.659C151.671 277.082 151.16 279.474 150.494 281.818C149.744 284.112 148.586 286.233 147.901 288.551C145.715 295.938 148.745 304.175 153.584 309.877C157.781 314.802 163.197 318.301 169.181 319.952C173.547 321.146 178.086 321.318 182.585 321.484C195.042 321.944 207.82 322.355 219.625 318C223.354 316.59 226.956 314.81 230.386 312.681C231.469 312.12 232.423 311.303 233.178 310.29C234.079 308.895 234.194 307.087 234.186 305.383C234.159 299.638 233.089 293.922 233.343 288.183C233.484 285.005 234.031 281.829 233.761 278.66C233.389 275.061 232.003 271.676 229.794 268.967C227.584 266.257 224.659 264.357 221.419 263.526C218.07 262.744 214.597 263.17 211.188 263.527C202.338 264.452 193.451 264.884 184.561 264.822C175.478 264.759 166.45 263.251 157.412 263.093C154.739 263.047 154.793 263.943 153.942 266.757C153.159 269.347 152.518 271.986 152.023 274.659V274.659Z" fill="#2F2E41"/>
<path d="M116.503 269.99C114.061 269.322 111.544 269.031 109.027 269.125C106.382 269.284 103.799 270.054 101.449 271.383C99.0991 272.712 97.0361 274.57 95.3973 276.834C93.7586 279.098 92.5816 281.715 91.9446 284.512C91.3076 287.308 91.2253 290.221 91.703 293.055C92.313 296.125 93.3099 299.088 94.6656 301.861C96.6483 306.239 99.0264 310.606 102.697 313.411C104.844 315.052 107.329 316.075 109.785 317.081L129.117 325.004C131.961 326.169 134.806 327.335 137.678 328.416C152.107 333.842 167.151 337.095 182.39 338.086C187.032 338.387 191.745 338.47 196.273 337.321C197.348 337.048 198.494 336.641 199.117 335.65C199.485 334.951 199.702 334.171 199.752 333.367L200.941 324.307C201.109 323.032 201.27 321.689 200.84 320.488C200.295 318.966 198.929 318.008 197.627 317.194C184.917 309.253 170.077 304.872 159.38 293.973C156.861 291.407 154.754 287.34 151.694 285.597C148.224 283.621 144.137 282.493 140.551 280.671C132.71 276.69 125.001 272.115 116.503 269.99Z" fill="#2F2E41"/>
<path opacity="0.1" d="M135.804 282.203C142.637 284.533 171.486 300.67 176.431 306.304C175.768 306.564 153.28 292.854 152.605 292.633C146.471 290.631 140.303 288.615 134.478 285.684C133.306 285.094 126.865 282.323 127.157 280.715C127.486 278.9 134.591 281.79 135.804 282.203Z" fill="black"/>
<path d="M177.043 141.493L158.645 156.689C158.645 156.689 139.231 157.35 139.887 170.85C140.543 184.35 148.313 248.269 148.313 248.269L149.999 270.262L181.975 280.174C199.252 285.529 217.506 285.954 234.978 281.409V281.409L231.178 259.345C231.178 259.345 246.565 159.14 237.295 154.728C228.026 150.317 222.232 151.577 222.232 151.577L210.613 140.547L177.043 141.493Z" fill="#E5E5E5"/>
<path d="M231.501 116.947C231.501 136.674 214.733 133.691 194.049 133.691C173.364 133.691 156.596 136.674 156.596 116.947C156.596 97.2192 164.787 62.2505 194.049 62.2505C224.319 62.2505 231.501 97.2192 231.501 116.947Z" fill="#2F2E41"/>
<path d="M213.518 123.632C223.36 112.926 223.36 95.5666 213.518 84.8599C203.676 74.1532 187.719 74.1532 177.877 84.8599C168.035 95.5666 168.035 112.926 177.877 123.632C187.719 134.339 203.676 134.339 213.518 123.632Z" fill="#FFB7B7"/>
<path d="M164.805 103.552H174.773L179.171 90.1568L180.05 103.552H184.814L187.379 95.738L187.892 103.552H223.293C223.293 95.8545 220.482 88.4726 215.479 83.0298C210.476 77.587 203.69 74.5293 196.614 74.5293H191.484C184.408 74.5293 177.622 77.587 172.619 83.0298C167.616 88.4726 164.805 95.8545 164.805 103.552V103.552Z" fill="#2F2E41"/>
<path d="M219.335 144.644H168.932V210.821H219.335V144.644Z" fill="#3E7BFA"/>
<path d="M171.709 332.523L176.449 345.943L226.288 332.441L219.292 312.634L171.709 332.523Z" fill="#FFB7B7"/>
<path d="M174.528 327.416L183.863 353.845L183.863 353.846C185.44 358.313 185.322 363.279 183.534 367.651C181.746 372.023 178.435 375.443 174.329 377.16L173.825 377.37L158.542 334.098L174.528 327.416Z" fill="#2F2E41"/>
<path d="M271.331 264.853C275.335 263.761 279.485 263.452 283.588 263.942C286.865 264.334 290.241 265.326 292.634 267.794C295.546 270.797 296.481 275.441 296.559 279.805C296.687 288.498 294.037 296.969 289.061 303.772C287.846 305.493 286.402 307.006 284.775 308.261C283.02 309.456 281.15 310.436 279.197 311.185L235.904 329.762C224.514 334.649 213.084 339.55 201.204 342.772C200.558 343.111 199.815 343.157 199.138 342.9C198.461 342.643 197.905 342.104 197.593 341.402C197.584 341.38 197.574 341.358 197.565 341.337C193.772 335.442 190.59 329.11 188.077 322.454C187.958 322.296 187.875 322.109 187.837 321.909C187.798 321.709 187.805 321.502 187.855 321.305C187.906 321.108 188 320.927 188.128 320.778C188.257 320.629 188.416 320.516 188.593 320.448L219.215 301.308C221.409 299.937 223.627 298.546 225.448 296.636C226.772 295.241 227.855 293.6 228.648 291.79C229.283 290.348 229.342 286.944 230.153 285.878C230.947 284.834 233.662 284.751 234.916 284.34C236.685 283.751 238.417 283.039 240.102 282.208C246.952 278.874 253.052 274.03 259.618 270.127C263.301 267.836 267.237 266.064 271.331 264.853V264.853Z" fill="#2F2E41"/>
<path opacity="0.1" d="M253.971 279.147C248.71 283.445 241.898 287.396 236.684 291.808C234.904 293.314 205.239 311.457 204.819 313.867C209.684 314.759 240.671 291.176 245.105 288.823C249.538 286.47 253.469 283.151 257.363 279.857C258.356 279.018 262.562 276.494 259.713 275.556C258.108 275.028 255.156 278.287 253.971 279.147Z" fill="black"/>
<path d="M348.531 113.266C358.529 113.266 366.634 104.449 366.634 93.572C366.634 82.6953 358.529 73.8779 348.531 73.8779C338.532 73.8779 330.427 82.6953 330.427 93.572C330.427 104.449 338.532 113.266 348.531 113.266Z" fill="#F1F1F1"/>
<path d="M315.026 116.793C322.039 116.793 327.725 110.608 327.725 102.978C327.725 95.3482 322.039 89.1629 315.026 89.1629C308.012 89.1629 302.326 95.3482 302.326 102.978C302.326 110.608 308.012 116.793 315.026 116.793Z" fill="#F1F1F1"/>
<path d="M82.3917 107.781C88.0155 107.781 92.5744 102.822 92.5744 96.704C92.5744 90.5862 88.0155 85.6267 82.3917 85.6267C76.7679 85.6267 72.209 90.5862 72.209 96.704C72.209 102.822 76.7679 107.781 82.3917 107.781Z" fill="#F1F1F1"/>
<path d="M99.1563 115.23C103.101 115.23 106.299 111.751 106.299 107.46C106.299 103.168 103.101 99.6889 99.1563 99.6889C95.2113 99.6889 92.0132 103.168 92.0132 107.46C92.0132 111.751 95.2113 115.23 99.1563 115.23Z" fill="#F1F1F1"/>
<path d="M197.938 16.9352C202.237 16.9352 205.722 13.1442 205.722 8.46761C205.722 3.79108 202.237 -7.62939e-06 197.938 -7.62939e-06C193.639 -7.62939e-06 190.154 3.79108 190.154 8.46761C190.154 13.1442 193.639 16.9352 197.938 16.9352Z" fill="#F1F1F1"/>
<path opacity="0.17" d="M151.551 186.871L152.247 181.029C152.247 181.029 178.201 183.09 174.146 190.023C170.09 196.955 160.241 197.586 160.241 197.586L151.551 186.871Z" fill="#2F2E41"/>
<path d="M171.142 161.467C172.629 161.645 174.061 162.179 175.336 163.031C176.61 163.882 177.696 165.03 178.515 166.392V166.392C179.26 167.634 179.768 169.028 180.006 170.49C180.244 171.951 180.209 173.449 179.901 174.895C179.594 176.341 179.021 177.705 178.217 178.904C177.412 180.103 176.394 181.112 175.222 181.873C174.792 182.149 174.344 182.388 173.881 182.59L157.927 235.675C157.465 236.722 156.817 237.66 156.021 238.434C155.224 239.208 154.295 239.803 153.286 240.185C152.277 240.567 151.209 240.729 150.143 240.66C149.077 240.592 148.034 240.295 147.073 239.786C146.113 239.278 145.255 238.567 144.547 237.697C143.84 236.826 143.298 235.812 142.952 234.712C142.607 233.613 142.464 232.45 142.533 231.291C142.602 230.131 142.881 228.998 143.353 227.956L160.319 175.461C159.857 173.724 159.795 171.89 160.14 170.121C160.485 168.352 161.225 166.703 162.295 165.319C163.365 163.936 164.732 162.86 166.276 162.189C167.819 161.517 169.49 161.269 171.142 161.467Z" fill="#FFB7B7"/>
<path d="M151.789 181.527C151.789 181.527 160.93 198.516 174.146 190.023L161.338 243.341H150.548L139.385 241.073L142.51 219.044L151.789 181.527Z" fill="#E5E5E5"/>
<path d="M217.059 193.139L209.486 181.829C209.486 181.829 213.126 170.098 227.238 174.388C227.238 174.388 236.219 196.256 217.059 193.139Z" fill="#E5E5E5"/>
<path opacity="0.17" d="M217.059 193.139L209.486 181.829C209.486 181.829 213.126 170.098 227.238 174.388C227.238 174.388 236.219 196.256 217.059 193.139Z" fill="#2F2E41"/>
<path d="M219.064 153.625C221.249 154.729 222.996 156.651 223.989 159.039C224.981 161.427 225.153 164.123 224.472 166.637L241.438 219.133C241.911 220.175 242.189 221.308 242.258 222.467C242.327 223.627 242.185 224.79 241.839 225.889C241.493 226.989 240.951 228.003 240.244 228.874C239.537 229.744 238.678 230.455 237.718 230.963C236.758 231.472 235.714 231.769 234.648 231.837C233.582 231.906 232.513 231.744 231.505 231.362C230.496 230.98 229.567 230.385 228.77 229.611C227.974 228.836 227.326 227.899 226.864 226.851L210.91 173.766C210.447 173.565 209.998 173.325 209.569 173.049C208.397 172.289 207.379 171.279 206.574 170.08C205.77 168.881 205.197 167.518 204.89 166.072C204.582 164.626 204.547 163.127 204.785 161.666C205.023 160.205 205.531 158.811 206.276 157.568V157.568C207.095 156.206 208.181 155.059 209.455 154.207C210.73 153.356 212.162 152.822 213.649 152.644C215.502 152.415 217.378 152.755 219.064 153.625Z" fill="#FFB7B7"/>
<path d="M209.486 181.829C209.486 181.829 221.98 190.076 227.238 174.388L244.844 224.817L239.613 234.77L238.856 234.839C235.735 235.122 232.598 234.577 229.713 233.25C226.829 231.923 224.283 229.855 222.296 227.222V227.222C218.242 221.852 215.482 215.467 214.266 208.645L209.486 181.829Z" fill="#E5E5E5"/>
</g>
<defs>
<clipPath id="clip0_1024_1112">
<rect width="376" height="378" fill="white"/>
</clipPath>
</defs>
</svg>
