<svg width="351" height="385" viewBox="0 0 351 385" fill="none" xmlns="http://www.w3.org/2000/svg">
<g clip-path="url(#clip0_993_1112)">
<path d="M70.6729 312.975C75.5658 312.975 79.5322 309.009 79.5322 304.116C79.5322 299.223 75.5658 295.256 70.6729 295.256C65.78 295.256 61.8135 299.223 61.8135 304.116C61.8135 309.009 65.78 312.975 70.6729 312.975Z" fill="#F0F0F0"/>
<path d="M54.2763 314.562C57.7086 314.562 60.4911 311.779 60.4911 308.347C60.4911 304.915 57.7086 302.132 54.2763 302.132C50.844 302.132 48.0615 304.915 48.0615 308.347C48.0615 311.779 50.844 314.562 54.2763 314.562Z" fill="#F0F0F0"/>
<path d="M67.0473 36.8147C70.9826 36.8147 74.1727 33.6246 74.1727 29.6893C74.1727 25.754 70.9826 22.5639 67.0473 22.5639C63.112 22.5639 59.9219 25.754 59.9219 29.6893C59.9219 33.6246 63.112 36.8147 67.0473 36.8147Z" fill="#CCCCCC"/>
<path d="M323.563 119.945C327.498 119.945 330.688 116.755 330.688 112.819C330.688 108.884 327.498 105.694 323.563 105.694C319.628 105.694 316.438 108.884 316.438 112.819C316.438 116.755 319.628 119.945 323.563 119.945Z" fill="#CCCCCC"/>
<path d="M78.3293 164.479H66.4536V176.354H78.3293V164.479Z" fill="#CCCCCC"/>
<path d="M5.29353 77.1922H4.10596V0H80.1106V1.18757H5.29353V77.1922Z" fill="#CCCCCC"/>
<path d="M350.82 77.1922H349.632V1.18757H274.815V0H350.82V77.1922Z" fill="#CCCCCC"/>
<path d="M5.29353 142.509H4.10596V219.701H80.1106V218.513H5.29353V142.509Z" fill="#CCCCCC"/>
<path d="M350.82 142.509H349.632V218.513H274.815V219.701H350.82V142.509Z" fill="#CCCCCC"/>
<path d="M108.612 36.221H25.4824V37.4085H108.612V36.221Z" fill="#CCCCCC"/>
<path d="M49.2335 25.5328H48.0459V36.5179H49.2335V25.5328Z" fill="#CCCCCC"/>
<path d="M85.4547 25.5328H84.2671V36.5179H85.4547V25.5328Z" fill="#CCCCCC"/>
<path d="M333.064 119.945H249.934V121.132H333.064V119.945Z" fill="#CCCCCC"/>
<path d="M273.685 109.257H272.497V120.242H273.685V109.257Z" fill="#CCCCCC"/>
<path d="M309.906 109.257H308.718V120.242H309.906V109.257Z" fill="#CCCCCC"/>
<path d="M113.956 175.761H30.8262V176.948H113.956V175.761Z" fill="#CCCCCC"/>
<path d="M54.5777 165.073H53.3901V176.058H54.5777V165.073Z" fill="#CCCCCC"/>
<path d="M90.7989 165.073H89.6113V176.058H90.7989V165.073Z" fill="#CCCCCC"/>
<path d="M176.24 248.461C194.604 248.461 209.492 245.005 209.492 240.742C209.492 236.479 194.604 233.023 176.24 233.023C157.875 233.023 142.988 236.479 142.988 240.742C142.988 245.005 157.875 248.461 176.24 248.461Z" fill="#3F3D56"/>
<path d="M202.917 317.641L170.852 320.012L170.94 321.196L203.004 318.825L202.917 317.641Z" fill="#CACACA"/>
<path d="M149.806 313.555L149.233 314.595L161.109 321.127L161.681 320.086L149.806 313.555Z" fill="#CACACA"/>
<path d="M183.365 309.325H172.677V310.512H183.365V309.325Z" fill="#CACACA"/>
<path d="M144.768 383.588L143.583 383.507L152.49 247.53L153.675 247.611L144.768 383.588Z" fill="#CACACA"/>
<path d="M188.71 383.577L182.772 258.288L183.958 258.23L189.896 383.519L188.71 383.577Z" fill="#CACACA"/>
<path d="M200.583 246.928L199.399 247.026L210.681 383.597L211.865 383.499L200.583 246.928Z" fill="#CACACA"/>
<path d="M163.177 383.562L161.989 383.534L165.552 258.245L166.74 258.273L163.177 383.562Z" fill="#CACACA"/>
<path d="M157.494 305.023L149.607 309.693L127.836 281.496L139.477 274.602L157.494 305.023Z" fill="#FFB6B6"/>
<path d="M164.033 311.476L138.603 326.538L138.412 326.216C136.858 323.591 136.409 320.456 137.166 317.5C137.923 314.544 139.823 312.01 142.448 310.455L142.448 310.455L157.98 301.256L164.033 311.476Z" fill="#2F2E41"/>
<path d="M195.58 305.023L203.467 309.693L225.237 281.496L213.597 274.602L195.58 305.023Z" fill="#FFB6B6"/>
<path d="M195.093 301.256L210.625 310.455L210.626 310.455C213.251 312.01 215.151 314.544 215.908 317.5C216.664 320.456 216.216 323.591 214.661 326.216L214.471 326.538L189.041 311.476L195.093 301.256Z" fill="#2F2E41"/>
<path d="M201 197.434C201 197.434 175.268 215.558 150.221 199.203L149.829 210.604C149.829 210.604 96.1783 233.358 104.986 251.134C113.793 268.909 132.3 287.354 132.3 287.354L142.394 279.041L131.112 250.54L161.8 237.539L188.553 237.674L225.859 252.773L208.045 279.493L223.743 284.386C223.743 284.386 261.151 249.946 253.135 240.148C246.71 232.295 208.248 214.688 208.248 214.688L201 197.434Z" fill="#2F2E41"/>
<path d="M209.955 130.946L187.683 123.563L182.178 115.75H166.145L161.395 123.687L140.743 130.946C139.617 131.268 138.65 131.994 138.027 132.986C137.404 133.977 137.169 135.164 137.367 136.318L146.55 211.944L161.395 210.756C161.395 210.756 181.395 226.362 193.459 208.381L194.104 199.313L206.523 211.35L213.331 136.318C213.529 135.164 213.294 133.977 212.671 132.986C212.048 131.994 211.081 131.268 209.955 130.946Z" fill="#3E7BFA"/>
<path d="M192.856 79.6621C186.271 68.5355 173.243 68.017 173.243 68.017C173.243 68.017 160.548 66.3935 152.404 83.3395C144.813 99.1345 134.337 109.041 150.718 112.738L153.676 103.53L155.509 113.424C157.841 113.592 160.18 113.632 162.517 113.544C180.059 112.977 196.764 113.709 196.227 107.415C195.512 99.0468 199.192 90.3681 192.856 79.6621Z" fill="#2F2E41"/>
<path d="M174.755 112.733C184.266 112.733 191.975 105.024 191.975 95.5134C191.975 86.0032 184.266 78.2936 174.755 78.2936C165.245 78.2936 157.536 86.0032 157.536 95.5134C157.536 105.024 165.245 112.733 174.755 112.733Z" fill="#FFB8B8"/>
<path d="M190.538 77.9956L177.667 71.2537L159.893 74.0119L156.216 90.2537L165.37 89.9016L167.927 83.9346V89.8036L172.151 89.6409L174.602 80.1409L176.135 90.2537L191.151 89.9473L190.538 77.9956Z" fill="#2F2E41"/>
<path opacity="0.2" d="M147.846 147.259L161.206 199.507C161.206 199.507 154.972 153.791 147.846 147.259Z" fill="black"/>
<path opacity="0.2" d="M187.711 200.101L201.071 147.853C193.946 154.384 187.711 200.101 187.711 200.101Z" fill="black"/>
<path d="M190.822 245.745C191.542 245.365 192.17 244.832 192.661 244.183C193.153 243.534 193.496 242.785 193.666 241.989C193.837 241.193 193.831 240.37 193.649 239.576C193.467 238.783 193.113 238.039 192.613 237.397L204.742 204.224L195.458 199.498L184.449 236.635C183.427 237.547 182.774 238.803 182.616 240.164C182.457 241.525 182.804 242.897 183.589 244.02C184.375 245.143 185.545 245.939 186.878 246.257C188.211 246.575 189.614 246.393 190.822 245.745V245.745Z" fill="#FFB6B6"/>
<path d="M202.542 143.995L189.009 202.84C188.879 203.448 188.992 204.083 189.325 204.609C189.657 205.134 190.183 205.508 190.788 205.651L203.82 207.528C204.141 207.604 204.474 207.612 204.798 207.551C205.121 207.491 205.429 207.364 205.701 207.179C205.974 206.993 206.204 206.753 206.379 206.474C206.553 206.194 206.668 205.882 206.715 205.555L210.68 144.252L202.542 143.995Z" fill="#3E7BFA"/>
<path d="M159.877 246.932C159.157 246.552 158.529 246.019 158.038 245.37C157.546 244.721 157.203 243.972 157.032 243.177C156.862 242.381 156.868 241.557 157.05 240.764C157.232 239.97 157.585 239.226 158.086 238.585L145.957 205.412L155.241 200.686L166.25 237.822C167.272 238.735 167.925 239.99 168.083 241.352C168.242 242.713 167.895 244.085 167.11 245.208C166.324 246.331 165.154 247.127 163.821 247.445C162.488 247.762 161.084 247.58 159.877 246.932V246.932Z" fill="#FFB6B6"/>
<path d="M148.157 145.182L161.689 204.028C161.82 204.636 161.707 205.271 161.374 205.796C161.042 206.322 160.516 206.696 159.911 206.838L146.879 208.716C146.558 208.791 146.225 208.799 145.901 208.739C145.577 208.679 145.269 208.552 144.997 208.366C144.725 208.181 144.494 207.941 144.32 207.661C144.146 207.382 144.031 207.069 143.984 206.743L138.832 145.44L148.157 145.182Z" fill="#3E7BFA"/>
<path d="M346.771 384.142H0.593786C0.436304 384.142 0.285263 384.079 0.173906 383.968C0.0625499 383.856 0 383.705 0 383.548C0 383.39 0.0625499 383.239 0.173906 383.128C0.285263 383.017 0.436304 382.954 0.593786 382.954H346.771C346.929 382.954 347.08 383.017 347.191 383.128C347.302 383.239 347.365 383.39 347.365 383.548C347.365 383.705 347.302 383.856 347.191 383.968C347.08 384.079 346.929 384.142 346.771 384.142Z" fill="#E4E4E4"/>
<path d="M297.85 322.295L298.294 321.662C305.916 327.014 311.476 338.917 314.819 357.043C316.348 365.509 317.265 374.074 317.564 382.671L316.791 382.686C316.782 382.209 315.654 334.796 297.85 322.295Z" fill="#E4E4E4"/>
<path d="M299.009 356.503L299.453 355.87C307.398 361.448 307.882 381.63 307.898 382.486L307.125 382.501C307.121 382.296 306.634 361.856 299.009 356.503Z" fill="#E4E4E4"/>
<path d="M293.432 321.978C295.567 321.978 297.298 320.247 297.298 318.112C297.298 315.977 295.567 314.246 293.432 314.246C291.297 314.246 289.566 315.977 289.566 318.112C289.566 320.247 291.297 321.978 293.432 321.978Z" fill="#E4E4E4"/>
<path d="M295.365 355.615C297.501 355.615 299.232 353.884 299.232 351.749C299.232 349.613 297.501 347.882 295.365 347.882C293.23 347.882 291.499 349.613 291.499 351.749C291.499 353.884 293.23 355.615 295.365 355.615Z" fill="#E4E4E4"/>
<path d="M312.726 316.668C313.954 319.425 314.36 322.478 313.893 325.46C313.426 328.442 312.107 331.225 310.094 333.475C308.866 330.718 308.46 327.665 308.927 324.683C309.394 321.701 310.713 318.917 312.726 316.668Z" fill="#E4E4E4"/>
<path d="M289.06 330.817C291.988 330.088 295.066 330.221 297.921 331.2C300.776 332.179 303.286 333.963 305.151 336.337C302.222 337.066 299.145 336.934 296.29 335.954C293.435 334.975 290.924 333.191 289.06 330.817Z" fill="#E4E4E4"/>
<path d="M291.079 361.8C293.132 361.288 295.289 361.381 297.29 362.068C299.291 362.754 301.051 364.005 302.358 365.668C300.305 366.18 298.148 366.087 296.147 365.4C294.146 364.714 292.386 363.463 291.079 361.8V361.8Z" fill="#E4E4E4"/>
</g>
<defs>
<clipPath id="clip0_993_1112">
<rect width="350.82" height="384.142" fill="white"/>
</clipPath>
</defs>
</svg>
