<svg width="441" height="371" viewBox="0 0 441 371" fill="none" xmlns="http://www.w3.org/2000/svg">
<g clip-path="url(#clip0_1024_1150)">
<path d="M95.5662 355.854C95.2167 355.871 94.8707 355.771 94.5751 355.565C94.2795 355.36 94.0486 355.06 93.9137 354.706C93.7787 354.353 93.7462 353.962 93.8206 353.587C93.895 353.212 94.0727 352.871 94.3296 352.611L94.4465 352.101C94.4311 352.061 94.4156 352.02 94.4 351.979C92.8292 347.872 82.8057 359.321 82.3724 363.181C82.1815 364.887 82.262 366.616 82.6103 368.292C79.3636 360.527 77.6776 352.086 77.6667 343.543C77.6661 341.4 77.7747 339.258 77.9921 337.127C78.1718 335.381 78.4211 333.647 78.74 331.925C80.4802 322.584 84.2165 313.828 89.6421 306.378C92.7449 306.568 95.4643 306.049 95.7268 299.456C95.7735 298.283 96.567 297.267 96.7418 296.112C96.4456 296.154 96.1445 296.181 95.8483 296.202C95.756 296.208 95.6589 296.213 95.5666 296.218L95.5318 296.22C95.2062 296.236 94.8834 296.148 94.6021 295.968C94.3209 295.788 94.0932 295.522 93.9465 295.203C93.7998 294.884 93.7403 294.525 93.7753 294.17C93.8102 293.814 93.938 293.478 94.1434 293.2C94.2713 293.028 94.3993 292.855 94.5274 292.683C94.7216 292.416 94.9207 292.156 95.115 291.889C95.1374 291.864 95.1585 291.837 95.1781 291.809C95.4015 291.506 95.6249 291.208 95.8483 290.904C95.4405 290.21 94.8921 289.629 94.2457 289.206C92.007 287.768 88.9185 288.764 87.3014 290.984C85.6794 293.204 85.3735 296.319 85.9368 299.094C86.4907 301.454 87.4071 303.694 88.6466 305.717C88.5251 305.888 88.3989 306.053 88.2775 306.223C86.0582 309.352 84.1239 312.712 82.5024 316.255C82.9611 312.326 77.3512 298.136 75.1816 295.13C72.5757 291.52 67.2319 293.096 66.7728 297.672C66.7684 297.716 66.764 297.761 66.7598 297.805C67.0821 298.004 67.3975 298.216 67.7061 298.44C68.0938 298.724 68.3943 299.13 68.5681 299.604C68.7418 300.078 68.7808 300.599 68.68 301.099C68.5791 301.598 68.3431 302.052 68.0028 302.401C67.6625 302.751 67.2339 302.98 66.773 303.058L66.7259 303.066C62.4124 309.819 76.2403 327.395 79.7015 323.448C78.0724 328.51 77.0505 333.783 76.6615 339.135C76.4413 342.292 76.4543 345.463 76.7004 348.618L76.6858 348.506C75.9168 341.635 62.7233 331.419 58.8706 332.27C56.6512 332.76 54.4651 332.649 54.8021 335.103C54.8075 335.143 54.813 335.182 54.8185 335.221C55.4165 335.488 55.9988 335.796 56.5619 336.142C56.8841 336.341 57.1996 336.553 57.5082 336.777C57.8959 337.061 58.1964 337.467 58.3701 337.941C58.5439 338.416 58.5829 338.937 58.482 339.436C58.3812 339.935 58.1451 340.389 57.8049 340.739C57.4646 341.088 57.0359 341.317 56.5751 341.395L56.5278 341.403C56.4939 341.408 56.4647 341.414 56.4308 341.419C54.4673 348.826 69.0282 360.781 77.8804 356.977H77.8853C78.7625 361.157 80.0336 365.226 81.678 369.117H95.2267C95.2752 368.952 95.3189 368.782 95.3627 368.617C94.1086 368.703 92.8495 368.621 91.6137 368.372C92.6189 367.02 93.6241 365.656 94.6294 364.304C94.6518 364.279 94.6729 364.252 94.6925 364.224C95.2024 363.532 95.7171 362.845 96.227 362.153L96.2273 362.152C96.2545 360.03 96.0324 357.913 95.5666 355.854L95.5662 355.854ZM80.0511 322.389L80.0582 322.378L80.0511 322.399V322.389ZM77.05 352.052L76.9335 351.765C76.9384 351.557 76.9384 351.349 76.9335 351.136C76.9335 351.078 76.9238 351.019 76.9238 350.961C76.9675 351.328 77.0063 351.695 77.0549 352.063L77.05 352.052Z" fill="#3E7BFA"/>
<path d="M355.251 369.041L355.181 368.521C353.948 359.33 354.55 349.955 356.944 341.044C359.338 332.133 363.469 323.897 369.05 316.908C372.215 313.017 375.814 309.578 379.762 306.673L380.117 306.412L380.325 307.082C380.561 307.819 381.022 308.445 381.629 308.855C382.236 309.265 382.953 309.433 383.66 309.331C384.367 309.229 385.021 308.864 385.511 308.296C386.001 307.728 386.298 306.993 386.352 306.213L386.627 302.283L387.051 302.053C389.027 300.973 391.252 300.567 393.44 300.888C395.629 301.209 397.679 302.242 399.326 303.854C401.033 305.454 402.263 307.579 402.857 309.953C403.451 312.328 403.382 314.843 402.659 317.174C402.012 319.322 401.397 321.552 400.802 323.709C398.767 331.084 396.663 338.709 392.832 345.057C389.907 349.848 386.034 353.853 381.501 356.774C376.968 359.695 371.892 361.457 366.651 361.927L355.251 369.041Z" fill="#F2F2F2"/>
<path d="M226.293 217.956C226.407 218.711 226.672 219.43 227.067 220.061C227.463 220.692 227.98 221.221 228.582 221.609C229.184 221.998 229.856 222.237 230.551 222.31C231.247 222.383 231.948 222.287 232.606 222.031L243.445 235.978L246.155 226.771L235.436 214.967C234.97 213.784 234.123 212.829 233.058 212.283C231.992 211.738 230.781 211.64 229.654 212.009C228.527 212.377 227.562 213.186 226.943 214.282C226.323 215.378 226.092 216.685 226.293 217.956V217.956Z" fill="#FFB8B8"/>
<path d="M269.997 214.478C269.997 214.478 275.483 204.486 280.635 207.334C285.788 210.183 281.823 220.065 281.823 220.065L257.711 250.747C257.711 250.747 230.844 226.15 234.415 226.496C237.986 226.842 239.864 219.901 239.864 219.901L254.339 230.498L255.208 227.558L255.94 228.592L258.317 227.025L269.997 214.478Z" fill="#3E7BFA"/>
<path d="M327.078 84.379L327.055 84.6697C310.38 83.4103 293.706 82.1487 277.035 80.8851C264.99 79.9744 252.526 78.9411 241.882 72.6894C237.842 70.3191 233.907 67.1545 229.325 66.9349C223.64 66.6572 218.681 71.0167 214.782 75.5634C191.733 102.482 185.06 143.641 159.202 167.285C175.51 123.188 194.982 80.5779 217.432 39.8549C221.579 32.3309 226.497 24.2967 234.196 21.8425C241.541 19.4981 249.057 22.921 255.819 27.3127C257.268 28.2557 258.681 29.2438 260.048 30.2255C270.468 37.7043 280.717 45.4694 290.795 53.5208C303.17 63.3957 315.265 73.6818 327.078 84.379Z" fill="#F2F2F2"/>
<path d="M381.009 141.471C363.186 113.886 342.478 88.6842 319.309 66.3795C312.647 59.9599 305.789 53.7771 298.735 47.831C285.633 36.7739 271.892 26.6582 257.598 17.5477C252.909 14.5639 248.165 11.6985 243.367 8.95155C239.638 6.82675 235.668 4.88276 231.368 5.1863C228.36 5.46823 225.487 6.67976 223.081 8.6803C217.797 12.9105 214.299 19.5175 211.418 25.8144C208.897 31.3363 206.547 36.968 204.15 42.5675C203.131 44.9506 202.112 47.3273 201.057 49.6911C197.382 57.9707 193.62 66.2052 189.772 74.3944C184.812 84.9474 179.709 95.4208 174.463 105.814C163.443 127.663 151.813 149.118 139.576 170.179C121.587 201.134 102.342 231.15 81.8397 260.228C79.3246 263.787 78.288 264.613 75.7375 268.146C75.1485 268.973 74.1 267.81 74.6831 266.99C95.9527 237.514 114.471 209.665 133.143 178.135C147.221 154.362 160.525 130.061 173.055 105.233C177.078 97.27 181.017 89.2573 184.871 81.1951C191.109 68.1426 197.131 54.9675 202.936 41.6697C204.468 38.1692 205.984 34.6559 207.484 31.1296C212.249 19.9372 219.187 3.29395 232.588 3.51999C236.528 3.58461 240.186 5.3348 243.638 7.27232C247.154 9.25506 250.606 11.3605 254.052 13.4982C255.43 14.3507 256.802 15.2161 258.169 16.0945C263.582 19.5432 268.915 23.1363 274.167 26.8735C282.931 33.1059 291.464 39.7106 299.766 46.6879C303.706 50.001 307.588 53.3895 311.41 56.8534C335.397 78.6125 356.964 103.392 375.667 130.679C377.923 133.967 380.131 137.29 382.293 140.651C382.847 141.51 381.557 142.324 381.009 141.471Z" fill="#E4E4E4"/>
<path d="M320.636 58.1594C321.415 57.2078 322.188 56.2561 322.972 55.3044C329.152 47.8105 335.783 40.4036 344.269 36.1074C348.316 33.9942 352.733 32.8716 357.214 32.8173C361.839 32.9564 366.398 34.0467 370.655 36.0313C372.679 36.9177 374.658 37.9238 376.607 38.9951C378.834 40.2241 381.021 41.5348 383.199 42.8562C387.286 45.3361 391.32 47.9247 395.3 50.622C403.221 55.9896 410.894 61.7668 418.319 67.9537C422.168 71.1623 425.937 74.476 429.627 77.8948C433.06 81.0707 436.422 84.3318 439.716 87.6782C440.42 88.3906 441.471 87.2377 440.767 86.5253C439.899 85.6388 439.021 84.7578 438.143 83.8877C435.663 81.4296 433.144 79.0187 430.585 76.6549C425.918 72.3369 421.13 68.1857 416.221 64.2013C408.588 58.0017 400.692 52.2227 392.533 46.8642C388.456 44.1886 384.323 41.6254 380.134 39.1746C378.869 38.435 377.589 37.7117 376.295 37.0265C373.357 35.402 370.306 34.0398 367.169 32.9533C362.725 31.3771 358.024 30.8707 353.385 31.4686C348.907 32.1829 344.592 33.8196 340.668 36.2923C332.336 41.3988 325.874 49.2951 319.584 57.0011C318.949 57.7842 319.996 58.9425 320.636 58.1594Z" fill="#E4E4E4"/>
<path d="M149.908 135.816L129.942 127.809L120.028 123.833C116.825 122.419 113.559 121.185 110.241 120.137C107.341 119.229 104.261 119.272 101.383 120.261C98.8155 121.303 96.4658 122.9 94.473 124.957C92.4372 127.013 90.5429 129.231 88.8058 131.593C86.6475 134.437 84.521 137.311 82.385 140.175C73.5694 151.996 64.8113 163.869 56.1109 175.793C47.4107 187.717 38.7687 199.691 30.1849 211.716C21.5801 223.77 13.0344 235.875 4.54793 248.03C3.50831 249.519 2.46959 251.009 1.43176 252.5C0.858376 253.323 -0.434499 252.511 0.146988 251.676C8.69607 239.399 17.3048 227.172 25.973 214.995C34.6626 202.789 43.4122 190.634 52.2219 178.532C61.0314 166.43 69.9004 154.38 78.829 142.383C81.0533 139.394 83.2814 136.408 85.5131 133.426C87.3956 130.91 89.2569 128.367 91.3217 126.026C95.1119 121.728 99.8471 117.93 105.515 117.827C108.848 117.766 112.073 118.926 115.169 120.154C118.507 121.478 121.837 122.827 125.171 124.164L145.277 132.227L150.304 134.243C151.196 134.601 150.811 136.178 149.908 135.816H149.908Z" fill="#E4E4E4"/>
<path d="M346.897 45.537C357.044 39.8192 370.038 40.9391 379.362 48.0826C361.577 51.4469 343.987 55.9484 326.681 61.564C333.867 56.9464 339.489 49.7117 346.897 45.537Z" fill="#F2F2F2"/>
<path d="M379.461 48.0629L381.414 49.8038C380.754 49.1945 380.067 48.6232 379.361 48.0827C379.395 48.0763 379.428 48.0692 379.461 48.0629Z" fill="#F2F2F2"/>
<path d="M95.2249 135.896C97.1903 133.273 99.3153 130.526 102.255 129.461L105 129.579C84.1064 170.06 55.8883 205.432 22.0776 233.523C46.4601 200.981 70.8425 168.438 95.2249 135.896Z" fill="#F2F2F2"/>
<path d="M377.135 285.728L358.658 276.79V269.105L365.243 269.065C366.264 269.059 367.259 268.702 368.086 268.044C368.913 267.386 369.532 266.461 369.855 265.398L374.481 255.926C374.726 255.119 374.793 254.261 374.676 253.421C374.559 252.581 374.262 251.783 373.809 251.094C373.356 250.405 372.76 249.843 372.07 249.456C371.38 249.069 370.616 248.867 369.841 248.867L358.658 253.175V246.024H372.697C373.804 246.024 374.878 245.613 375.744 244.857C376.61 244.101 377.216 243.046 377.464 241.863L380.65 226.668C380.815 225.882 380.816 225.066 380.653 224.279C380.49 223.493 380.167 222.757 379.709 222.126C379.251 221.495 378.669 220.986 378.007 220.636C377.344 220.286 376.618 220.104 375.883 220.104H358.658V218.316C358.658 217.368 358.314 216.459 357.703 215.788C357.091 215.118 356.262 214.741 355.397 214.741C354.532 214.741 353.703 215.118 353.091 215.788C352.48 216.459 352.136 217.368 352.136 218.316V220.104H236.653V218.316C236.653 217.368 236.309 216.459 235.698 215.788C235.086 215.118 234.257 214.741 233.392 214.741C232.527 214.741 231.698 215.118 231.086 215.788C230.475 216.459 230.131 217.368 230.131 218.316V220.104H216.438C215.703 220.104 214.977 220.286 214.315 220.636C213.652 220.986 213.07 221.495 212.612 222.126C212.154 222.757 211.832 223.493 211.669 224.279C211.506 225.066 211.507 225.882 211.672 226.668L214.857 241.863C215.105 243.046 215.712 244.101 216.578 244.857C217.443 245.613 218.517 246.024 219.624 246.024H230.131V253.175L222.48 248.867C221.709 248.867 220.949 249.067 220.262 249.45C219.575 249.833 218.981 250.389 218.527 251.072C218.073 251.755 217.773 252.546 217.651 253.381C217.529 254.216 217.588 255.07 217.825 255.874L222.546 266.197C222.865 267.282 223.491 268.227 224.333 268.896C225.175 269.564 226.19 269.921 227.229 269.915L230.131 269.897V276.79L215.186 285.728C213.889 285.728 212.645 286.293 211.728 287.298C210.811 288.304 210.295 289.668 210.295 291.091V291.091C210.295 292.513 210.811 293.877 211.728 294.883C212.645 295.888 213.889 296.453 215.186 296.453H230.131V365.937C230.131 366.885 230.475 367.794 231.086 368.465C231.698 369.135 232.527 369.512 233.392 369.512C234.257 369.512 235.086 369.135 235.698 368.465C236.309 367.794 236.653 366.885 236.653 365.937V296.453H352.136V366.655C352.136 367.603 352.48 368.512 353.091 369.183C353.703 369.853 354.532 370.23 355.397 370.23C356.262 370.23 357.091 369.853 357.703 369.183C358.314 368.512 358.658 367.603 358.658 366.655V296.453H377.135C378.432 296.453 379.676 295.888 380.593 294.883C381.511 293.877 382.026 292.513 382.026 291.091V291.091C382.026 289.668 381.511 288.304 380.594 287.299C379.676 286.293 378.432 285.728 377.135 285.728H377.135ZM236.653 246.024H352.136V253.175H236.653V246.024ZM236.653 276.79V269.857L352.136 269.146V276.79L236.653 276.79Z" fill="#CCCCCC"/>
<path d="M280.05 181.918C280.882 179.811 282.145 177.941 283.74 176.454C285.336 174.967 287.222 173.901 289.253 173.34C293.761 172.054 300.364 174.013 303.753 176.825C309.953 181.97 311.467 199.644 307.207 205.23C306.359 205.192 303.436 205.165 302.578 205.138L301.365 201.771V205.105C294.671 204.932 287.703 205.04 280.73 205.152C280.106 201.197 278.617 185.722 280.05 181.918Z" fill="#2F2E41"/>
<path d="M289.372 200.967C294.713 200.967 299.042 196.22 299.042 190.364C299.042 184.509 294.713 179.762 289.372 179.762C284.032 179.762 279.703 184.509 279.703 190.364C279.703 196.22 284.032 200.967 289.372 200.967Z" fill="#FFB8B8"/>
<path d="M282.728 176.558C284.586 175.316 286.714 174.644 288.89 174.613C291.066 174.582 293.209 175.192 295.096 176.379C296.983 177.567 298.545 179.289 299.617 181.365C300.69 183.441 301.234 185.795 301.193 188.18C295.922 189.657 290.305 190.275 284.353 188.536L282.992 184.885L282.19 188.539C280.369 189.943 278.611 189.941 276.917 188.531C276.845 186.152 277.344 183.795 278.364 181.694C279.383 179.593 280.888 177.822 282.728 176.558Z" fill="#2F2E41"/>
<path d="M309.126 177.611C308.17 176.004 307.117 174.306 305.494 173.588C303.872 172.87 301.572 173.729 301.351 175.631C301.186 177.054 302.176 178.275 302.921 179.454C303.666 180.632 304.151 182.41 303.178 183.368L302.63 183.677C303.153 184.419 303.828 185.015 304.6 185.419C305.372 185.823 306.219 186.023 307.074 186.002C307.928 185.952 308.744 185.598 309.398 184.995C310.053 184.391 310.511 183.571 310.702 182.657C310.982 180.86 310.034 179.137 309.126 177.611Z" fill="#2F2E41"/>
<path d="M250.419 356.27L244.987 354.537L248.498 330.741L256.515 333.299L250.419 356.27Z" fill="#FFB8B8"/>
<path d="M249.849 368.354L245.994 367.124L246.365 362.915L243.544 366.343L233.322 363.082C232.832 362.926 232.4 362.602 232.09 362.157C231.78 361.713 231.607 361.172 231.598 360.612C231.588 360.053 231.742 359.505 232.036 359.048C232.331 358.591 232.751 358.249 233.235 358.073L243.038 354.495L244.109 350.461L252.546 353.762L249.849 368.354Z" fill="#2F2E41"/>
<path d="M317.239 354.114L311.857 356.023L302.58 334.168L310.524 331.351L317.239 354.114Z" fill="#FFB8B8"/>
<path d="M322.953 364.465L319.134 365.82L317.285 362.108L316.706 366.681L306.577 370.274C306.091 370.446 305.568 370.444 305.084 370.267C304.6 370.09 304.18 369.749 303.885 369.292C303.591 368.835 303.437 368.286 303.447 367.727C303.457 367.167 303.63 366.626 303.94 366.182L310.222 357.187L309.042 353.19L317.715 350.729L322.953 364.465Z" fill="#2F2E41"/>
<path d="M282.123 290.343L278.8 306.072L303.691 340.745L313.22 335.391C305.794 317.253 305.139 315.099 297.195 307.276L297.277 307.142C302.986 297.691 309.154 288.629 309.987 277.33C310.009 277.021 308.734 265.717 308.763 265.409C309.474 258.019 276.212 255.675 276.212 255.675C276.212 255.675 270.559 266.601 262.15 274.98L245.141 293.47L245.6 344.404L253.603 346.536C259.488 334.242 262.35 319.827 263.172 303.98L277.958 293.105L282.123 290.343Z" fill="#2F2E41"/>
<path d="M306.769 294.366C306.338 293.84 306.017 293.216 305.83 292.539C305.642 291.862 305.592 291.148 305.684 290.448C305.775 289.748 306.005 289.078 306.358 288.485C306.711 287.893 307.178 287.393 307.727 287.02L307.163 283.927L300.59 247.869L308.213 251.033L313.198 283.566L314.008 288.853C314.518 289.905 314.659 291.125 314.403 292.283C314.148 293.441 313.514 294.455 312.622 295.135C311.729 295.815 310.641 296.112 309.562 295.97C308.484 295.828 307.49 295.258 306.769 294.366H306.769Z" fill="#FFB8B8"/>
<path d="M298.279 212.381L303.274 208.671C303.274 208.671 307.531 208.58 307.891 217.01C308.251 225.44 309.03 241.874 309.03 241.874L314.644 279.656L304.343 281.536L298.345 240.766L294.176 228.524L298.279 212.381Z" fill="#3E7BFA"/>
<path d="M279.982 234.175L278.562 238.221L278.847 242.267L306.624 252.816L305.245 235.108L302.123 231.062L279.982 234.175Z" fill="#FFB6B6"/>
<path d="M271.178 263.893L272.083 253.976C272.177 253.572 272.385 253.21 272.678 252.943C272.971 252.676 273.333 252.518 273.713 252.491C274.09 247.767 275.675 227.387 275.77 226.498L275.774 226.461L276.495 209.573C276.521 208.96 276.752 208.379 277.144 207.94C277.537 207.502 278.063 207.238 278.621 207.198L282.429 206.925C282.482 206.923 282.531 206.899 282.567 206.858C282.604 206.817 282.624 206.762 282.624 206.704C282.624 206.243 282.707 205.787 282.868 205.361C283.029 204.934 283.265 204.547 283.562 204.221C283.859 203.895 284.212 203.637 284.601 203.46C284.989 203.284 285.406 203.193 285.826 203.193H297.101C297.831 203.193 298.536 203.486 299.084 204.016C299.631 204.546 299.984 205.276 300.075 206.071C300.08 206.125 300.103 206.176 300.141 206.212C300.178 206.249 300.227 206.268 300.277 206.267H300.278C301.56 206.238 302.808 206.714 303.796 207.608C304.785 208.501 305.449 209.754 305.667 211.138C307.208 220.972 310.297 243.289 308.77 255.696C308.238 260.016 309.385 256.595 309.586 260.208C309.606 260.558 309.562 260.908 309.459 261.239C309.355 261.57 309.193 261.875 308.982 262.137C309.414 262.31 309.768 262.662 309.965 263.119C310.162 263.575 310.187 264.098 310.034 264.575L310.233 264.521C310.174 264.774 310.072 265.011 309.93 265.22C309.788 265.429 309.61 265.605 309.406 265.739C309.202 265.872 308.976 265.961 308.741 265.998C308.506 266.036 308.267 266.023 308.036 265.959L275.017 262.686C274.048 262.418 270.934 264.955 271.178 263.893Z" fill="#3E7BFA"/>
<path d="M439.382 369.923C439.383 370.035 439.363 370.147 439.324 370.25C439.285 370.354 439.227 370.449 439.155 370.528C439.082 370.607 438.996 370.67 438.902 370.713C438.807 370.756 438.706 370.778 438.603 370.777L397.329 370.799L387.036 370.806L380.245 370.813H372.734L368.635 370.821L357.254 370.828L178.185 370.928L176.823 370.935L96.7246 370.964H95.4018L27.2213 370.993H25.8985L4.61665 371C4.40998 371 4.21177 370.91 4.06564 370.75C3.9195 370.59 3.8374 370.372 3.8374 370.146C3.8374 369.919 3.9195 369.702 4.06564 369.541C4.21177 369.381 4.40998 369.291 4.61665 369.291L26.1212 369.284H27.4439L95.6049 369.255H96.9276L176.404 369.227H177.759L245.482 369.198H246.372L356.01 369.126L367.371 369.119L372.57 369.112L380.789 369.104H387.808L398.868 369.097L438.603 369.069C438.706 369.068 438.807 369.09 438.902 369.133C438.996 369.176 439.082 369.239 439.155 369.318C439.227 369.398 439.285 369.492 439.324 369.596C439.363 369.7 439.383 369.811 439.382 369.923V369.923Z" fill="#CACACA"/>
</g>
<defs>
<clipPath id="clip0_1024_1150">
<rect width="441" height="371" fill="white"/>
</clipPath>
</defs>
</svg>
