<svg width="355" height="292" viewBox="0 0 355 292" fill="none" xmlns="http://www.w3.org/2000/svg">
<g clip-path="url(#clip0_837_985)">
<path d="M317.408 142.77C317.408 145.392 317.339 147.997 317.2 150.583C316.696 160.25 315.228 169.841 312.82 179.204C312.816 179.207 312.816 179.207 312.82 179.211C312.504 180.45 312.168 181.684 311.814 182.907C311.798 182.966 311.783 183.021 311.764 183.076C311.239 184.91 310.679 186.727 310.083 188.527V188.531C300.712 216.807 282.917 241.371 259.197 258.77C235.478 276.17 207.025 285.531 177.837 285.539C111.818 285.539 56.5106 238.658 41.9906 175.662C39.5084 164.882 38.2586 153.844 38.2661 142.77C38.2661 140.569 38.315 138.38 38.4127 136.203C39.5696 109.589 48.02 83.8435 62.799 61.9076C62.9764 61.6394 63.1576 61.3712 63.3427 61.107C88.5657 24.1644 130.445 2.38419e-07 177.837 2.38419e-07C244.816 2.38419e-07 300.771 48.2577 314.289 112.638C314.291 112.64 314.292 112.643 314.293 112.646C315.164 116.795 315.856 121.007 316.367 125.282C317.063 131.084 317.411 136.924 317.408 142.77Z" fill="#F2F2F2"/>
<path d="M353.753 262.515C352.71 266.37 351.083 270.034 348.93 273.373C344.118 280.815 337.232 286.506 329.663 291.061C329.139 291.381 328.607 291.692 328.075 292H322.766L322.581 291.566V291.562L322.365 291.061L322.338 291.002L322.326 291.061L322.114 292H319.508C319.292 291.688 319.08 291.377 318.872 291.061C318.567 290.6 318.274 290.135 317.997 289.661C317.507 288.834 317.069 287.975 316.686 287.09C316.639 286.991 316.601 286.893 316.562 286.794L316.736 286.601L316.015 283.375L317.464 283.13L315.876 278.117C315.934 277.932 315.999 277.747 316.069 277.561C316.959 275.254 318.633 273.531 320.618 272.083C322.662 270.588 325.041 269.39 327.227 268.143C328.252 267.556 329.262 266.936 330.246 266.282V266.278C331.503 265.446 332.722 264.556 333.905 263.608C333.925 263.595 333.944 263.58 333.962 263.564C333.979 263.552 333.994 263.539 334.009 263.525C339.309 259.289 343.795 254.083 347.237 248.171C347.238 248.171 347.238 248.171 347.239 248.171C347.239 248.171 347.239 248.171 347.24 248.17C347.24 248.17 347.24 248.169 347.241 248.169C347.241 248.168 347.241 248.168 347.241 248.167C347.357 247.978 347.464 247.789 347.572 247.596V247.592C348.982 245.111 350.195 242.52 351.2 239.842V239.838C351.278 239.641 351.347 239.443 351.42 239.246C351.521 239.42 351.617 239.593 351.709 239.767C351.71 239.767 351.71 239.767 351.711 239.767C351.711 239.767 351.712 239.768 351.712 239.768C351.713 239.768 351.713 239.769 351.713 239.769C351.713 239.77 351.713 239.77 351.713 239.771C355.453 246.613 355.808 254.856 353.753 262.515Z" fill="#F0F0F0"/>
<path d="M351.713 239.771C351.751 243.423 351.379 247.067 350.607 250.632C350.259 252.264 349.827 253.875 349.311 255.46C348.31 258.559 347.001 261.546 345.406 264.373C345.317 264.527 345.232 264.677 345.14 264.826V264.83C344.458 266.007 343.718 267.147 342.923 268.246C341.719 269.997 340.233 271.526 338.527 272.766C337.134 273.707 335.558 274.33 333.908 274.592C333.6 274.651 333.284 274.694 332.964 274.734C331.687 274.887 330.369 274.947 329.104 275.223C328.464 275.352 327.84 275.557 327.246 275.834C325.21 276.8 324.065 278.823 323.564 280.985C323.475 281.363 323.406 281.746 323.352 282.128C322.932 285.067 323.394 288.119 323.155 291.061C323.128 291.373 323.093 291.688 323.051 292H322.766L322.581 291.566V291.562C322.6 291.397 322.615 291.231 322.631 291.061C322.723 289.616 322.735 288.166 322.666 286.719C322.65 286.068 322.639 285.414 322.646 284.759C322.654 284.234 322.673 283.71 322.712 283.189V283.185C322.739 282.862 322.77 282.543 322.812 282.223C322.934 281.245 323.17 280.285 323.514 279.364C323.849 278.414 324.377 277.548 325.063 276.822C325.749 276.096 326.577 275.527 327.493 275.152C328.052 274.937 328.629 274.772 329.216 274.659C330.508 274.406 331.842 274.343 333.141 274.177C333.28 274.162 333.419 274.142 333.554 274.118C333.727 274.091 333.897 274.059 334.066 274.028C335.766 273.719 337.372 273.007 338.755 271.949C340.398 270.619 341.826 269.032 342.988 267.248C343.62 266.321 344.222 265.375 344.781 264.401C344.781 264.4 344.781 264.399 344.781 264.399C344.781 264.398 344.782 264.398 344.782 264.398C344.782 264.397 344.783 264.397 344.783 264.397C344.784 264.397 344.784 264.397 344.785 264.397C344.812 264.349 344.839 264.306 344.866 264.259L344.87 264.251C347.268 260.059 349.018 255.513 350.059 250.774C350.094 250.601 350.132 250.427 350.171 250.254C350.887 246.832 351.232 243.341 351.2 239.842V239.838C351.2 239.672 351.197 239.51 351.193 239.345C351.185 239.006 351.698 238.931 351.705 239.27C351.709 239.436 351.713 239.601 351.709 239.767C351.71 239.767 351.71 239.767 351.711 239.767C351.711 239.767 351.712 239.768 351.712 239.768C351.712 239.768 351.713 239.769 351.713 239.769C351.713 239.77 351.713 239.77 351.713 239.771Z" fill="white"/>
<path d="M344.919 264.72C346.389 265.483 348.075 265.687 349.678 265.296C351.281 264.905 352.695 263.943 353.669 262.584C353.865 262.308 353.456 261.983 353.259 262.259C352.355 263.527 351.037 264.422 349.544 264.784C348.05 265.145 346.48 264.948 345.116 264.229C344.82 264.073 344.625 264.565 344.919 264.72Z" fill="white"/>
<path d="M334.116 274.185C333.042 270.919 333.212 267.359 334.59 264.215C334.727 263.903 334.247 263.703 334.11 264.014C332.682 267.288 332.513 270.993 333.638 274.389C333.745 274.713 334.223 274.507 334.116 274.185V274.185Z" fill="white"/>
<path d="M350.32 250.302C349.691 250.128 349.115 249.797 348.642 249.338C348.17 248.88 347.816 248.309 347.613 247.676C347.509 247.351 347.032 247.558 347.134 247.88C347.362 248.578 347.754 249.209 348.275 249.717C348.796 250.224 349.431 250.594 350.123 250.793C350.187 250.817 350.258 250.815 350.32 250.789C350.383 250.762 350.434 250.711 350.461 250.648C350.487 250.583 350.487 250.51 350.46 250.445C350.434 250.38 350.383 250.329 350.32 250.302Z" fill="white"/>
<path d="M330.246 266.278V266.282C330.126 269.098 329.782 271.9 329.216 274.659V274.663C329.185 274.852 329.143 275.037 329.104 275.223C328.174 279.49 326.869 283.662 325.206 287.689C324.748 288.825 324.267 289.949 323.764 291.061C323.626 291.377 323.483 291.688 323.336 292H322.766L322.581 291.566V291.562L322.365 291.061L322.338 291.002L322.326 291.061L322.114 292H316.601L315.529 291.061L313.967 289.693L316.15 287.256L316.508 286.853L316.562 286.794L316.736 286.601L316.015 283.375L317.464 283.13L315.876 278.117L315.124 275.747L314.935 275.152L313.836 271.685L310.521 272.32L309.981 270.387C310.975 268.031 311.802 265.604 312.456 263.127C312.46 263.107 312.468 263.091 312.471 263.071C314.223 256.398 314.749 249.449 314.021 242.579V242.575C313.998 242.354 313.971 242.129 313.94 241.912V241.904C313.61 239.057 313.053 236.243 312.275 233.488C312.221 233.279 312.159 233.074 312.101 232.869C312.279 232.948 312.452 233.023 312.629 233.102L312.633 233.106H312.641C312.922 233.232 313.204 233.366 313.478 233.508C320.055 236.777 324.894 242.914 327.643 249.99C327.651 250.009 327.658 250.025 327.666 250.045C329.1 253.754 329.955 257.671 330.199 261.652C330.292 263.192 330.307 264.736 330.246 266.278Z" fill="#F0F0F0"/>
<path d="M320.24 292H319.631C319.438 291.681 319.23 291.369 319.022 291.061C318.69 290.584 318.349 290.117 317.996 289.661C317.692 289.267 317.387 288.876 317.083 288.486C316.767 288.08 316.454 287.673 316.15 287.255L316.508 286.853C316.566 286.932 316.624 287.011 316.686 287.09C317.673 288.419 318.741 289.697 319.654 291.061C319.859 291.369 320.055 291.681 320.24 292Z" fill="white"/>
<path d="M311.973 233.089C312.074 233.219 312.178 233.354 312.274 233.488C313.026 234.485 313.737 235.515 314.406 236.576C315.599 238.448 316.658 240.405 317.576 242.432C317.649 242.59 317.722 242.752 317.791 242.914C319.755 247.344 321.035 252.059 321.585 256.891C321.593 256.938 321.597 256.982 321.601 257.029C321.728 258.157 321.81 259.289 321.847 260.425C321.97 262.564 321.764 264.709 321.234 266.782C321.157 267.054 321.073 267.322 320.98 267.583C320.748 268.221 320.458 268.835 320.112 269.417C319.865 269.841 319.589 270.249 319.287 270.635C319.106 270.872 318.917 271.105 318.717 271.329C318.601 271.46 318.482 271.59 318.362 271.72C318.262 271.819 318.165 271.921 318.065 272.02C317.024 273.053 315.875 274.011 314.934 275.151L315.123 275.747C316.029 274.571 317.198 273.597 318.25 272.572C318.911 271.936 319.513 271.239 320.047 270.489C320.116 270.387 320.19 270.284 320.255 270.178C320.612 269.644 320.921 269.078 321.177 268.486C321.308 268.19 321.427 267.886 321.535 267.571C322.165 265.532 322.452 263.398 322.383 261.261C322.371 259.891 322.291 258.524 322.144 257.163C322.129 256.985 322.11 256.812 322.087 256.634C321.696 253.395 320.982 250.205 319.958 247.114C318.662 243.192 316.879 239.457 314.653 236C314.017 235.01 313.342 234.044 312.629 233.101C312.536 232.971 312.44 232.845 312.34 232.715C312.135 232.446 311.769 232.821 311.973 233.089Z" fill="white"/>
<path d="M321.903 257.213C323.525 256.917 324.992 256.042 326.042 254.742C327.091 253.443 327.655 251.804 327.632 250.119C327.63 250.05 327.603 249.984 327.555 249.936C327.507 249.888 327.443 249.86 327.376 249.859C327.309 249.859 327.244 249.884 327.195 249.932C327.146 249.979 327.117 250.043 327.114 250.112C327.138 251.682 326.612 253.208 325.633 254.416C324.653 255.624 323.284 256.434 321.771 256.7C321.443 256.758 321.576 257.271 321.903 257.213Z" fill="white"/>
<path d="M318.848 271.424C316.068 269.477 314.108 266.531 313.358 263.171C313.284 262.839 312.783 262.974 312.857 263.306C313.644 266.8 315.69 269.862 318.587 271.881C318.863 272.074 319.123 271.615 318.848 271.424H318.848Z" fill="white"/>
<path d="M317.729 242.375C317.125 242.623 316.47 242.714 315.822 242.639C315.175 242.564 314.556 242.326 314.022 241.946C313.748 241.75 313.488 242.209 313.76 242.403C314.353 242.821 315.037 243.083 315.752 243.167C316.466 243.252 317.191 243.156 317.861 242.888C317.926 242.868 317.981 242.824 318.016 242.763C318.05 242.703 318.061 242.632 318.046 242.564C318.028 242.496 317.985 242.439 317.925 242.403C317.866 242.368 317.796 242.358 317.729 242.375Z" fill="white"/>
<path d="M244.179 61.9093H0.382967C0.280631 61.907 0.183242 61.8638 0.111661 61.7889C0.0400809 61.7141 0 61.6135 0 61.5088C0 61.4041 0.0400809 61.3036 0.111661 61.2287C0.183242 61.1539 0.280631 61.1107 0.382967 61.1084H244.179C244.281 61.1107 244.378 61.1539 244.45 61.2287C244.521 61.3036 244.561 61.4041 244.561 61.5088C244.561 61.6135 244.521 61.7141 244.45 61.7889C244.378 61.8638 244.281 61.907 244.179 61.9093Z" fill="#CACACA"/>
<path d="M9.00212 56.303C11.3285 56.303 13.2144 54.3309 13.2144 51.8982C13.2144 49.4654 11.3285 47.4933 9.00212 47.4933C6.67572 47.4933 4.78979 49.4654 4.78979 51.8982C4.78979 54.3309 6.67572 56.303 9.00212 56.303Z" fill="#3E7BFA"/>
<path d="M23.5538 56.303C25.8802 56.303 27.7661 54.3309 27.7661 51.8982C27.7661 49.4654 25.8802 47.4933 23.5538 47.4933C21.2274 47.4933 19.3414 49.4654 19.3414 51.8982C19.3414 54.3309 21.2274 56.303 23.5538 56.303Z" fill="#3E7BFA"/>
<path d="M38.1054 56.303C40.4318 56.303 42.3177 54.3309 42.3177 51.8982C42.3177 49.4654 40.4318 47.4933 38.1054 47.4933C35.779 47.4933 33.8931 49.4654 33.8931 51.8982C33.8931 54.3309 35.779 56.303 38.1054 56.303Z" fill="#3E7BFA"/>
<path d="M235.458 48.5851H225.122C224.917 48.5892 224.722 48.6754 224.578 48.8251C224.435 48.9748 224.354 49.176 224.354 49.3857C224.354 49.5953 224.435 49.7966 224.578 49.9463C224.722 50.096 224.917 50.1821 225.122 50.1863H235.458C235.663 50.1821 235.858 50.096 236.002 49.9463C236.145 49.7966 236.226 49.5953 236.226 49.3857C236.226 49.176 236.145 48.9748 236.002 48.8251C235.858 48.6754 235.663 48.5892 235.458 48.5851Z" fill="#3E7BFA"/>
<path d="M235.458 51.5903H225.122C224.917 51.5945 224.722 51.6807 224.578 51.8303C224.435 51.98 224.354 52.1813 224.354 52.3909C224.354 52.6006 224.435 52.8018 224.578 52.9515C224.722 53.1012 224.917 53.1874 225.122 53.1916H235.458C235.663 53.1874 235.858 53.1012 236.002 52.9515C236.145 52.8018 236.226 52.6006 236.226 52.3909C236.226 52.1813 236.145 51.98 236.002 51.8303C235.858 51.6807 235.663 51.5945 235.458 51.5903Z" fill="#3E7BFA"/>
<path d="M235.458 54.5916H225.122C224.917 54.5958 224.722 54.682 224.578 54.8317C224.435 54.9814 224.354 55.1826 224.354 55.3923C224.354 55.6019 224.435 55.8031 224.578 55.9528C224.722 56.1025 224.917 56.1887 225.122 56.1929H235.458C235.663 56.1887 235.858 56.1025 236.002 55.9528C236.145 55.8031 236.226 55.6019 236.226 55.3923C236.226 55.1826 236.145 54.9814 236.002 54.8317C235.858 54.682 235.663 54.5958 235.458 54.5916Z" fill="#3E7BFA"/>
<path d="M64.2564 78.2275H53.3105C47.1372 90.6598 42.7914 103.956 40.4137 117.686H64.2564C65.0163 117.688 65.7689 117.536 66.4712 117.239C67.1734 116.942 67.8115 116.506 68.3488 115.957C68.8861 115.407 69.312 114.754 69.6022 114.036C69.8924 113.318 70.0411 112.548 70.0398 111.77V84.1394C70.0377 82.5714 69.4276 81.0683 68.3434 79.9599C67.2591 78.8516 65.7893 78.2285 64.2564 78.2275Z" fill="#CCCCCC"/>
<path d="M145.343 78.2275H95.7487C94.2158 78.2285 92.746 78.8516 91.6617 79.9599C90.5774 81.0683 89.9674 82.5714 89.9653 84.1394V111.77C89.9672 113.339 90.5771 114.842 91.6613 115.952C92.7455 117.061 94.2154 117.684 95.7487 117.686H145.343C146.876 117.684 148.346 117.061 149.43 115.952C150.514 114.842 151.124 113.339 151.126 111.77V84.1394C151.124 82.5714 150.514 81.0683 149.43 79.9599C148.345 78.8516 146.875 78.2285 145.343 78.2275Z" fill="#CCCCCC"/>
<path d="M226.429 78.2275H176.835C175.302 78.2285 173.832 78.8516 172.748 79.9599C171.663 81.0683 171.053 82.5714 171.051 84.1394V111.77C171.053 113.339 171.663 114.842 172.747 115.952C173.832 117.061 175.301 117.684 176.835 117.686H226.429C227.962 117.684 229.432 117.061 230.516 115.952C231.6 114.842 232.21 113.339 232.212 111.77V84.1394C232.21 82.5714 231.6 81.0683 230.516 79.9599C229.431 78.8516 227.962 78.2285 226.429 78.2275Z" fill="#CCCCCC"/>
<path d="M64.2564 136.203H38.4127C38.3163 138.38 38.2674 140.569 38.2661 142.77C38.2586 153.844 39.5084 164.882 41.9906 175.662H64.2564C65.7897 175.66 67.2596 175.036 68.3438 173.927C69.428 172.818 70.0379 171.314 70.0397 169.746V142.115C70.0377 140.547 69.4276 139.044 68.3434 137.935C67.2591 136.827 65.7893 136.204 64.2564 136.203Z" fill="#CCCCCC"/>
<path d="M145.343 136.203H95.7487C94.2158 136.204 92.746 136.827 91.6617 137.935C90.5774 139.044 89.9674 140.547 89.9653 142.115V169.746C89.9672 171.314 90.5771 172.818 91.6613 173.927C92.7455 175.036 94.2154 175.66 95.7487 175.662H145.343C146.876 175.66 148.346 175.036 149.43 173.927C150.514 172.818 151.124 171.314 151.126 169.746V142.115C151.124 140.547 150.514 139.044 149.43 137.935C148.345 136.827 146.875 136.204 145.343 136.203Z" fill="#CCCCCC"/>
<path d="M226.429 136.203H176.835C175.302 136.204 173.832 136.827 172.748 137.935C171.663 139.044 171.053 140.547 171.051 142.115V169.746C171.053 171.314 171.663 172.818 172.747 173.927C173.832 175.036 175.301 175.66 176.835 175.662H226.429C226.587 175.662 226.745 175.654 226.903 175.638C227.522 175.592 228.13 175.438 228.7 175.185C229.732 174.733 230.614 173.983 231.238 173.027C231.862 172.071 232.2 170.95 232.212 169.801V142.115C232.21 140.547 231.6 139.044 230.516 137.935C229.431 136.827 227.962 136.204 226.429 136.203Z" fill="#CCCCCC"/>
<path d="M65.2916 124.285C71.6284 124.285 76.7654 119.031 76.7654 112.549C76.7654 106.067 71.6284 100.812 65.2916 100.812C58.9547 100.812 53.8177 106.067 53.8177 112.549C53.8177 119.031 58.9547 124.285 65.2916 124.285Z" fill="#3E7BFA"/>
<path d="M63.7262 118.657C63.5281 118.657 63.3327 118.61 63.1555 118.519C62.9783 118.429 62.8241 118.297 62.7053 118.135L59.5751 113.865C59.4745 113.728 59.4013 113.572 59.3597 113.406C59.3182 113.24 59.3089 113.067 59.3327 112.897C59.3564 112.728 59.4125 112.564 59.4979 112.417C59.5833 112.269 59.6963 112.141 59.8304 112.038C59.9645 111.935 60.117 111.86 60.2794 111.817C60.4418 111.775 60.6107 111.766 60.7766 111.79C60.9425 111.814 61.1022 111.871 61.2464 111.959C61.3906 112.046 61.5166 112.162 61.6171 112.299L63.665 115.092L68.9248 107.021C69.0177 106.879 69.1372 106.756 69.2765 106.66C69.4158 106.565 69.5721 106.498 69.7366 106.464C69.901 106.431 70.0704 106.43 70.2349 106.464C70.3995 106.497 70.556 106.563 70.6956 106.658C70.8351 106.753 70.955 106.876 71.0483 107.018C71.1416 107.161 71.2065 107.321 71.2393 107.489C71.2721 107.657 71.2721 107.831 71.2394 107.999C71.2067 108.167 71.1419 108.327 71.0487 108.47L64.7883 118.076C64.675 118.249 64.5227 118.393 64.3441 118.494C64.1655 118.595 63.9658 118.651 63.7617 118.657C63.7499 118.657 63.7381 118.657 63.7262 118.657Z" fill="white"/>
<path d="M148.957 125.469C155.294 125.469 160.431 120.214 160.431 113.732C160.431 107.25 155.294 101.995 148.957 101.995C142.62 101.995 137.483 107.25 137.483 113.732C137.483 120.214 142.62 125.469 148.957 125.469Z" fill="#3E7BFA"/>
<path d="M147.392 119.84C147.194 119.84 146.998 119.793 146.821 119.702C146.644 119.612 146.49 119.48 146.371 119.318L143.241 115.049C143.14 114.911 143.067 114.755 143.025 114.589C142.984 114.423 142.974 114.25 142.998 114.081C143.022 113.911 143.078 113.748 143.163 113.6C143.249 113.453 143.362 113.324 143.496 113.221C143.63 113.118 143.783 113.043 143.945 113.001C144.107 112.958 144.276 112.949 144.442 112.973C144.608 112.997 144.768 113.055 144.912 113.142C145.056 113.229 145.182 113.345 145.283 113.482L147.331 116.275L152.59 108.205C152.778 107.917 153.07 107.717 153.402 107.65C153.734 107.582 154.078 107.652 154.359 107.844C154.641 108.036 154.836 108.334 154.903 108.673C154.969 109.012 154.902 109.365 154.714 109.653L148.454 119.259C148.341 119.433 148.188 119.576 148.01 119.677C147.831 119.778 147.631 119.834 147.427 119.84C147.415 119.84 147.404 119.84 147.392 119.84Z" fill="white"/>
<path d="M312.805 176.977L309.213 141.417L308.266 126.782L318.318 124.923C318.318 124.923 319.823 134.984 321.14 140.888C322.44 146.714 319.409 176.197 319.329 176.974C320.067 177.649 320.587 178.538 320.821 179.522C321.055 180.507 320.991 181.541 320.638 182.487C320.285 183.434 319.659 184.248 318.843 184.823C318.028 185.398 317.061 185.706 316.071 185.706C315.08 185.707 314.113 185.4 313.297 184.826C312.481 184.252 311.855 183.438 311.501 182.492C311.147 181.545 311.082 180.512 311.315 179.527C311.548 178.542 312.067 177.653 312.805 176.977Z" fill="#FFB8B8"/>
<path d="M287.078 282.827L282.093 283.993L275.325 264.879L282.682 263.158L287.078 282.827Z" fill="#FFB8B8"/>
<path d="M287.979 280.866L286.706 281.162L286.575 281.193L280.757 280.223L280.588 280.195L278.159 283.161C276.499 283.55 275.058 284.596 274.153 286.071C273.248 287.546 272.952 289.328 273.331 291.025L273.339 291.061L273.382 291.234L274.122 291.061L289.455 287.472L287.979 280.866Z" fill="#5E5E66"/>
<path d="M316.797 286.162H311.683L309.251 265.985L316.798 265.985L316.797 286.162Z" fill="#FFB8B8"/>
<path d="M316.664 284.455L316.217 284.269L311.205 282.183L311.043 282.116L308.031 284.455C307.189 284.454 306.354 284.624 305.575 284.954C304.797 285.283 304.089 285.767 303.493 286.376C302.897 286.985 302.424 287.709 302.101 288.505C301.778 289.302 301.612 290.155 301.612 291.017V291.23L315.727 291.234H318.102V284.455H316.664Z" fill="#5E5E66"/>
<path d="M309.019 178.173L313.32 219.971C313.32 219.971 319.046 261.822 317.971 267.597C316.896 273.372 318.24 274.197 318.24 274.197L308.428 273.482C308.428 273.482 308.697 269.907 307.084 268.257C305.471 266.607 306.278 261.658 306.278 261.658L287.244 193.572L275.685 229.32C275.685 229.32 282.988 258.31 282.719 258.86C282.45 259.41 287.345 271.481 287.345 271.481L276.392 275.196C276.392 275.196 277.737 270.796 275.855 269.421C273.973 268.046 272.36 269.146 273.973 266.671C275.586 264.196 261.265 246.021 261.58 234.307C261.674 230.784 261.789 227.003 261.927 223.129C262.655 202.632 264.03 179.535 266.545 178.173C271.115 175.698 309.019 178.173 309.019 178.173Z" fill="#5E5E66"/>
<path d="M288.65 93.5429C294.492 93.5429 299.229 88.6979 299.229 82.7213C299.229 76.7447 294.492 71.8997 288.65 71.8997C282.807 71.8997 278.071 76.7447 278.071 82.7213C278.071 88.6979 282.807 93.5429 288.65 93.5429Z" fill="#FFB8B8"/>
<path d="M323.973 148.825L309.608 152.555L309.708 148.43L308.617 147.247L306.439 135.574L304.126 105.353L312.064 109.66L312.074 109.668C313.46 111.227 314.619 112.983 315.516 114.881C318.508 121.104 321.383 134.811 322.888 142.772C322.939 142.939 323.039 143.087 323.174 143.194C323.921 143.895 324.408 144.838 324.553 145.864C324.699 146.89 324.494 147.936 323.973 148.825V148.825Z" fill="#3E7BFA"/>
<path d="M239.083 162.198C239.083 162.198 258.911 140.815 259.096 140.412C260.481 129.652 264.465 124.906 265.062 125.422L275.344 129.065C275.344 129.065 272.285 138.972 270.215 144.856C268.236 150.479 245.432 164.213 245.052 164.891C245.46 165.814 245.585 166.842 245.41 167.839C245.235 168.836 244.769 169.755 244.072 170.475C243.375 171.195 242.481 171.682 241.508 171.87C240.535 172.059 239.529 171.941 238.623 171.533C237.716 171.124 236.953 170.443 236.433 169.581C235.914 168.718 235.662 167.715 235.712 166.703C235.762 165.691 236.111 164.719 236.713 163.915C237.315 163.11 238.141 162.512 239.083 162.198Z" fill="#FFB8B8"/>
<path d="M280.283 107.3C280.283 107.3 271.381 102.837 267.928 111.602C266.035 116.551 261.194 128.56 258.782 135.953C258.766 136 258.743 136.045 258.716 136.086C258.071 137.066 257.722 138.22 257.715 139.402C257.716 139.488 257.707 139.574 257.689 139.658C257.689 139.658 267.471 141.608 270.381 146.853L271.535 145.572L271.74 144.674L280.283 107.3Z" fill="#3E7BFA"/>
<path d="M312.675 182.729C292.188 187.057 265.037 179.616 265.037 179.616L272.28 147.5L269.705 113.891C269.39 109.781 271.679 105.929 275.239 104.564L280.155 102.68L284.218 96.7295L295.825 97.1191L300.464 103.366L304.126 105.353L312.064 109.66L312.099 109.678V109.696L309.608 134.413L308.106 149.316C308.106 149.316 312.668 166.078 311.732 168.301C310.796 170.52 311.61 169.448 311.837 170.634C312.064 171.821 312.759 171.896 312.864 174.233C312.972 176.567 312.675 182.729 312.675 182.729Z" fill="#3E7BFA"/>
<path d="M300.126 78.8678C299.29 78.0242 300.549 75.7907 300.311 74.6142C300.038 73.2654 298.585 73.2259 298.239 71.895C297.866 70.4633 296.374 69.6838 294.995 69.2301C291.461 68.0732 287.689 67.8965 284.066 68.718C282.463 69.1185 280.884 69.616 279.338 70.2079C278.271 70.5921 279.3 69.5467 278.233 69.9308C277.829 70.0229 277.472 70.2649 277.232 70.6099C277.04 70.981 277.299 71.5744 277.703 71.4992C276.4 72.0869 275.097 72.6746 273.794 73.2623C274.525 74.0452 275.256 74.8282 275.986 75.6112C274.948 75.3088 273.84 76.5756 274.25 77.5978C274.415 77.9205 274.654 78.1973 274.946 78.4045C275.239 78.6117 275.576 78.7431 275.93 78.7872C277.103 79.0208 276.213 80.1632 277.408 80.141C278.604 80.1187 286.939 77.6123 287.52 78.681C287.934 79.4421 287.888 80.4501 288.479 81.0771C289.235 81.8793 290.555 81.5859 291.517 81.0637C292.479 80.5414 293.455 79.8237 294.537 79.9489C295.667 80.0796 296.522 82.2156 296.8 83.3435C297.079 84.4713 296.903 85.6581 296.726 86.8072C296.493 88.3163 294.164 89.8253 293.931 91.3344C296.516 92.0656 299.289 89.7391 300.311 85.6933C300.209 83.1358 301.907 80.6656 300.126 78.8678Z" fill="#5E5E66"/>
<path d="M229.153 181.472C235.489 181.472 240.626 176.217 240.626 169.735C240.626 163.253 235.489 157.999 229.153 157.999C222.816 157.999 217.679 163.253 217.679 169.735C217.679 176.217 222.816 181.472 229.153 181.472Z" fill="#3E7BFA"/>
<path d="M227.587 175.844C227.389 175.844 227.194 175.797 227.017 175.706C226.839 175.615 226.685 175.484 226.566 175.322L223.436 171.052C223.336 170.915 223.262 170.759 223.221 170.593C223.179 170.427 223.17 170.254 223.194 170.084C223.217 169.915 223.274 169.751 223.359 169.604C223.444 169.456 223.557 169.327 223.691 169.224C223.826 169.122 223.978 169.047 224.14 169.004C224.303 168.962 224.472 168.952 224.638 168.977C224.804 169.001 224.963 169.058 225.107 169.146C225.252 169.233 225.378 169.348 225.478 169.486L227.526 172.279L232.786 164.208C232.879 164.065 232.998 163.943 233.138 163.847C233.277 163.751 233.433 163.685 233.598 163.651C233.762 163.617 233.931 163.617 234.096 163.65C234.261 163.684 234.417 163.75 234.557 163.845C234.696 163.94 234.816 164.062 234.909 164.205C235.003 164.348 235.068 164.508 235.1 164.676C235.133 164.844 235.133 165.017 235.101 165.186C235.068 165.354 235.003 165.514 234.91 165.657L228.649 175.262C228.536 175.436 228.384 175.58 228.205 175.681C228.027 175.782 227.827 175.838 227.623 175.843C227.611 175.844 227.599 175.844 227.587 175.844Z" fill="white"/>
<path d="M352.762 291.531C352.762 291.592 352.75 291.653 352.727 291.71C352.704 291.768 352.671 291.819 352.628 291.863C352.585 291.907 352.535 291.941 352.479 291.965C352.423 291.988 352.363 292 352.303 292H244.236C244.114 292 243.998 291.951 243.911 291.863C243.825 291.775 243.777 291.655 243.777 291.531C243.777 291.406 243.825 291.287 243.911 291.199C243.998 291.111 244.114 291.061 244.236 291.061H352.303C352.363 291.061 352.423 291.073 352.479 291.097C352.535 291.12 352.585 291.155 352.628 291.198C352.671 291.242 352.704 291.294 352.727 291.351C352.75 291.408 352.762 291.469 352.762 291.531Z" fill="#CCCCCC"/>
</g>
<defs>
<clipPath id="clip0_837_985">
<rect width="355" height="292" fill="white"/>
</clipPath>
</defs>
</svg>
