<svg width="1484" height="479" viewBox="0 0 1484 479" fill="none" xmlns="http://www.w3.org/2000/svg">
<g filter="url(#filter0_d_1055_1268)">
<path d="M311.727 101.687C337.658 126.468 353.71 172.233 345.772 211.403C337.658 250.773 305.553 283.748 267.274 306.33C228.819 328.913 184.366 341.104 159.493 321.719C134.621 302.334 129.682 251.572 130.564 212.003C131.446 172.233 138.325 143.855 153.319 121.672C168.313 99.689 191.245 83.9011 220.704 78.3054C249.987 72.5098 285.796 76.7066 311.727 101.687Z" fill="#F63B89"/>
</g>
<g opacity="0.5" filter="url(#filter1_d_1055_1268)">
<path d="M349.662 112.865C368.018 125.665 360.941 161.686 360.941 197.524C360.941 233.545 368.018 269.383 349.884 296.81C331.529 324.054 288.184 342.887 257.887 331.734C227.811 320.763 210.783 280.171 181.371 252.744C151.959 225.499 109.941 211.42 94.2396 184.542C78.5383 157.663 89.1533 117.619 118.566 104.82C147.978 92.0208 196.409 106.283 242.186 108.294C287.963 110.306 331.529 100.066 349.662 112.865Z" fill="#00C2FF"/>
</g>
<mask id="mask0_1055_1268" style="mask-type:alpha" maskUnits="userSpaceOnUse" x="130" y="76" width="218" height="256">
<path d="M311.727 101.687C337.658 126.468 353.71 172.233 345.772 211.403C337.658 250.773 305.553 283.748 267.274 306.33C228.819 328.913 184.366 341.104 159.493 321.719C134.621 302.334 129.682 251.572 130.564 212.003C131.446 172.233 138.325 143.855 153.319 121.672C168.313 99.689 191.245 83.9011 220.704 78.3054C249.987 72.5098 285.796 76.7066 311.727 101.687Z" fill="white"/>
</mask>
<g mask="url(#mask0_1055_1268)">
<path d="M349.662 112.865C368.018 125.665 360.941 161.686 360.941 197.524C360.941 233.545 368.018 269.383 349.884 296.81C331.529 324.054 288.184 342.887 257.887 331.734C227.811 320.763 210.783 280.171 181.371 252.744C151.959 225.499 109.941 211.42 94.2396 184.542C78.5383 157.663 89.1533 117.619 118.566 104.82C147.978 92.0208 196.409 106.283 242.186 108.294C287.963 110.306 331.529 100.066 349.662 112.865Z" fill="#4B80AC"/>
</g>
<g filter="url(#filter2_d_1055_1268)">
<rect x="13" y="7" width="453" height="453" rx="101.155" fill="white"/>
<rect x="13" y="7" width="453" height="453" rx="101.155" fill="url(#paint0_linear_1055_1268)" fill-opacity="0.2"/>
</g>
<g filter="url(#filter3_d_1055_1268)">
<path d="M315.727 121.687C341.658 146.468 357.71 192.233 349.772 231.403C341.658 270.773 309.553 303.748 271.274 326.33C232.819 348.913 188.366 361.104 163.493 341.719C138.621 322.334 133.682 271.572 134.564 232.003C135.446 192.233 142.325 163.855 157.319 141.672C172.313 119.689 195.245 103.901 224.704 98.3054C253.987 92.5098 289.796 96.7066 315.727 121.687Z" fill="#F63B89"/>
</g>
<g opacity="0.5" filter="url(#filter4_d_1055_1268)">
<path d="M353.662 132.865C372.018 145.665 364.941 181.686 364.941 217.524C364.941 253.545 372.018 289.383 353.884 316.81C335.529 344.054 292.184 362.887 261.887 351.734C231.811 340.763 214.783 300.171 185.371 272.744C155.959 245.499 113.941 231.42 98.2396 204.542C82.5383 177.663 93.1533 137.619 122.566 124.82C151.978 112.021 200.409 126.283 246.186 128.294C291.963 130.306 335.529 120.066 353.662 132.865Z" fill="#00C2FF"/>
</g>
<mask id="mask1_1055_1268" style="mask-type:alpha" maskUnits="userSpaceOnUse" x="134" y="96" width="218" height="256">
<path d="M315.727 121.687C341.658 146.468 357.71 192.233 349.772 231.403C341.658 270.773 309.553 303.748 271.274 326.33C232.819 348.913 188.366 361.104 163.493 341.719C138.621 322.334 133.682 271.572 134.564 232.003C135.446 192.233 142.325 163.855 157.319 141.672C172.313 119.689 195.245 103.901 224.704 98.3054C253.987 92.5098 289.796 96.7066 315.727 121.687Z" fill="white"/>
</mask>
<g mask="url(#mask1_1055_1268)">
<path d="M353.662 132.865C372.018 145.665 364.941 181.686 364.941 217.524C364.941 253.545 372.018 289.383 353.884 316.81C335.529 344.054 292.184 362.887 261.887 351.734C231.811 340.763 214.783 300.171 185.371 272.744C155.959 245.499 113.941 231.42 98.2396 204.542C82.5383 177.663 93.1533 137.619 122.566 124.82C151.978 112.021 200.409 126.283 246.186 128.294C291.963 130.306 335.529 120.066 353.662 132.865Z" fill="#4B80AC"/>
</g>
<path d="M571.624 269H664.544V243.697H602.314V123.842H571.624V269ZM684.302 269H714.495V160.132H684.302V269ZM699.469 146.098C708.471 146.098 715.842 139.223 715.842 130.788C715.842 122.425 708.471 115.55 699.469 115.55C690.539 115.55 683.167 122.425 683.167 130.788C683.167 139.223 690.539 146.098 699.469 146.098ZM768.876 206.061C768.947 192.027 777.311 183.805 789.502 183.805C801.622 183.805 808.922 191.743 808.852 205.068V269H839.045V199.682C839.045 174.307 824.161 158.714 801.48 158.714C785.32 158.714 773.625 166.652 768.735 179.34H767.459V160.132H738.683V269H768.876V206.061ZM912.457 271.126C939.391 271.126 957.535 258.014 961.788 237.814L933.862 235.971C930.814 244.264 923.018 248.587 912.953 248.587C897.856 248.587 888.288 238.593 888.288 222.362V222.292H962.426V213.999C962.426 177.001 940.029 158.714 911.252 158.714C879.215 158.714 858.448 181.466 858.448 215.062C858.448 249.579 878.932 271.126 912.457 271.126ZM888.288 203.58C888.926 191.176 898.352 181.253 911.748 181.253C924.861 181.253 933.933 190.609 934.004 203.58H888.288ZM982.13 269H1012.32V207.407C1012.32 194.011 1022.11 184.797 1035.43 184.797C1039.61 184.797 1045.35 185.506 1048.19 186.427V159.636C1045.49 158.998 1041.74 158.572 1038.69 158.572C1026.5 158.572 1016.51 165.66 1012.54 179.127H1011.4V160.132H982.13V269ZM1068.97 270.843C1078.05 270.843 1085.91 263.259 1085.98 253.832C1085.91 244.547 1078.05 236.963 1068.97 236.963C1059.62 236.963 1051.89 244.547 1051.96 253.832C1051.89 263.259 1059.62 270.843 1068.97 270.843ZM1141.82 271.055C1157.91 271.055 1168.33 264.039 1173.64 253.903H1174.49V269H1203.13V195.571C1203.13 169.629 1181.15 158.714 1156.91 158.714C1130.83 158.714 1113.68 171.189 1109.5 191.034L1137.42 193.303C1139.48 186.073 1145.93 180.757 1156.77 180.757C1167.05 180.757 1172.93 185.931 1172.93 194.862V195.287C1172.93 202.304 1165.49 203.225 1146.57 205.068C1125.02 207.053 1105.67 214.282 1105.67 238.593C1105.67 260.14 1121.05 271.055 1141.82 271.055ZM1150.46 250.217C1141.18 250.217 1134.52 245.894 1134.52 237.601C1134.52 229.096 1141.53 224.914 1152.17 223.426C1158.76 222.504 1169.53 220.945 1173.15 218.535V230.088C1173.15 241.499 1163.72 250.217 1150.46 250.217ZM1226.55 269H1256.75V160.132H1226.55V269ZM1241.72 146.098C1250.72 146.098 1258.09 139.223 1258.09 130.788C1258.09 122.425 1250.72 115.55 1241.72 115.55C1232.79 115.55 1225.42 122.425 1225.42 130.788C1225.42 139.223 1232.79 146.098 1241.72 146.098Z" fill="url(#paint1_radial_1055_1268)"/>
<defs>
<filter id="filter0_d_1055_1268" x="102.525" y="42" width="291.343" height="329.378" filterUnits="userSpaceOnUse" color-interpolation-filters="sRGB">
<feFlood flood-opacity="0" result="BackgroundImageFix"/>
<feColorMatrix in="SourceAlpha" type="matrix" values="0 0 0 0 0 0 0 0 0 0 0 0 0 0 0 0 0 0 127 0" result="hardAlpha"/>
<feOffset dx="9.05594" dy="3"/>
<feGaussianBlur stdDeviation="18.5"/>
<feColorMatrix type="matrix" values="0 0 0 0 0 0 0 0 0 0 0 0 0 0 0 0 0 0 0.2 0"/>
<feBlend mode="normal" in2="BackgroundImageFix" result="effect1_dropShadow_1055_1268"/>
<feBlend mode="normal" in="SourceGraphic" in2="effect1_dropShadow_1055_1268" result="shape"/>
</filter>
<filter id="filter1_d_1055_1268" x="72.5105" y="90.4895" width="322.392" height="282.545" filterUnits="userSpaceOnUse" color-interpolation-filters="sRGB">
<feFlood flood-opacity="0" result="BackgroundImageFix"/>
<feColorMatrix in="SourceAlpha" type="matrix" values="0 0 0 0 0 0 0 0 0 0 0 0 0 0 0 0 0 0 127 0" result="hardAlpha"/>
<feOffset dx="9.05594" dy="14.4895"/>
<feGaussianBlur stdDeviation="11.7727"/>
<feColorMatrix type="matrix" values="0 0 0 0 0 0 0 0 0 0 0 0 0 0 0 0 0 0 0.25 0"/>
<feBlend mode="normal" in2="BackgroundImageFix" result="effect1_dropShadow_1055_1268"/>
<feBlend mode="normal" in="SourceGraphic" in2="effect1_dropShadow_1055_1268" result="shape"/>
</filter>
<filter id="filter2_d_1055_1268" x="0.90534" y="0.95267" width="477.189" height="477.189" filterUnits="userSpaceOnUse" color-interpolation-filters="sRGB">
<feFlood flood-opacity="0" result="BackgroundImageFix"/>
<feColorMatrix in="SourceAlpha" type="matrix" values="0 0 0 0 0 0 0 0 0 0 0 0 0 0 0 0 0 0 127 0" result="hardAlpha"/>
<feOffset dy="6.04733"/>
<feGaussianBlur stdDeviation="6.04733"/>
<feColorMatrix type="matrix" values="0 0 0 0 0 0 0 0 0 0 0 0 0 0 0 0 0 0 0.28 0"/>
<feBlend mode="normal" in2="BackgroundImageFix" result="effect1_dropShadow_1055_1268"/>
<feBlend mode="normal" in="SourceGraphic" in2="effect1_dropShadow_1055_1268" result="shape"/>
</filter>
<filter id="filter3_d_1055_1268" x="106.525" y="62" width="291.343" height="329.378" filterUnits="userSpaceOnUse" color-interpolation-filters="sRGB">
<feFlood flood-opacity="0" result="BackgroundImageFix"/>
<feColorMatrix in="SourceAlpha" type="matrix" values="0 0 0 0 0 0 0 0 0 0 0 0 0 0 0 0 0 0 127 0" result="hardAlpha"/>
<feOffset dx="9.05594" dy="3"/>
<feGaussianBlur stdDeviation="18.5"/>
<feColorMatrix type="matrix" values="0 0 0 0 0 0 0 0 0 0 0 0 0 0 0 0 0 0 0.2 0"/>
<feBlend mode="normal" in2="BackgroundImageFix" result="effect1_dropShadow_1055_1268"/>
<feBlend mode="normal" in="SourceGraphic" in2="effect1_dropShadow_1055_1268" result="shape"/>
</filter>
<filter id="filter4_d_1055_1268" x="76.5105" y="110.489" width="322.392" height="282.545" filterUnits="userSpaceOnUse" color-interpolation-filters="sRGB">
<feFlood flood-opacity="0" result="BackgroundImageFix"/>
<feColorMatrix in="SourceAlpha" type="matrix" values="0 0 0 0 0 0 0 0 0 0 0 0 0 0 0 0 0 0 127 0" result="hardAlpha"/>
<feOffset dx="9.05594" dy="14.4895"/>
<feGaussianBlur stdDeviation="11.7727"/>
<feColorMatrix type="matrix" values="0 0 0 0 0 0 0 0 0 0 0 0 0 0 0 0 0 0 0.25 0"/>
<feBlend mode="normal" in2="BackgroundImageFix" result="effect1_dropShadow_1055_1268"/>
<feBlend mode="normal" in="SourceGraphic" in2="effect1_dropShadow_1055_1268" result="shape"/>
</filter>
<linearGradient id="paint0_linear_1055_1268" x1="239.5" y1="7" x2="239.5" y2="460" gradientUnits="userSpaceOnUse">
<stop stop-opacity="0"/>
<stop offset="1" stop-opacity="0.2"/>
</linearGradient>
<radialGradient id="paint1_radial_1055_1268" cx="0" cy="0" r="1" gradientUnits="userSpaceOnUse" gradientTransform="translate(834.663 252.551) rotate(50.8164) scale(274.663 960.385)">
<stop stop-color="#2098FF"/>
<stop offset="1" stop-color="#FF4493"/>
</radialGradient>
</defs>
</svg>
