<svg width="1014" height="287" viewBox="0 0 1014 287" fill="none" xmlns="http://www.w3.org/2000/svg">
<path d="M357.818 138H333.068V68.1818H358.023C365.045 68.1818 371.091 69.5795 376.159 72.375C381.227 75.1477 385.125 79.1364 387.852 84.3409C390.602 89.5455 391.977 95.7727 391.977 103.023C391.977 110.295 390.602 116.545 387.852 121.773C385.125 127 381.205 131.011 376.091 133.807C371 136.602 364.909 138 357.818 138ZM347.83 125.352H357.205C361.568 125.352 365.239 124.58 368.216 123.034C371.216 121.466 373.466 119.045 374.966 115.773C376.489 112.477 377.25 108.227 377.25 103.023C377.25 97.8636 376.489 93.6477 374.966 90.375C373.466 87.1023 371.227 84.6932 368.25 83.1477C365.273 81.6023 361.602 80.8295 357.239 80.8295H347.83V125.352ZM402.639 138V85.6364H417.162V138H402.639ZM409.935 78.8864C407.776 78.8864 405.923 78.1705 404.378 76.7386C402.855 75.2841 402.094 73.5455 402.094 71.5227C402.094 69.5227 402.855 67.8068 404.378 66.375C405.923 64.9205 407.776 64.1932 409.935 64.1932C412.094 64.1932 413.935 64.9205 415.457 66.375C417.003 67.8068 417.776 69.5227 417.776 71.5227C417.776 73.5455 417.003 75.2841 415.457 76.7386C413.935 78.1705 412.094 78.8864 409.935 78.8864ZM456.955 85.6364V96.5455H424.636V85.6364H456.955ZM432.034 138V81.8523C432.034 78.0568 432.773 74.9091 434.25 72.4091C435.75 69.9091 437.795 68.0341 440.386 66.7841C442.977 65.5341 445.92 64.9091 449.216 64.9091C451.443 64.9091 453.477 65.0795 455.318 65.4205C457.182 65.7614 458.568 66.0682 459.477 66.3409L456.886 77.25C456.318 77.0682 455.614 76.8977 454.773 76.7386C453.955 76.5795 453.114 76.5 452.25 76.5C450.114 76.5 448.625 77 447.784 78C446.943 78.9773 446.523 80.3523 446.523 82.125V138H432.034ZM493.986 85.6364V96.5455H461.668V85.6364H493.986ZM469.065 138V81.8523C469.065 78.0568 469.804 74.9091 471.281 72.4091C472.781 69.9091 474.827 68.0341 477.418 66.7841C480.009 65.5341 482.952 64.9091 486.247 64.9091C488.474 64.9091 490.509 65.0795 492.349 65.4205C494.213 65.7614 495.599 66.0682 496.509 66.3409L493.918 77.25C493.349 77.0682 492.645 76.8977 491.804 76.7386C490.986 76.5795 490.145 76.5 489.281 76.5C487.145 76.5 485.656 77 484.815 78C483.974 78.9773 483.554 80.3523 483.554 82.125V138H469.065ZM536.438 115.705V85.6364H550.96V138H537.017V128.489H536.472C535.29 131.557 533.324 134.023 530.574 135.886C527.847 137.75 524.517 138.682 520.585 138.682C517.085 138.682 514.006 137.886 511.347 136.295C508.688 134.705 506.608 132.443 505.108 129.511C503.631 126.58 502.881 123.068 502.858 118.977V85.6364H517.381V116.386C517.403 119.477 518.233 121.92 519.869 123.716C521.506 125.511 523.699 126.409 526.449 126.409C528.199 126.409 529.835 126.011 531.358 125.216C532.881 124.398 534.108 123.193 535.04 121.602C535.994 120.011 536.46 118.045 536.438 115.705ZM606.145 100.568L592.849 101.386C592.622 100.25 592.134 99.2273 591.384 98.3182C590.634 97.3864 589.645 96.6477 588.418 96.1023C587.213 95.5341 585.77 95.25 584.088 95.25C581.838 95.25 579.94 95.7273 578.395 96.6818C576.849 97.6136 576.077 98.8636 576.077 100.432C576.077 101.682 576.577 102.739 577.577 103.602C578.577 104.466 580.293 105.159 582.724 105.682L592.202 107.591C597.293 108.636 601.088 110.318 603.588 112.636C606.088 114.955 607.338 118 607.338 121.773C607.338 125.205 606.327 128.216 604.304 130.807C602.304 133.398 599.554 135.42 596.054 136.875C592.577 138.307 588.565 139.023 584.02 139.023C577.088 139.023 571.565 137.58 567.452 134.693C563.361 131.784 560.963 127.83 560.259 122.83L574.543 122.08C574.974 124.193 576.02 125.807 577.679 126.92C579.338 128.011 581.463 128.557 584.054 128.557C586.599 128.557 588.645 128.068 590.19 127.091C591.759 126.091 592.554 124.807 592.577 123.239C592.554 121.92 591.997 120.841 590.906 120C589.815 119.136 588.134 118.477 585.861 118.023L576.793 116.216C571.679 115.193 567.872 113.42 565.372 110.898C562.895 108.375 561.656 105.159 561.656 101.25C561.656 97.8864 562.565 94.9886 564.384 92.5568C566.224 90.125 568.804 88.25 572.122 86.9318C575.463 85.6136 579.372 84.9545 583.849 84.9545C590.463 84.9545 595.668 86.3523 599.463 89.1477C603.281 91.9432 605.509 95.75 606.145 100.568ZM616.483 138V85.6364H631.006V138H616.483ZM623.778 78.8864C621.619 78.8864 619.767 78.1705 618.222 76.7386C616.699 75.2841 615.938 73.5455 615.938 71.5227C615.938 69.5227 616.699 67.8068 618.222 66.375C619.767 64.9205 621.619 64.1932 623.778 64.1932C625.938 64.1932 627.778 64.9205 629.301 66.375C630.847 67.8068 631.619 69.5227 631.619 71.5227C631.619 73.5455 630.847 75.2841 629.301 76.7386C627.778 78.1705 625.938 78.8864 623.778 78.8864ZM666.298 139.023C661.003 139.023 656.423 137.898 652.56 135.648C648.719 133.375 645.753 130.216 643.662 126.17C641.571 122.102 640.526 117.386 640.526 112.023C640.526 106.614 641.571 101.886 643.662 97.8409C645.753 93.7727 648.719 90.6136 652.56 88.3636C656.423 86.0909 661.003 84.9545 666.298 84.9545C671.594 84.9545 676.162 86.0909 680.003 88.3636C683.866 90.6136 686.844 93.7727 688.935 97.8409C691.026 101.886 692.071 106.614 692.071 112.023C692.071 117.386 691.026 122.102 688.935 126.17C686.844 130.216 683.866 133.375 680.003 135.648C676.162 137.898 671.594 139.023 666.298 139.023ZM666.366 127.773C668.776 127.773 670.787 127.091 672.401 125.727C674.014 124.341 675.23 122.455 676.048 120.068C676.889 117.682 677.31 114.966 677.31 111.92C677.31 108.875 676.889 106.159 676.048 103.773C675.23 101.386 674.014 99.5 672.401 98.1136C670.787 96.7273 668.776 96.0341 666.366 96.0341C663.935 96.0341 661.889 96.7273 660.23 98.1136C658.594 99.5 657.355 101.386 656.514 103.773C655.696 106.159 655.287 108.875 655.287 111.92C655.287 114.966 655.696 117.682 656.514 120.068C657.355 122.455 658.594 124.341 660.23 125.727C661.889 127.091 663.935 127.773 666.366 127.773ZM716.037 107.727V138H701.514V85.6364H715.355V94.875H715.969C717.128 91.8295 719.071 89.4205 721.798 87.6477C724.526 85.8523 727.832 84.9545 731.719 84.9545C735.355 84.9545 738.526 85.75 741.23 87.3409C743.935 88.9318 746.037 91.2045 747.537 94.1591C749.037 97.0909 749.787 100.591 749.787 104.659V138H735.264V107.25C735.287 104.045 734.469 101.545 732.81 99.75C731.151 97.9318 728.866 97.0227 725.957 97.0227C724.003 97.0227 722.276 97.4432 720.776 98.2841C719.298 99.125 718.139 100.352 717.298 101.966C716.48 103.557 716.06 105.477 716.037 107.727ZM783.724 138V68.1818H811.679C816.815 68.1818 821.099 68.9432 824.531 70.4659C827.963 71.9886 830.543 74.1023 832.27 76.8068C833.997 79.4886 834.861 82.5795 834.861 86.0795C834.861 88.8068 834.315 91.2045 833.224 93.2727C832.134 95.3182 830.634 97 828.724 98.3182C826.838 99.6136 824.679 100.534 822.247 101.08V101.761C824.906 101.875 827.395 102.625 829.713 104.011C832.054 105.398 833.952 107.341 835.406 109.841C836.861 112.318 837.588 115.273 837.588 118.705C837.588 122.409 836.668 125.716 834.827 128.625C833.009 131.511 830.315 133.795 826.747 135.477C823.179 137.159 818.781 138 813.554 138H783.724ZM798.486 125.932H810.52C814.634 125.932 817.634 125.148 819.52 123.58C821.406 121.989 822.349 119.875 822.349 117.239C822.349 115.307 821.884 113.602 820.952 112.125C820.02 110.648 818.69 109.489 816.963 108.648C815.259 107.807 813.224 107.386 810.861 107.386H798.486V125.932ZM798.486 97.3977H809.429C811.452 97.3977 813.247 97.0455 814.815 96.3409C816.406 95.6136 817.656 94.5909 818.565 93.2727C819.497 91.9545 819.963 90.375 819.963 88.5341C819.963 86.0114 819.065 83.9773 817.27 82.4318C815.497 80.8864 812.974 80.1136 809.702 80.1136H798.486V97.3977ZM870.784 139.023C865.398 139.023 860.761 137.932 856.875 135.75C853.011 133.545 850.034 130.432 847.943 126.409C845.852 122.364 844.807 117.58 844.807 112.057C844.807 106.67 845.852 101.943 847.943 97.875C850.034 93.8068 852.977 90.6364 856.773 88.3636C860.591 86.0909 865.068 84.9545 870.205 84.9545C873.659 84.9545 876.875 85.5114 879.852 86.625C882.852 87.7159 885.466 89.3636 887.693 91.5682C889.943 93.7727 891.693 96.5455 892.943 99.8864C894.193 103.205 894.818 107.091 894.818 111.545V115.534H850.602V106.534H881.148C881.148 104.443 880.693 102.591 879.784 100.977C878.875 99.3636 877.614 98.1023 876 97.1932C874.409 96.2614 872.557 95.7955 870.443 95.7955C868.239 95.7955 866.284 96.3068 864.58 97.3295C862.898 98.3295 861.58 99.6818 860.625 101.386C859.67 103.068 859.182 104.943 859.159 107.011V115.568C859.159 118.159 859.636 120.398 860.591 122.284C861.568 124.17 862.943 125.625 864.716 126.648C866.489 127.67 868.591 128.182 871.023 128.182C872.636 128.182 874.114 127.955 875.455 127.5C876.795 127.045 877.943 126.364 878.898 125.455C879.852 124.545 880.58 123.432 881.08 122.114L894.511 123C893.83 126.227 892.432 129.045 890.318 131.455C888.227 133.841 885.523 135.705 882.205 137.045C878.909 138.364 875.102 139.023 870.784 139.023ZM928.159 139.023C922.773 139.023 918.136 137.932 914.25 135.75C910.386 133.545 907.409 130.432 905.318 126.409C903.227 122.364 902.182 117.58 902.182 112.057C902.182 106.67 903.227 101.943 905.318 97.875C907.409 93.8068 910.352 90.6364 914.148 88.3636C917.966 86.0909 922.443 84.9545 927.58 84.9545C931.034 84.9545 934.25 85.5114 937.227 86.625C940.227 87.7159 942.841 89.3636 945.068 91.5682C947.318 93.7727 949.068 96.5455 950.318 99.8864C951.568 103.205 952.193 107.091 952.193 111.545V115.534H907.977V106.534H938.523C938.523 104.443 938.068 102.591 937.159 100.977C936.25 99.3636 934.989 98.1023 933.375 97.1932C931.784 96.2614 929.932 95.7955 927.818 95.7955C925.614 95.7955 923.659 96.3068 921.955 97.3295C920.273 98.3295 918.955 99.6818 918 101.386C917.045 103.068 916.557 104.943 916.534 107.011V115.568C916.534 118.159 917.011 120.398 917.966 122.284C918.943 124.17 920.318 125.625 922.091 126.648C923.864 127.67 925.966 128.182 928.398 128.182C930.011 128.182 931.489 127.955 932.83 127.5C934.17 127.045 935.318 126.364 936.273 125.455C937.227 124.545 937.955 123.432 938.455 122.114L951.886 123C951.205 126.227 949.807 129.045 947.693 131.455C945.602 133.841 942.898 135.705 939.58 137.045C936.284 138.364 932.477 139.023 928.159 139.023Z" fill="url(#paint0_radial_1_65)"/>
<path d="M343.986 185.565C343.918 184.878 343.625 184.344 343.108 183.963C342.591 183.582 341.889 183.392 341.003 183.392C340.401 183.392 339.892 183.477 339.477 183.648C339.063 183.812 338.744 184.043 338.523 184.338C338.307 184.634 338.199 184.969 338.199 185.344C338.188 185.656 338.253 185.929 338.395 186.162C338.543 186.395 338.744 186.597 339 186.767C339.256 186.932 339.551 187.077 339.886 187.202C340.222 187.321 340.58 187.423 340.96 187.509L342.528 187.884C343.29 188.054 343.989 188.281 344.625 188.565C345.261 188.849 345.813 189.199 346.278 189.614C346.744 190.028 347.105 190.517 347.361 191.08C347.622 191.642 347.756 192.287 347.761 193.014C347.756 194.082 347.483 195.009 346.943 195.793C346.409 196.571 345.636 197.176 344.625 197.608C343.619 198.034 342.406 198.247 340.986 198.247C339.577 198.247 338.349 198.031 337.304 197.599C336.264 197.168 335.452 196.528 334.866 195.682C334.287 194.83 333.983 193.776 333.955 192.52H337.526C337.565 193.105 337.733 193.594 338.028 193.986C338.33 194.372 338.73 194.665 339.23 194.864C339.736 195.057 340.307 195.153 340.943 195.153C341.568 195.153 342.111 195.062 342.571 194.881C343.037 194.699 343.398 194.446 343.653 194.122C343.909 193.798 344.037 193.426 344.037 193.006C344.037 192.614 343.92 192.284 343.688 192.017C343.46 191.75 343.125 191.523 342.682 191.335C342.244 191.148 341.707 190.977 341.071 190.824L339.17 190.347C337.699 189.989 336.537 189.429 335.685 188.668C334.832 187.906 334.409 186.881 334.415 185.591C334.409 184.534 334.69 183.611 335.259 182.821C335.832 182.031 336.619 181.415 337.619 180.972C338.619 180.528 339.756 180.307 341.028 180.307C342.324 180.307 343.455 180.528 344.42 180.972C345.392 181.415 346.148 182.031 346.688 182.821C347.227 183.611 347.506 184.526 347.523 185.565H343.986ZM357.138 184.909V187.636H349.255V184.909H357.138ZM351.045 181.773H354.675V193.977C354.675 194.312 354.727 194.574 354.829 194.761C354.931 194.943 355.073 195.071 355.255 195.145C355.442 195.219 355.658 195.256 355.903 195.256C356.073 195.256 356.244 195.241 356.414 195.213C356.585 195.179 356.715 195.153 356.806 195.136L357.377 197.838C357.195 197.895 356.94 197.96 356.61 198.034C356.281 198.114 355.88 198.162 355.408 198.179C354.533 198.213 353.766 198.097 353.107 197.83C352.454 197.562 351.945 197.148 351.582 196.585C351.218 196.023 351.039 195.312 351.045 194.455V181.773ZM363.237 198.247C362.401 198.247 361.657 198.102 361.004 197.812C360.35 197.517 359.833 197.082 359.452 196.509C359.077 195.929 358.89 195.207 358.89 194.344C358.89 193.616 359.023 193.006 359.29 192.511C359.558 192.017 359.921 191.619 360.381 191.318C360.842 191.017 361.364 190.79 361.95 190.636C362.54 190.483 363.16 190.375 363.808 190.312C364.569 190.233 365.183 190.159 365.648 190.091C366.114 190.017 366.452 189.909 366.663 189.767C366.873 189.625 366.978 189.415 366.978 189.136V189.085C366.978 188.545 366.808 188.128 366.467 187.832C366.131 187.537 365.654 187.389 365.035 187.389C364.381 187.389 363.862 187.534 363.475 187.824C363.089 188.108 362.833 188.466 362.708 188.898L359.35 188.625C359.521 187.83 359.856 187.142 360.356 186.562C360.856 185.977 361.501 185.528 362.29 185.216C363.086 184.898 364.006 184.739 365.052 184.739C365.779 184.739 366.475 184.824 367.14 184.994C367.81 185.165 368.404 185.429 368.921 185.787C369.444 186.145 369.856 186.605 370.157 187.168C370.458 187.724 370.609 188.392 370.609 189.17V198H367.165V196.185H367.063C366.853 196.594 366.572 196.955 366.219 197.267C365.867 197.574 365.444 197.815 364.95 197.991C364.455 198.162 363.884 198.247 363.237 198.247ZM364.276 195.741C364.81 195.741 365.282 195.636 365.691 195.426C366.1 195.21 366.421 194.92 366.654 194.557C366.887 194.193 367.004 193.781 367.004 193.321V191.932C366.89 192.006 366.734 192.074 366.535 192.136C366.342 192.193 366.123 192.247 365.879 192.298C365.634 192.344 365.39 192.386 365.146 192.426C364.901 192.46 364.68 192.491 364.481 192.52C364.055 192.582 363.683 192.682 363.364 192.818C363.046 192.955 362.799 193.139 362.623 193.372C362.447 193.599 362.359 193.884 362.359 194.224C362.359 194.719 362.538 195.097 362.896 195.358C363.259 195.614 363.719 195.741 364.276 195.741ZM377.056 190.432V198H373.425V184.909H376.886V187.219H377.039C377.329 186.457 377.815 185.855 378.496 185.412C379.178 184.963 380.005 184.739 380.977 184.739C381.886 184.739 382.678 184.938 383.354 185.335C384.031 185.733 384.556 186.301 384.931 187.04C385.306 187.773 385.494 188.648 385.494 189.665V198H381.863V190.312C381.869 189.511 381.664 188.886 381.249 188.438C380.835 187.983 380.263 187.756 379.536 187.756C379.048 187.756 378.616 187.861 378.241 188.071C377.871 188.281 377.582 188.588 377.371 188.991C377.167 189.389 377.062 189.869 377.056 190.432ZM393.179 198.213C392.185 198.213 391.284 197.957 390.477 197.446C389.676 196.929 389.04 196.17 388.568 195.17C388.102 194.165 387.869 192.932 387.869 191.472C387.869 189.972 388.111 188.724 388.594 187.73C389.077 186.73 389.719 185.983 390.52 185.489C391.327 184.989 392.21 184.739 393.17 184.739C393.903 184.739 394.514 184.864 395.003 185.114C395.497 185.358 395.895 185.665 396.196 186.034C396.503 186.398 396.736 186.756 396.895 187.108H397.006V180.545H400.628V198H397.048V195.903H396.895C396.724 196.267 396.483 196.628 396.17 196.986C395.864 197.338 395.463 197.631 394.969 197.864C394.48 198.097 393.884 198.213 393.179 198.213ZM394.33 195.324C394.915 195.324 395.409 195.165 395.812 194.847C396.222 194.523 396.534 194.071 396.75 193.491C396.972 192.912 397.082 192.233 397.082 191.455C397.082 190.676 396.974 190 396.759 189.426C396.543 188.852 396.23 188.409 395.821 188.097C395.412 187.784 394.915 187.628 394.33 187.628C393.733 187.628 393.23 187.79 392.821 188.114C392.412 188.437 392.102 188.886 391.892 189.46C391.682 190.034 391.577 190.699 391.577 191.455C391.577 192.216 391.682 192.889 391.892 193.474C392.108 194.054 392.418 194.509 392.821 194.838C393.23 195.162 393.733 195.324 394.33 195.324ZM407.346 198.247C406.511 198.247 405.766 198.102 405.113 197.812C404.46 197.517 403.942 197.082 403.562 196.509C403.187 195.929 402.999 195.207 402.999 194.344C402.999 193.616 403.133 193.006 403.4 192.511C403.667 192.017 404.031 191.619 404.491 191.318C404.951 191.017 405.474 190.79 406.059 190.636C406.65 190.483 407.269 190.375 407.917 190.312C408.678 190.233 409.292 190.159 409.758 190.091C410.224 190.017 410.562 189.909 410.772 189.767C410.982 189.625 411.087 189.415 411.087 189.136V189.085C411.087 188.545 410.917 188.128 410.576 187.832C410.241 187.537 409.763 187.389 409.144 187.389C408.491 187.389 407.971 187.534 407.585 187.824C407.198 188.108 406.942 188.466 406.817 188.898L403.46 188.625C403.63 187.83 403.965 187.142 404.465 186.562C404.965 185.977 405.61 185.528 406.4 185.216C407.195 184.898 408.116 184.739 409.161 184.739C409.888 184.739 410.585 184.824 411.249 184.994C411.92 185.165 412.513 185.429 413.031 185.787C413.553 186.145 413.965 186.605 414.266 187.168C414.567 187.724 414.718 188.392 414.718 189.17V198H411.275V196.185H411.173C410.962 196.594 410.681 196.955 410.329 197.267C409.977 197.574 409.553 197.815 409.059 197.991C408.565 198.162 407.994 198.247 407.346 198.247ZM408.386 195.741C408.92 195.741 409.391 195.636 409.8 195.426C410.21 195.21 410.531 194.92 410.763 194.557C410.996 194.193 411.113 193.781 411.113 193.321V191.932C410.999 192.006 410.843 192.074 410.644 192.136C410.451 192.193 410.232 192.247 409.988 192.298C409.744 192.344 409.499 192.386 409.255 192.426C409.011 192.46 408.789 192.491 408.59 192.52C408.164 192.582 407.792 192.682 407.474 192.818C407.156 192.955 406.908 193.139 406.732 193.372C406.556 193.599 406.468 193.884 406.468 194.224C406.468 194.719 406.647 195.097 407.005 195.358C407.369 195.614 407.829 195.741 408.386 195.741ZM421.165 180.545V198H417.535V180.545H421.165ZM429.989 198.256C428.665 198.256 427.52 197.974 426.554 197.412C425.594 196.844 424.852 196.054 424.33 195.043C423.807 194.026 423.545 192.847 423.545 191.506C423.545 190.153 423.807 188.972 424.33 187.96C424.852 186.943 425.594 186.153 426.554 185.591C427.52 185.023 428.665 184.739 429.989 184.739C431.312 184.739 432.455 185.023 433.415 185.591C434.381 186.153 435.125 186.943 435.648 187.96C436.17 188.972 436.432 190.153 436.432 191.506C436.432 192.847 436.17 194.026 435.648 195.043C435.125 196.054 434.381 196.844 433.415 197.412C432.455 197.974 431.312 198.256 429.989 198.256ZM430.006 195.443C430.608 195.443 431.111 195.273 431.514 194.932C431.918 194.585 432.222 194.114 432.426 193.517C432.636 192.92 432.741 192.241 432.741 191.48C432.741 190.719 432.636 190.04 432.426 189.443C432.222 188.847 431.918 188.375 431.514 188.028C431.111 187.682 430.608 187.509 430.006 187.509C429.398 187.509 428.886 187.682 428.472 188.028C428.063 188.375 427.753 188.847 427.543 189.443C427.338 190.04 427.236 190.719 427.236 191.48C427.236 192.241 427.338 192.92 427.543 193.517C427.753 194.114 428.063 194.585 428.472 194.932C428.886 195.273 429.398 195.443 430.006 195.443ZM442.423 190.432V198H438.793V184.909H442.253V187.219H442.406C442.696 186.457 443.182 185.855 443.864 185.412C444.545 184.963 445.372 184.739 446.344 184.739C447.253 184.739 448.045 184.938 448.722 185.335C449.398 185.733 449.923 186.301 450.298 187.04C450.673 187.773 450.861 188.648 450.861 189.665V198H447.23V190.312C447.236 189.511 447.031 188.886 446.616 188.438C446.202 187.983 445.631 187.756 444.903 187.756C444.415 187.756 443.983 187.861 443.608 188.071C443.239 188.281 442.949 188.588 442.739 188.991C442.534 189.389 442.429 189.869 442.423 190.432ZM459.688 198.256C458.342 198.256 457.183 197.983 456.211 197.438C455.245 196.886 454.501 196.108 453.978 195.102C453.455 194.091 453.194 192.895 453.194 191.514C453.194 190.168 453.455 188.986 453.978 187.969C454.501 186.952 455.237 186.159 456.185 185.591C457.14 185.023 458.259 184.739 459.543 184.739C460.407 184.739 461.211 184.878 461.955 185.156C462.705 185.429 463.359 185.841 463.915 186.392C464.478 186.943 464.915 187.636 465.228 188.472C465.54 189.301 465.697 190.273 465.697 191.386V192.384H454.643V190.134H462.279C462.279 189.611 462.165 189.148 461.938 188.744C461.711 188.341 461.396 188.026 460.992 187.798C460.594 187.565 460.131 187.449 459.603 187.449C459.052 187.449 458.563 187.577 458.137 187.832C457.717 188.082 457.387 188.42 457.148 188.847C456.91 189.267 456.788 189.736 456.782 190.253V192.392C456.782 193.04 456.901 193.599 457.14 194.071C457.384 194.543 457.728 194.906 458.171 195.162C458.614 195.418 459.14 195.545 459.748 195.545C460.151 195.545 460.521 195.489 460.856 195.375C461.191 195.261 461.478 195.091 461.717 194.864C461.955 194.636 462.137 194.358 462.262 194.028L465.62 194.25C465.45 195.057 465.1 195.761 464.572 196.364C464.049 196.96 463.373 197.426 462.543 197.761C461.719 198.091 460.768 198.256 459.688 198.256ZM479.876 198H473.689V180.545H479.928C481.683 180.545 483.195 180.895 484.462 181.594C485.729 182.287 486.703 183.284 487.385 184.585C488.072 185.886 488.416 187.443 488.416 189.256C488.416 191.074 488.072 192.636 487.385 193.943C486.703 195.25 485.723 196.253 484.445 196.952C483.172 197.651 481.649 198 479.876 198ZM477.379 194.838H479.723C480.814 194.838 481.732 194.645 482.476 194.259C483.226 193.866 483.788 193.261 484.163 192.443C484.544 191.619 484.734 190.557 484.734 189.256C484.734 187.966 484.544 186.912 484.163 186.094C483.788 185.276 483.229 184.673 482.484 184.287C481.74 183.901 480.822 183.707 479.732 183.707H477.379V194.838ZM497.048 198.256C495.701 198.256 494.542 197.983 493.57 197.438C492.604 196.886 491.86 196.108 491.337 195.102C490.815 194.091 490.553 192.895 490.553 191.514C490.553 190.168 490.815 188.986 491.337 187.969C491.86 186.952 492.596 186.159 493.545 185.591C494.499 185.023 495.619 184.739 496.903 184.739C497.766 184.739 498.57 184.878 499.315 185.156C500.065 185.429 500.718 185.841 501.275 186.392C501.837 186.943 502.275 187.636 502.587 188.472C502.9 189.301 503.056 190.273 503.056 191.386V192.384H492.002V190.134H499.638C499.638 189.611 499.525 189.148 499.298 188.744C499.07 188.341 498.755 188.026 498.352 187.798C497.954 187.565 497.491 187.449 496.962 187.449C496.411 187.449 495.923 187.577 495.496 187.832C495.076 188.082 494.746 188.42 494.508 188.847C494.269 189.267 494.147 189.736 494.141 190.253V192.392C494.141 193.04 494.261 193.599 494.499 194.071C494.744 194.543 495.087 194.906 495.531 195.162C495.974 195.418 496.499 195.545 497.107 195.545C497.511 195.545 497.88 195.489 498.215 195.375C498.55 195.261 498.837 195.091 499.076 194.864C499.315 194.636 499.496 194.358 499.621 194.028L502.979 194.25C502.809 195.057 502.46 195.761 501.931 196.364C501.408 196.96 500.732 197.426 499.903 197.761C499.079 198.091 498.127 198.256 497.048 198.256ZM516.317 188.642L512.994 188.847C512.937 188.562 512.815 188.307 512.627 188.08C512.44 187.847 512.192 187.662 511.886 187.526C511.585 187.384 511.224 187.312 510.803 187.312C510.241 187.312 509.766 187.432 509.38 187.67C508.994 187.903 508.8 188.216 508.8 188.608C508.8 188.92 508.925 189.185 509.175 189.401C509.425 189.616 509.854 189.79 510.462 189.92L512.832 190.398C514.104 190.659 515.053 191.08 515.678 191.659C516.303 192.239 516.616 193 516.616 193.943C516.616 194.801 516.363 195.554 515.857 196.202C515.357 196.849 514.67 197.355 513.795 197.719C512.925 198.077 511.923 198.256 510.786 198.256C509.053 198.256 507.673 197.895 506.644 197.173C505.621 196.446 505.022 195.457 504.846 194.207L508.417 194.02C508.525 194.548 508.786 194.952 509.201 195.23C509.616 195.503 510.147 195.639 510.795 195.639C511.431 195.639 511.942 195.517 512.329 195.273C512.721 195.023 512.92 194.702 512.925 194.31C512.92 193.98 512.781 193.71 512.508 193.5C512.235 193.284 511.815 193.119 511.246 193.006L508.979 192.554C507.701 192.298 506.749 191.855 506.124 191.224C505.505 190.594 505.195 189.79 505.195 188.812C505.195 187.972 505.423 187.247 505.877 186.639C506.337 186.031 506.982 185.562 507.812 185.233C508.647 184.903 509.624 184.739 510.744 184.739C512.397 184.739 513.698 185.088 514.647 185.787C515.602 186.486 516.158 187.437 516.317 188.642ZM522.192 194.233L522.2 189.878H522.729L526.922 184.909H531.089L525.456 191.489H524.595L522.192 194.233ZM518.902 198V180.545H522.533V198H518.902ZM527.084 198L523.232 192.298L525.652 189.733L531.337 198H527.084ZM539.834 184.909V187.636H531.95V184.909H539.834ZM533.74 181.773H537.371V193.977C537.371 194.312 537.422 194.574 537.524 194.761C537.626 194.943 537.768 195.071 537.95 195.145C538.138 195.219 538.354 195.256 538.598 195.256C538.768 195.256 538.939 195.241 539.109 195.213C539.28 195.179 539.411 195.153 539.501 195.136L540.072 197.838C539.891 197.895 539.635 197.96 539.305 198.034C538.976 198.114 538.575 198.162 538.104 198.179C537.229 198.213 536.462 198.097 535.803 197.83C535.149 197.562 534.641 197.148 534.277 196.585C533.913 196.023 533.734 195.312 533.74 194.455V181.773ZM547.973 198.256C546.649 198.256 545.504 197.974 544.538 197.412C543.578 196.844 542.837 196.054 542.314 195.043C541.791 194.026 541.53 192.847 541.53 191.506C541.53 190.153 541.791 188.972 542.314 187.96C542.837 186.943 543.578 186.153 544.538 185.591C545.504 185.023 546.649 184.739 547.973 184.739C549.297 184.739 550.439 185.023 551.399 185.591C552.365 186.153 553.109 186.943 553.632 187.96C554.155 188.972 554.416 190.153 554.416 191.506C554.416 192.847 554.155 194.026 553.632 195.043C553.109 196.054 552.365 196.844 551.399 197.412C550.439 197.974 549.297 198.256 547.973 198.256ZM547.99 195.443C548.592 195.443 549.095 195.273 549.499 194.932C549.902 194.585 550.206 194.114 550.411 193.517C550.621 192.92 550.726 192.241 550.726 191.48C550.726 190.719 550.621 190.04 550.411 189.443C550.206 188.847 549.902 188.375 549.499 188.028C549.095 187.682 548.592 187.509 547.99 187.509C547.382 187.509 546.871 187.682 546.456 188.028C546.047 188.375 545.737 188.847 545.527 189.443C545.322 190.04 545.22 190.719 545.22 191.48C545.22 192.241 545.322 192.92 545.527 193.517C545.737 194.114 546.047 194.585 546.456 194.932C546.871 195.273 547.382 195.443 547.99 195.443ZM556.777 202.909V184.909H560.357V187.108H560.518C560.678 186.756 560.908 186.398 561.209 186.034C561.516 185.665 561.913 185.358 562.402 185.114C562.896 184.864 563.51 184.739 564.243 184.739C565.197 184.739 566.078 184.989 566.885 185.489C567.692 185.983 568.337 186.73 568.82 187.73C569.303 188.724 569.544 189.972 569.544 191.472C569.544 192.932 569.308 194.165 568.837 195.17C568.371 196.17 567.734 196.929 566.928 197.446C566.126 197.957 565.229 198.213 564.234 198.213C563.53 198.213 562.93 198.097 562.436 197.864C561.947 197.631 561.547 197.338 561.234 196.986C560.922 196.628 560.683 196.267 560.518 195.903H560.408V202.909H556.777ZM560.331 191.455C560.331 192.233 560.439 192.912 560.655 193.491C560.871 194.071 561.183 194.523 561.592 194.847C562.001 195.165 562.499 195.324 563.084 195.324C563.675 195.324 564.175 195.162 564.584 194.838C564.993 194.509 565.303 194.054 565.513 193.474C565.729 192.889 565.837 192.216 565.837 191.455C565.837 190.699 565.732 190.034 565.521 189.46C565.311 188.886 565.001 188.437 564.592 188.114C564.183 187.79 563.68 187.628 563.084 187.628C562.493 187.628 561.993 187.784 561.584 188.097C561.18 188.409 560.871 188.852 560.655 189.426C560.439 190 560.331 190.676 560.331 191.455ZM580.596 198H576.641L582.667 180.545H587.423L593.44 198H589.485L585.113 184.534H584.977L580.596 198ZM580.349 191.139H589.69V194.02H580.349V191.139ZM595.472 202.909V184.909H599.052V187.108H599.214C599.373 186.756 599.603 186.398 599.904 186.034C600.211 185.665 600.609 185.358 601.097 185.114C601.592 184.864 602.205 184.739 602.938 184.739C603.893 184.739 604.773 184.989 605.58 185.489C606.387 185.983 607.032 186.73 607.515 187.73C607.998 188.724 608.239 189.972 608.239 191.472C608.239 192.932 608.004 194.165 607.532 195.17C607.066 196.17 606.43 196.929 605.623 197.446C604.822 197.957 603.924 198.213 602.93 198.213C602.225 198.213 601.626 198.097 601.131 197.864C600.643 197.631 600.242 197.338 599.93 196.986C599.617 196.628 599.379 196.267 599.214 195.903H599.103V202.909H595.472ZM599.026 191.455C599.026 192.233 599.134 192.912 599.35 193.491C599.566 194.071 599.879 194.523 600.288 194.847C600.697 195.165 601.194 195.324 601.779 195.324C602.37 195.324 602.87 195.162 603.279 194.838C603.688 194.509 603.998 194.054 604.208 193.474C604.424 192.889 604.532 192.216 604.532 191.455C604.532 190.699 604.427 190.034 604.217 189.46C604.006 188.886 603.697 188.437 603.288 188.114C602.879 187.79 602.376 187.628 601.779 187.628C601.188 187.628 600.688 187.784 600.279 188.097C599.876 188.409 599.566 188.852 599.35 189.426C599.134 190 599.026 190.676 599.026 191.455ZM610.66 202.909V184.909H614.239V187.108H614.401C614.56 186.756 614.79 186.398 615.092 186.034C615.398 185.665 615.796 185.358 616.285 185.114C616.779 184.864 617.393 184.739 618.126 184.739C619.08 184.739 619.961 184.989 620.768 185.489C621.575 185.983 622.219 186.73 622.702 187.73C623.185 188.724 623.427 189.972 623.427 191.472C623.427 192.932 623.191 194.165 622.719 195.17C622.254 196.17 621.617 196.929 620.81 197.446C620.009 197.957 619.112 198.213 618.117 198.213C617.413 198.213 616.813 198.097 616.319 197.864C615.83 197.631 615.43 197.338 615.117 196.986C614.805 196.628 614.566 196.267 614.401 195.903H614.29V202.909H610.66ZM614.214 191.455C614.214 192.233 614.322 192.912 614.538 193.491C614.754 194.071 615.066 194.523 615.475 194.847C615.884 195.165 616.381 195.324 616.967 195.324C617.558 195.324 618.058 195.162 618.467 194.838C618.876 194.509 619.185 194.054 619.396 193.474C619.612 192.889 619.719 192.216 619.719 191.455C619.719 190.699 619.614 190.034 619.404 189.46C619.194 188.886 618.884 188.437 618.475 188.114C618.066 187.79 617.563 187.628 616.967 187.628C616.376 187.628 615.876 187.784 615.467 188.097C615.063 188.409 614.754 188.852 614.538 189.426C614.322 190 614.214 190.676 614.214 191.455ZM631.47 198V180.545H643.027V183.588H635.161V187.747H642.26V190.79H635.161V198H631.47ZM650.395 198.256C649.071 198.256 647.926 197.974 646.96 197.412C646 196.844 645.259 196.054 644.736 195.043C644.213 194.026 643.952 192.847 643.952 191.506C643.952 190.153 644.213 188.972 644.736 187.96C645.259 186.943 646 186.153 646.96 185.591C647.926 185.023 649.071 184.739 650.395 184.739C651.719 184.739 652.861 185.023 653.821 185.591C654.787 186.153 655.531 186.943 656.054 187.96C656.577 188.972 656.838 190.153 656.838 191.506C656.838 192.847 656.577 194.026 656.054 195.043C655.531 196.054 654.787 196.844 653.821 197.412C652.861 197.974 651.719 198.256 650.395 198.256ZM650.412 195.443C651.014 195.443 651.517 195.273 651.92 194.932C652.324 194.585 652.628 194.114 652.832 193.517C653.043 192.92 653.148 192.241 653.148 191.48C653.148 190.719 653.043 190.04 652.832 189.443C652.628 188.847 652.324 188.375 651.92 188.028C651.517 187.682 651.014 187.509 650.412 187.509C649.804 187.509 649.293 187.682 648.878 188.028C648.469 188.375 648.159 188.847 647.949 189.443C647.744 190.04 647.642 190.719 647.642 191.48C647.642 192.241 647.744 192.92 647.949 193.517C648.159 194.114 648.469 194.585 648.878 194.932C649.293 195.273 649.804 195.443 650.412 195.443ZM659.199 198V184.909H662.719V187.193H662.855C663.094 186.381 663.494 185.767 664.057 185.352C664.619 184.932 665.267 184.722 666 184.722C666.182 184.722 666.378 184.733 666.588 184.756C666.798 184.778 666.983 184.81 667.142 184.849V188.071C666.972 188.02 666.736 187.974 666.435 187.935C666.134 187.895 665.858 187.875 665.608 187.875C665.074 187.875 664.597 187.991 664.176 188.224C663.761 188.452 663.432 188.77 663.188 189.179C662.949 189.588 662.83 190.06 662.83 190.594V198H659.199ZM684.111 185.565C684.043 184.878 683.75 184.344 683.233 183.963C682.716 183.582 682.014 183.392 681.128 183.392C680.526 183.392 680.017 183.477 679.602 183.648C679.188 183.812 678.869 184.043 678.648 184.338C678.432 184.634 678.324 184.969 678.324 185.344C678.313 185.656 678.378 185.929 678.52 186.162C678.668 186.395 678.869 186.597 679.125 186.767C679.381 186.932 679.676 187.077 680.011 187.202C680.347 187.321 680.705 187.423 681.085 187.509L682.653 187.884C683.415 188.054 684.114 188.281 684.75 188.565C685.386 188.849 685.938 189.199 686.403 189.614C686.869 190.028 687.23 190.517 687.486 191.08C687.747 191.642 687.881 192.287 687.886 193.014C687.881 194.082 687.608 195.009 687.068 195.793C686.534 196.571 685.761 197.176 684.75 197.608C683.744 198.034 682.531 198.247 681.111 198.247C679.702 198.247 678.474 198.031 677.429 197.599C676.389 197.168 675.577 196.528 674.991 195.682C674.412 194.83 674.108 193.776 674.08 192.52H677.651C677.69 193.105 677.858 193.594 678.153 193.986C678.455 194.372 678.855 194.665 679.355 194.864C679.861 195.057 680.432 195.153 681.068 195.153C681.693 195.153 682.236 195.062 682.696 194.881C683.162 194.699 683.523 194.446 683.778 194.122C684.034 193.798 684.162 193.426 684.162 193.006C684.162 192.614 684.045 192.284 683.812 192.017C683.585 191.75 683.25 191.523 682.807 191.335C682.369 191.148 681.832 190.977 681.196 190.824L679.295 190.347C677.824 189.989 676.662 189.429 675.81 188.668C674.957 187.906 674.534 186.881 674.54 185.591C674.534 184.534 674.815 183.611 675.384 182.821C675.957 182.031 676.744 181.415 677.744 180.972C678.744 180.528 679.881 180.307 681.153 180.307C682.449 180.307 683.58 180.528 684.545 180.972C685.517 181.415 686.273 182.031 686.812 182.821C687.352 183.611 687.631 184.526 687.648 185.565H684.111ZM697.263 184.909V187.636H689.38V184.909H697.263ZM691.17 181.773H694.8V193.977C694.8 194.312 694.852 194.574 694.954 194.761C695.056 194.943 695.198 195.071 695.38 195.145C695.567 195.219 695.783 195.256 696.028 195.256C696.198 195.256 696.369 195.241 696.539 195.213C696.71 195.179 696.84 195.153 696.931 195.136L697.502 197.838C697.32 197.895 697.065 197.96 696.735 198.034C696.406 198.114 696.005 198.162 695.533 198.179C694.658 198.213 693.891 198.097 693.232 197.83C692.579 197.562 692.07 197.148 691.707 196.585C691.343 196.023 691.164 195.312 691.17 194.455V181.773ZM703.362 198.247C702.526 198.247 701.782 198.102 701.129 197.812C700.475 197.517 699.958 197.082 699.577 196.509C699.202 195.929 699.015 195.207 699.015 194.344C699.015 193.616 699.148 193.006 699.415 192.511C699.683 192.017 700.046 191.619 700.506 191.318C700.967 191.017 701.489 190.79 702.075 190.636C702.665 190.483 703.285 190.375 703.933 190.312C704.694 190.233 705.308 190.159 705.773 190.091C706.239 190.017 706.577 189.909 706.788 189.767C706.998 189.625 707.103 189.415 707.103 189.136V189.085C707.103 188.545 706.933 188.128 706.592 187.832C706.256 187.537 705.779 187.389 705.16 187.389C704.506 187.389 703.987 187.534 703.6 187.824C703.214 188.108 702.958 188.466 702.833 188.898L699.475 188.625C699.646 187.83 699.981 187.142 700.481 186.562C700.981 185.977 701.626 185.528 702.415 185.216C703.211 184.898 704.131 184.739 705.177 184.739C705.904 184.739 706.6 184.824 707.265 184.994C707.935 185.165 708.529 185.429 709.046 185.787C709.569 186.145 709.981 186.605 710.282 187.168C710.583 187.724 710.734 188.392 710.734 189.17V198H707.29V196.185H707.188C706.978 196.594 706.697 196.955 706.344 197.267C705.992 197.574 705.569 197.815 705.075 197.991C704.58 198.162 704.009 198.247 703.362 198.247ZM704.401 195.741C704.935 195.741 705.407 195.636 705.816 195.426C706.225 195.21 706.546 194.92 706.779 194.557C707.012 194.193 707.129 193.781 707.129 193.321V191.932C707.015 192.006 706.859 192.074 706.66 192.136C706.467 192.193 706.248 192.247 706.004 192.298C705.759 192.344 705.515 192.386 705.271 192.426C705.026 192.46 704.805 192.491 704.606 192.52C704.18 192.582 703.808 192.682 703.489 192.818C703.171 192.955 702.924 193.139 702.748 193.372C702.572 193.599 702.484 193.884 702.484 194.224C702.484 194.719 702.663 195.097 703.021 195.358C703.384 195.614 703.844 195.741 704.401 195.741ZM713.619 198V180.545H717.249V187.108H717.36C717.519 186.756 717.749 186.398 718.05 186.034C718.357 185.665 718.755 185.358 719.244 185.114C719.738 184.864 720.352 184.739 721.085 184.739C722.039 184.739 722.92 184.989 723.727 185.489C724.533 185.983 725.178 186.73 725.661 187.73C726.144 188.724 726.386 189.972 726.386 191.472C726.386 192.932 726.15 194.165 725.678 195.17C725.212 196.17 724.576 196.929 723.769 197.446C722.968 197.957 722.07 198.213 721.076 198.213C720.371 198.213 719.772 198.097 719.278 197.864C718.789 197.631 718.388 197.338 718.076 196.986C717.763 196.628 717.525 196.267 717.36 195.903H717.198V198H713.619ZM717.173 191.455C717.173 192.233 717.281 192.912 717.496 193.491C717.712 194.071 718.025 194.523 718.434 194.847C718.843 195.165 719.34 195.324 719.925 195.324C720.516 195.324 721.016 195.162 721.425 194.838C721.835 194.509 722.144 194.054 722.354 193.474C722.57 192.889 722.678 192.216 722.678 191.455C722.678 190.699 722.573 190.034 722.363 189.46C722.153 188.886 721.843 188.437 721.434 188.114C721.025 187.79 720.522 187.628 719.925 187.628C719.335 187.628 718.835 187.784 718.425 188.097C718.022 188.409 717.712 188.852 717.496 189.426C717.281 190 717.173 190.676 717.173 191.455ZM732.439 180.545V198H728.808V180.545H732.439ZM741.313 198.256C739.967 198.256 738.808 197.983 737.836 197.438C736.87 196.886 736.126 196.108 735.603 195.102C735.08 194.091 734.819 192.895 734.819 191.514C734.819 190.168 735.08 188.986 735.603 187.969C736.126 186.952 736.862 186.159 737.81 185.591C738.765 185.023 739.884 184.739 741.168 184.739C742.032 184.739 742.836 184.878 743.58 185.156C744.33 185.429 744.984 185.841 745.54 186.392C746.103 186.943 746.54 187.636 746.853 188.472C747.165 189.301 747.322 190.273 747.322 191.386V192.384H736.268V190.134H743.904C743.904 189.611 743.79 189.148 743.563 188.744C743.336 188.341 743.021 188.026 742.617 187.798C742.219 187.565 741.756 187.449 741.228 187.449C740.677 187.449 740.188 187.577 739.762 187.832C739.342 188.082 739.012 188.42 738.773 188.847C738.535 189.267 738.413 189.736 738.407 190.253V192.392C738.407 193.04 738.526 193.599 738.765 194.071C739.009 194.543 739.353 194.906 739.796 195.162C740.239 195.418 740.765 195.545 741.373 195.545C741.776 195.545 742.146 195.489 742.481 195.375C742.816 195.261 743.103 195.091 743.342 194.864C743.58 194.636 743.762 194.358 743.887 194.028L747.245 194.25C747.075 195.057 746.725 195.761 746.197 196.364C745.674 196.96 744.998 197.426 744.168 197.761C743.344 198.091 742.393 198.256 741.313 198.256ZM761.501 198H755.314V180.545H761.553C763.308 180.545 764.82 180.895 766.087 181.594C767.354 182.287 768.328 183.284 769.01 184.585C769.697 185.886 770.041 187.443 770.041 189.256C770.041 191.074 769.697 192.636 769.01 193.943C768.328 195.25 767.348 196.253 766.07 196.952C764.797 197.651 763.274 198 761.501 198ZM759.004 194.838H761.348C762.439 194.838 763.357 194.645 764.101 194.259C764.851 193.866 765.413 193.261 765.788 192.443C766.169 191.619 766.359 190.557 766.359 189.256C766.359 187.966 766.169 186.912 765.788 186.094C765.413 185.276 764.854 184.673 764.109 184.287C763.365 183.901 762.447 183.707 761.357 183.707H759.004V194.838ZM772.707 198V184.909H776.337V198H772.707ZM774.531 183.222C773.991 183.222 773.528 183.043 773.141 182.685C772.761 182.321 772.57 181.886 772.57 181.381C772.57 180.881 772.761 180.452 773.141 180.094C773.528 179.73 773.991 179.548 774.531 179.548C775.07 179.548 775.531 179.73 775.911 180.094C776.298 180.452 776.491 180.881 776.491 181.381C776.491 181.886 776.298 182.321 775.911 182.685C775.531 183.043 775.07 183.222 774.531 183.222ZM786.286 184.909V187.636H778.206V184.909H786.286ZM780.055 198V183.963C780.055 183.014 780.24 182.227 780.609 181.602C780.984 180.977 781.496 180.509 782.143 180.196C782.791 179.884 783.527 179.727 784.351 179.727C784.908 179.727 785.416 179.77 785.876 179.855C786.342 179.94 786.689 180.017 786.916 180.085L786.268 182.812C786.126 182.767 785.95 182.724 785.74 182.685C785.536 182.645 785.325 182.625 785.109 182.625C784.575 182.625 784.203 182.75 783.993 183C783.783 183.244 783.678 183.588 783.678 184.031V198H780.055ZM795.543 184.909V187.636H787.464V184.909H795.543ZM789.313 198V183.963C789.313 183.014 789.498 182.227 789.867 181.602C790.242 180.977 790.754 180.509 791.401 180.196C792.049 179.884 792.785 179.727 793.609 179.727C794.165 179.727 794.674 179.77 795.134 179.855C795.6 179.94 795.947 180.017 796.174 180.085L795.526 182.812C795.384 182.767 795.208 182.724 794.998 182.685C794.793 182.645 794.583 182.625 794.367 182.625C793.833 182.625 793.461 182.75 793.251 183C793.04 183.244 792.935 183.588 792.935 184.031V198H789.313ZM806.156 192.426V184.909H809.787V198H806.301V195.622H806.165C805.869 196.389 805.378 197.006 804.69 197.472C804.009 197.937 803.176 198.17 802.193 198.17C801.318 198.17 800.548 197.972 799.884 197.574C799.219 197.176 798.699 196.611 798.324 195.878C797.955 195.145 797.767 194.267 797.761 193.244V184.909H801.392V192.597C801.398 193.369 801.605 193.98 802.014 194.429C802.423 194.878 802.972 195.102 803.659 195.102C804.097 195.102 804.506 195.003 804.886 194.804C805.267 194.599 805.574 194.298 805.807 193.901C806.045 193.503 806.162 193.011 806.156 192.426ZM823.583 188.642L820.259 188.847C820.202 188.562 820.08 188.307 819.893 188.08C819.705 187.847 819.458 187.662 819.151 187.526C818.85 187.384 818.489 187.312 818.069 187.312C817.506 187.312 817.032 187.432 816.646 187.67C816.259 187.903 816.066 188.216 816.066 188.608C816.066 188.92 816.191 189.185 816.441 189.401C816.691 189.616 817.12 189.79 817.728 189.92L820.097 190.398C821.37 190.659 822.319 191.08 822.944 191.659C823.569 192.239 823.881 193 823.881 193.943C823.881 194.801 823.629 195.554 823.123 196.202C822.623 196.849 821.935 197.355 821.06 197.719C820.191 198.077 819.188 198.256 818.052 198.256C816.319 198.256 814.938 197.895 813.91 197.173C812.887 196.446 812.288 195.457 812.112 194.207L815.683 194.02C815.79 194.548 816.052 194.952 816.467 195.23C816.881 195.503 817.413 195.639 818.06 195.639C818.697 195.639 819.208 195.517 819.594 195.273C819.987 195.023 820.185 194.702 820.191 194.31C820.185 193.98 820.046 193.71 819.773 193.5C819.501 193.284 819.08 193.119 818.512 193.006L816.245 192.554C814.967 192.298 814.015 191.855 813.39 191.224C812.771 190.594 812.461 189.79 812.461 188.812C812.461 187.972 812.688 187.247 813.143 186.639C813.603 186.031 814.248 185.562 815.077 185.233C815.913 184.903 816.89 184.739 818.009 184.739C819.663 184.739 820.964 185.088 821.913 185.787C822.867 186.486 823.424 187.437 823.583 188.642ZM826.168 198V184.909H829.798V198H826.168ZM827.991 183.222C827.452 183.222 826.989 183.043 826.602 182.685C826.222 182.321 826.031 181.886 826.031 181.381C826.031 180.881 826.222 180.452 826.602 180.094C826.989 179.73 827.452 179.548 827.991 179.548C828.531 179.548 828.991 179.73 829.372 180.094C829.759 180.452 829.952 180.881 829.952 181.381C829.952 181.886 829.759 182.321 829.372 182.685C828.991 183.043 828.531 183.222 827.991 183.222ZM838.621 198.256C837.298 198.256 836.153 197.974 835.187 197.412C834.227 196.844 833.485 196.054 832.962 195.043C832.44 194.026 832.178 192.847 832.178 191.506C832.178 190.153 832.44 188.972 832.962 187.96C833.485 186.943 834.227 186.153 835.187 185.591C836.153 185.023 837.298 184.739 838.621 184.739C839.945 184.739 841.087 185.023 842.048 185.591C843.013 186.153 843.758 186.943 844.281 187.96C844.803 188.972 845.065 190.153 845.065 191.506C845.065 192.847 844.803 194.026 844.281 195.043C843.758 196.054 843.013 196.844 842.048 197.412C841.087 197.974 839.945 198.256 838.621 198.256ZM838.638 195.443C839.241 195.443 839.744 195.273 840.147 194.932C840.55 194.585 840.854 194.114 841.059 193.517C841.269 192.92 841.374 192.241 841.374 191.48C841.374 190.719 841.269 190.04 841.059 189.443C840.854 188.847 840.55 188.375 840.147 188.028C839.744 187.682 839.241 187.509 838.638 187.509C838.031 187.509 837.519 187.682 837.104 188.028C836.695 188.375 836.386 188.847 836.175 189.443C835.971 190.04 835.869 190.719 835.869 191.48C835.869 192.241 835.971 192.92 836.175 193.517C836.386 194.114 836.695 194.585 837.104 194.932C837.519 195.273 838.031 195.443 838.638 195.443ZM851.056 190.432V198H847.425V184.909H850.886V187.219H851.039C851.329 186.457 851.815 185.855 852.496 185.412C853.178 184.963 854.005 184.739 854.977 184.739C855.886 184.739 856.678 184.938 857.354 185.335C858.031 185.733 858.556 186.301 858.931 187.04C859.306 187.773 859.494 188.648 859.494 189.665V198H855.863V190.312C855.869 189.511 855.664 188.886 855.249 188.438C854.835 187.983 854.263 187.756 853.536 187.756C853.048 187.756 852.616 187.861 852.241 188.071C851.871 188.281 851.582 188.588 851.371 188.991C851.167 189.389 851.062 189.869 851.056 190.432Z" fill="url(#paint1_radial_1_65)"/>
<g filter="url(#filter0_d_1_65)">
<rect x="25" y="25" width="206" height="206" rx="46" fill="#3B3C6D"/>
<rect x="25" y="25" width="206" height="206" rx="46" fill="url(#paint2_linear_1_65)"/>
</g>
<g filter="url(#filter1_dddddd_1_65)">
<circle cx="128" cy="128" r="57.25" transform="rotate(90 128 128)" fill="white"/>
</g>
<circle cx="128" cy="128" r="57.25" transform="rotate(90 128 128)" fill="url(#paint3_angular_1_65)"/>
<circle cx="128" cy="128" r="57.25" transform="rotate(90 128 128)" fill="url(#paint4_radial_1_65)"/>
<circle opacity="0.1" cx="128" cy="128" r="55.5" stroke="black" stroke-width="4"/>
<g filter="url(#filter2_i_1_65)">
<circle cx="128" cy="128" r="55.5" stroke="#E2E2E2" stroke-width="3.5"/>
<circle cx="128" cy="128" r="55.5" stroke="url(#paint5_linear_1_65)" stroke-width="3.5"/>
</g>
<defs>
<filter id="filter0_d_1_65" x="19.5" y="22.25" width="217" height="217" filterUnits="userSpaceOnUse" color-interpolation-filters="sRGB">
<feFlood flood-opacity="0" result="BackgroundImageFix"/>
<feColorMatrix in="SourceAlpha" type="matrix" values="0 0 0 0 0 0 0 0 0 0 0 0 0 0 0 0 0 0 127 0" result="hardAlpha"/>
<feOffset dy="2.75"/>
<feGaussianBlur stdDeviation="2.75"/>
<feColorMatrix type="matrix" values="0 0 0 0 0 0 0 0 0 0 0 0 0 0 0 0 0 0 0.28 0"/>
<feBlend mode="normal" in2="BackgroundImageFix" result="effect1_dropShadow_1_65"/>
<feBlend mode="normal" in="SourceGraphic" in2="effect1_dropShadow_1_65" result="shape"/>
</filter>
<filter id="filter1_dddddd_1_65" x="64" y="70.75" width="128" height="129.5" filterUnits="userSpaceOnUse" color-interpolation-filters="sRGB">
<feFlood flood-opacity="0" result="BackgroundImageFix"/>
<feColorMatrix in="SourceAlpha" type="matrix" values="0 0 0 0 0 0 0 0 0 0 0 0 0 0 0 0 0 0 127 0" result="hardAlpha"/>
<feOffset dy="0.228299"/>
<feGaussianBlur stdDeviation="0.0933949"/>
<feColorMatrix type="matrix" values="0 0 0 0 0 0 0 0 0 0 0 0 0 0 0 0 0 0 0.0253031 0"/>
<feBlend mode="normal" in2="BackgroundImageFix" result="effect1_dropShadow_1_65"/>
<feColorMatrix in="SourceAlpha" type="matrix" values="0 0 0 0 0 0 0 0 0 0 0 0 0 0 0 0 0 0 127 0" result="hardAlpha"/>
<feOffset dy="0.548633"/>
<feGaussianBlur stdDeviation="0.224441"/>
<feColorMatrix type="matrix" values="0 0 0 0 0 0 0 0 0 0 0 0 0 0 0 0 0 0 0.0363503 0"/>
<feBlend mode="normal" in2="effect1_dropShadow_1_65" result="effect2_dropShadow_1_65"/>
<feColorMatrix in="SourceAlpha" type="matrix" values="0 0 0 0 0 0 0 0 0 0 0 0 0 0 0 0 0 0 127 0" result="hardAlpha"/>
<feOffset dy="1.03303"/>
<feGaussianBlur stdDeviation="0.422602"/>
<feColorMatrix type="matrix" values="0 0 0 0 0 0 0 0 0 0 0 0 0 0 0 0 0 0 0.045 0"/>
<feBlend mode="normal" in2="effect2_dropShadow_1_65" result="effect3_dropShadow_1_65"/>
<feColorMatrix in="SourceAlpha" type="matrix" values="0 0 0 0 0 0 0 0 0 0 0 0 0 0 0 0 0 0 127 0" result="hardAlpha"/>
<feOffset dy="1.84275"/>
<feGaussianBlur stdDeviation="0.75385"/>
<feColorMatrix type="matrix" values="0 0 0 0 0 0 0 0 0 0 0 0 0 0 0 0 0 0 0.0536497 0"/>
<feBlend mode="normal" in2="effect3_dropShadow_1_65" result="effect4_dropShadow_1_65"/>
<feColorMatrix in="SourceAlpha" type="matrix" values="0 0 0 0 0 0 0 0 0 0 0 0 0 0 0 0 0 0 127 0" result="hardAlpha"/>
<feOffset dy="3.44665"/>
<feGaussianBlur stdDeviation="1.40999"/>
<feColorMatrix type="matrix" values="0 0 0 0 0 0 0 0 0 0 0 0 0 0 0 0 0 0 0.0646969 0"/>
<feBlend mode="normal" in2="effect4_dropShadow_1_65" result="effect5_dropShadow_1_65"/>
<feColorMatrix in="SourceAlpha" type="matrix" values="0 0 0 0 0 0 0 0 0 0 0 0 0 0 0 0 0 0 127 0" result="hardAlpha"/>
<feOffset dy="8.25"/>
<feGaussianBlur stdDeviation="3.375"/>
<feColorMatrix type="matrix" values="0 0 0 0 0 0 0 0 0 0 0 0 0 0 0 0 0 0 0.09 0"/>
<feBlend mode="normal" in2="effect5_dropShadow_1_65" result="effect6_dropShadow_1_65"/>
<feBlend mode="normal" in="SourceGraphic" in2="effect6_dropShadow_1_65" result="shape"/>
</filter>
<filter id="filter2_i_1_65" x="70.75" y="70.75" width="114.5" height="114.5" filterUnits="userSpaceOnUse" color-interpolation-filters="sRGB">
<feFlood flood-opacity="0" result="BackgroundImageFix"/>
<feBlend mode="normal" in="SourceGraphic" in2="BackgroundImageFix" result="shape"/>
<feColorMatrix in="SourceAlpha" type="matrix" values="0 0 0 0 0 0 0 0 0 0 0 0 0 0 0 0 0 0 127 0" result="hardAlpha"/>
<feOffset dy="0.5"/>
<feComposite in2="hardAlpha" operator="arithmetic" k2="-1" k3="1"/>
<feColorMatrix type="matrix" values="0 0 0 0 1 0 0 0 0 1 0 0 0 0 1 0 0 0 0.5 0"/>
<feBlend mode="normal" in2="shape" result="effect1_innerShadow_1_65"/>
</filter>
<radialGradient id="paint0_radial_1_65" cx="0" cy="0" r="1" gradientUnits="userSpaceOnUse" gradientTransform="translate(468.5 -0.499969) rotate(46.0541) scale(367.802 1286.06)">
<stop stop-color="#4447C8"/>
<stop offset="1" stop-color="#C913D9"/>
</radialGradient>
<radialGradient id="paint1_radial_1_65" cx="0" cy="0" r="1" gradientUnits="userSpaceOnUse" gradientTransform="translate(474.5 85.5) rotate(46.0541) scale(367.802 1286.06)">
<stop stop-color="#0C0C20" stop-opacity="0.49"/>
<stop offset="1" stop-color="#031A45" stop-opacity="0.46"/>
</radialGradient>
<linearGradient id="paint2_linear_1_65" x1="128" y1="25" x2="128" y2="231" gradientUnits="userSpaceOnUse">
<stop stop-opacity="0"/>
<stop offset="1" stop-opacity="0.73"/>
</linearGradient>
<radialGradient id="paint3_angular_1_65" cx="0" cy="0" r="1" gradientUnits="userSpaceOnUse" gradientTransform="translate(128 128) rotate(90) scale(52.625)">
<stop stop-color="#EB5757"/>
<stop offset="0.25" stop-color="#611DF2"/>
<stop offset="0.380711" stop-color="#7610B3"/>
<stop offset="0.5" stop-color="#E06EC6"/>
<stop offset="0.75" stop-color="#1286C8"/>
<stop offset="0.896746" stop-color="#6A8A92"/>
<stop offset="1" stop-color="#EB5757"/>
</radialGradient>
<radialGradient id="paint4_radial_1_65" cx="0" cy="0" r="1" gradientUnits="userSpaceOnUse" gradientTransform="translate(128 128) rotate(90) scale(57.25)">
<stop stop-color="#EB5757"/>
<stop offset="0.265625" stop-color="#EB5757" stop-opacity="0.67"/>
<stop offset="1" stop-color="#EB5757" stop-opacity="0"/>
</radialGradient>
<linearGradient id="paint5_linear_1_65" x1="128" y1="70.75" x2="128" y2="185.25" gradientUnits="userSpaceOnUse">
<stop stop-color="white" stop-opacity="0.9"/>
<stop offset="1" stop-color="white" stop-opacity="0"/>
</linearGradient>
</defs>
</svg>
