<svg width="194" height="199" viewBox="0 0 194 199" fill="none" xmlns="http://www.w3.org/2000/svg">
<g filter="url(#filter0_d_976_1050)">
<path d="M143.828 36.5066C159.317 51.309 168.906 78.6459 164.165 102.043C159.318 125.56 140.14 145.257 117.275 158.746C94.3043 172.236 67.7511 179.518 52.8939 167.938C38.0368 156.359 35.0864 126.038 35.6133 102.401C36.1401 78.6459 40.2495 61.6947 49.206 48.444C58.1624 35.3128 71.8605 25.8822 89.4573 22.5397C106.949 19.0778 128.339 21.5847 143.828 36.5066Z" fill="#F63B89"/>
</g>
<g opacity="0.5" filter="url(#filter1_d_976_1050)">
<path d="M166.488 43.1836C177.452 50.8291 173.225 72.3455 173.225 93.7528C173.225 115.269 177.452 136.676 166.62 153.06C155.656 169.333 129.765 180.583 111.668 173.921C93.7027 167.367 83.5313 143.12 65.9623 126.737C48.3934 110.464 23.2949 102.054 13.916 85.9981C4.53709 69.9427 10.8778 46.0234 28.4467 38.3779C46.0156 30.7325 74.9449 39.2517 102.289 40.4531C129.633 41.6546 155.656 35.5382 166.488 43.1836Z" fill="#00C2FF"/>
</g>
<mask id="mask0_976_1050" style="mask-type:alpha" maskUnits="userSpaceOnUse" x="35" y="21" width="131" height="153">
<path d="M143.828 36.5066C159.318 51.309 168.906 78.6459 164.165 102.043C159.318 125.56 140.14 145.257 117.275 158.746C94.3045 172.236 67.7513 179.518 52.8942 167.938C38.037 156.359 35.0867 126.038 35.6135 102.401C36.1404 78.6459 40.2498 61.6947 49.2062 48.444C58.1627 35.3128 71.8608 25.8822 89.4575 22.5397C106.949 19.0778 128.339 21.5847 143.828 36.5066Z" fill="white"/>
</mask>
<g mask="url(#mask0_976_1050)">
<path d="M166.489 43.1836C177.453 50.8291 173.226 72.3455 173.226 93.7528C173.226 115.269 177.453 136.676 166.621 153.06C155.657 169.333 129.766 180.583 111.668 173.921C93.703 167.367 83.5315 143.12 65.9626 126.737C48.3936 110.464 23.2951 102.054 13.9162 85.9981C4.53734 69.9427 10.878 46.0234 28.4469 38.3779C46.0159 30.7325 74.9452 39.2517 102.289 40.4531C129.633 41.6546 155.657 35.5382 166.489 43.1836Z" fill="#4B80AC"/>
</g>
<defs>
<filter id="filter0_d_976_1050" x="18.8647" y="0.853294" width="174.029" height="196.748" filterUnits="userSpaceOnUse" color-interpolation-filters="sRGB">
<feFlood flood-opacity="0" result="BackgroundImageFix"/>
<feColorMatrix in="SourceAlpha" type="matrix" values="0 0 0 0 0 0 0 0 0 0 0 0 0 0 0 0 0 0 127 0" result="hardAlpha"/>
<feOffset dx="5.40941" dy="1.792"/>
<feGaussianBlur stdDeviation="11.0507"/>
<feColorMatrix type="matrix" values="0 0 0 0 0 0 0 0 0 0 0 0 0 0 0 0 0 0 0.2 0"/>
<feBlend mode="normal" in2="BackgroundImageFix" result="effect1_dropShadow_976_1050"/>
<feBlend mode="normal" in="SourceGraphic" in2="effect1_dropShadow_976_1050" result="shape"/>
</filter>
<filter id="filter1_d_976_1050" x="0.936497" y="29.8178" width="192.575" height="168.774" filterUnits="userSpaceOnUse" color-interpolation-filters="sRGB">
<feFlood flood-opacity="0" result="BackgroundImageFix"/>
<feColorMatrix in="SourceAlpha" type="matrix" values="0 0 0 0 0 0 0 0 0 0 0 0 0 0 0 0 0 0 127 0" result="hardAlpha"/>
<feOffset dx="5.40941" dy="8.65505"/>
<feGaussianBlur stdDeviation="7.03223"/>
<feColorMatrix type="matrix" values="0 0 0 0 0 0 0 0 0 0 0 0 0 0 0 0 0 0 0.25 0"/>
<feBlend mode="normal" in2="BackgroundImageFix" result="effect1_dropShadow_976_1050"/>
<feBlend mode="normal" in="SourceGraphic" in2="effect1_dropShadow_976_1050" result="shape"/>
</filter>
</defs>
</svg>
