<svg width="167" height="122" viewBox="0 0 167 122" fill="none" xmlns="http://www.w3.org/2000/svg">
<rect width="167" height="120" fill="white"/>
<rect x="38.813" y="31.1786" width="85.4903" height="66.7321" rx="4.5" stroke="#D1D1D1" stroke-opacity="0.5" stroke-width="3"/>
<line y1="-1" x2="33.6999" y2="-1" transform="matrix(0.742083 -0.670308 0.654789 0.755812 45.9697 89.5893)" stroke="#D1D1D1" stroke-opacity="0.5" stroke-width="2"/>
<line y1="-1" x2="28.2993" y2="-1" transform="matrix(-0.645782 -0.763522 0.750023 -0.661412 89.2529 88.6071)" stroke="#D1D1D1" stroke-opacity="0.5" stroke-width="2"/>
<path d="M78.3431 74.4995L95.5049 57.1786" stroke="#D1D1D1" stroke-opacity="0.5" stroke-width="2"/>
<path d="M113.5 79L94.5529 57.6521" stroke="#D1D1D1" stroke-opacity="0.5" stroke-width="2"/>
<path d="M65.1684 48.3393C65.1684 52.0893 61.9935 55.1964 57.9926 55.1964C53.9917 55.1964 50.8169 52.0893 50.8169 48.3393C50.8169 44.5893 53.9917 41.4821 57.9926 41.4821C61.9935 41.4821 65.1684 44.5893 65.1684 48.3393Z" stroke="#D1D1D1" stroke-opacity="0.5" stroke-width="2"/>
<line x1="46" y1="36.5" x2="54" y2="36.5" stroke="#68D585" stroke-width="3"/>
<line x1="45.5" y1="45" x2="45.5" y2="35" stroke="#68D585" stroke-width="3"/>
<line y1="-1.5" x2="8" y2="-1.5" transform="matrix(1 -2.05458e-09 -2.53652e-09 -1 46 60)" stroke="#68D585" stroke-width="3"/>
<line y1="-1.5" x2="9" y2="-1.5" transform="matrix(0 1 1 0 47 54)" stroke="#68D585" stroke-width="3"/>
<line y1="-1.5" x2="8" y2="-1.5" transform="matrix(-1 2.28287e-09 2.28287e-09 1 71 38)" stroke="#68D585" stroke-width="3"/>
<line y1="-1.5" x2="10" y2="-1.5" transform="matrix(0 -1 -1 0 70 45)" stroke="#68D585" stroke-width="3"/>
<line x1="71" y1="61.5" x2="63" y2="61.5" stroke="#68D585" stroke-width="3"/>
<line x1="71.5" y1="54" x2="71.5" y2="63" stroke="#68D585" stroke-width="3"/>
<line x1="79" y1="55.6071" x2="89.88" y2="55.6071" stroke="#FEC1C0" stroke-width="3"/>
<line x1="78.8599" y1="64.3571" x2="78.8599" y2="54" stroke="#FEC1C0" stroke-width="3"/>
<line y1="-1.5" x2="10.88" y2="-1.5" transform="matrix(1 -2.12796e-09 -2.44906e-09 -1 79 79.8929)" stroke="#FEC1C0" stroke-width="3"/>
<line y1="-1.5" x2="9.32143" y2="-1.5" transform="matrix(0 1 1 0 80.3599 73.6786)" stroke="#FEC1C0" stroke-width="3"/>
<line y1="-1.5" x2="10.88" y2="-1.5" transform="matrix(-1 2.3644e-09 2.20415e-09 1 113 57.1071)" stroke="#FEC1C0" stroke-width="3"/>
<line y1="-1.5" x2="10.3571" y2="-1.5" transform="matrix(0 -1 -1 0 111.64 64.3571)" stroke="#FEC1C0" stroke-width="3"/>
<line x1="113" y1="81.3929" x2="102.12" y2="81.3929" stroke="#FEC1C0" stroke-width="3"/>
<line x1="113.14" y1="73.6786" x2="113.14" y2="83" stroke="#FEC1C0" stroke-width="3"/>
</svg>
