<svg width="742" height="350" viewBox="0 0 742 350" fill="none" xmlns="http://www.w3.org/2000/svg">
<path d="M682.164 197.802C700.536 197.802 715.429 182.387 715.429 163.372C715.429 144.356 700.536 128.941 682.164 128.941C663.792 128.941 648.899 144.356 648.899 163.372C648.899 182.387 663.792 197.802 682.164 197.802Z" fill="#F2F2F2"/>
<path d="M682.164 172.432C686.999 172.432 690.918 168.376 690.918 163.372C690.918 158.368 686.999 154.311 682.164 154.311C677.329 154.311 673.41 158.368 673.41 163.372C673.41 168.376 677.329 172.432 682.164 172.432Z" fill="#E6E6E6"/>
<path d="M680.565 163.565C684.252 166.679 685.376 171.586 684.69 176.324C683.847 181.522 681.242 186.238 677.342 189.626C672.957 193.66 667.608 196.386 662.447 199.177C657.705 201.682 653.148 204.546 648.813 207.744C632.215 220.23 619.675 238.009 612.499 257.849C605.334 277.655 603.412 300.136 608.856 320.664C611.549 330.82 616.999 341.778 627.15 345.599C635.242 348.646 646.29 346.683 650.41 338.051C654.836 328.779 648.661 318.356 640.707 313.753C630.396 307.786 618.08 312.146 608.806 318.186C598.597 324.836 590.389 334.378 579.73 340.338C574.932 343.105 569.593 344.717 564.11 345.054C559.074 345.259 554.048 344.456 549.308 342.687C539.472 338.978 531.004 332.175 525.093 323.233C518.322 313.046 515.292 300.559 514.739 288.327C513.502 260.958 523.948 235.354 532.329 209.973C536.833 196.756 540.207 183.156 542.413 169.328C544.51 155.43 545.256 141.349 544.641 127.297C544.086 114.872 542.902 101.879 537.603 90.5302C532.944 80.5515 524.43 72.3845 513.665 70.3254C508.812 69.3397 503.784 69.9375 499.274 72.0364C497.738 72.7615 499.071 75.1049 500.599 74.3835C510.126 69.8853 521.386 74.2619 528.422 81.5249C536.639 90.0061 539.657 102.531 540.997 114.087C544.007 141.476 541.635 169.212 534.021 195.627C526.715 221.315 515.221 245.932 512.569 272.846C511.359 285.127 511.981 297.824 515.773 309.6C519.027 320.09 525.129 329.39 533.35 336.389C541.09 342.865 550.612 347.278 560.637 347.77C571.889 348.321 581.757 343.129 590.487 336.222C599.837 328.824 608.44 319.697 619.766 315.549C624.93 313.658 630.811 312.776 636.113 314.596C640.661 316.204 644.519 319.415 647.014 323.667C649.316 327.63 650.166 332.585 648.064 336.842C646.089 340.845 642.232 343.16 638.058 343.952C633.638 344.762 629.083 343.961 625.169 341.686C620.596 338.982 617.249 334.446 614.905 329.652C610.23 320.094 608.659 308.716 608.421 298.106C608.212 287.743 609.495 277.405 612.228 267.433C617.664 247.261 628.639 229.154 643.82 215.309C647.644 211.86 651.736 208.742 656.053 205.986C660.762 202.982 665.789 200.581 670.591 197.746C675.315 194.957 679.971 191.624 683.224 187.033C685.997 183.099 687.495 178.357 687.502 173.487C687.552 171.247 687.122 169.024 686.243 166.976C685.365 164.929 684.06 163.107 682.422 161.643C681.123 160.546 679.254 162.458 680.565 163.565V163.565Z" fill="#CCCCCC"/>
<path d="M370.016 321.932C381.648 329.714 395.103 334.08 408.945 334.562C408.698 335.169 408.42 335.762 408.113 336.338C406.502 339.417 404.225 342.068 401.46 344.085C398.187 346.47 394.343 347.878 390.349 348.157C386.355 348.435 382.363 347.573 378.81 345.664C375.257 343.755 372.279 340.873 370.2 337.332C368.122 333.791 367.022 329.727 367.022 325.583V321.932H370.016Z" fill="#3F3D56"/>
<path d="M451.664 323.001V325.583C451.666 330.611 450.05 335.495 447.07 339.465C444.091 343.436 439.918 346.265 435.211 347.507C430.505 348.749 425.533 348.332 421.08 346.323C416.628 344.313 412.95 340.826 410.626 336.411C410.306 335.82 410.016 335.212 409.759 334.59C410.398 334.608 411.029 334.617 411.668 334.617C425.779 334.634 439.621 330.614 451.664 323.001V323.001Z" fill="#3F3D56"/>
<path d="M481.113 49.9329C480.456 49.8332 479.791 49.7698 479.125 49.7245C486.685 67.7577 487.209 88.1194 480.587 106.543C481.253 106.462 481.909 106.353 482.566 106.226C488.977 104.941 494.739 101.342 498.826 96.0709C502.914 90.7999 505.062 84.1986 504.887 77.4422C504.713 70.6857 502.227 64.2126 497.874 59.175C493.52 54.1374 487.581 50.8624 481.113 49.9329V49.9329Z" fill="#3F3D56"/>
<path d="M344.21 49.7245C343.545 49.7698 342.879 49.8332 342.223 49.9329C335.755 50.8624 329.815 54.1374 325.462 59.175C321.108 64.2126 318.623 70.6857 318.448 77.4422C318.274 84.1987 320.422 90.8 324.509 96.071C328.597 101.342 334.359 104.941 340.77 106.226C341.426 106.353 342.083 106.462 342.748 106.543C336.126 88.1194 336.65 67.7577 344.21 49.7245V49.7245Z" fill="#3F3D56"/>
<path d="M481.112 49.9329C473.901 32.1015 460.543 17.6814 443.633 9.47392C426.724 1.26647 407.471 -0.142238 389.614 5.52146C371.757 11.1852 356.572 23.5169 347.008 40.1208C337.445 56.7248 334.185 76.4155 337.864 95.3675C341.543 114.319 351.896 131.18 366.913 142.672C381.931 154.165 400.539 159.47 419.124 157.556C437.708 155.642 454.942 146.646 467.477 132.316C480.012 117.986 486.953 99.3447 486.951 80.014C486.948 69.6858 484.963 59.4611 481.112 49.9329V49.9329ZM480.587 106.543C474.184 124.36 461.569 139.051 445.225 147.724C428.882 156.397 409.994 158.424 392.28 153.406C374.565 148.389 359.306 136.69 349.507 120.612C339.707 104.535 336.077 85.243 339.33 66.5341C342.584 47.8251 352.485 31.0542 367.086 19.5221C381.686 7.99007 399.928 2.53217 418.222 4.22268C436.515 5.91318 453.535 14.6296 465.931 28.6565C478.326 42.6833 485.201 61.0045 485.2 80.014C485.198 89.0707 483.636 98.0543 480.587 106.544V106.543Z" fill="#3F3D56"/>
<path d="M450.185 62.3459H373.15C369.087 62.3459 365.191 64.0165 362.318 66.99C359.445 69.9636 357.831 73.9967 357.831 78.2019C357.831 82.4072 359.445 86.4403 362.318 89.4139C365.191 92.3874 369.087 94.058 373.15 94.058H450.185C454.248 94.058 458.144 92.3874 461.017 89.4139C463.89 86.4403 465.504 82.4072 465.504 78.2019C465.504 73.9967 463.89 69.9636 461.017 66.99C458.144 64.0165 454.248 62.3459 450.185 62.3459V62.3459Z" fill="#3F3D56"/>
<path d="M411.667 173.338C391.087 173.348 371.327 181.693 356.615 196.588C341.902 211.482 333.405 231.745 332.941 253.041C332.477 274.337 340.082 294.975 354.13 310.542C368.179 326.109 387.554 335.368 408.113 336.338C408.945 336.384 409.785 336.411 410.626 336.411C410.976 336.429 411.317 336.429 411.667 336.429C432.563 336.429 452.602 327.838 467.377 312.545C482.152 297.252 490.453 276.511 490.453 254.884C490.453 233.256 482.152 212.515 467.377 197.222C452.602 181.93 432.563 173.338 411.667 173.338V173.338ZM451.664 323.001C439.621 330.614 425.779 334.634 411.667 334.617C411.028 334.617 410.398 334.608 409.759 334.59C409.488 334.59 409.216 334.581 408.945 334.562C390.447 333.897 372.797 326.364 359.222 313.34C345.648 300.316 337.055 282.67 335.013 263.629C332.972 244.588 337.619 225.422 348.105 209.635C358.591 193.847 374.216 182.493 392.124 177.646C410.031 172.8 429.026 174.785 445.636 183.239C462.246 191.693 475.362 206.052 482.587 223.69C489.813 241.328 490.664 261.069 484.986 279.303C479.308 297.538 467.48 313.049 451.664 323.001Z" fill="#3F3D56"/>
<path d="M466.963 234.799H432.531C430.132 234.799 427.831 233.813 426.135 232.057C424.438 230.301 423.485 227.92 423.485 225.437C423.485 222.953 424.438 220.572 426.135 218.816C427.831 217.06 430.132 216.074 432.531 216.074H466.963C469.363 216.074 471.663 217.06 473.36 218.816C475.056 220.572 476.009 222.953 476.009 225.437C476.009 227.92 475.056 230.301 473.36 232.057C471.663 233.813 469.363 234.799 466.963 234.799V234.799Z" fill="#3F3D56"/>
<path d="M434.827 230.188C437.362 230.188 439.418 228.061 439.418 225.437C439.418 222.812 437.362 220.685 434.827 220.685C432.291 220.685 430.236 222.812 430.236 225.437C430.236 228.061 432.291 230.188 434.827 230.188Z" fill="#F2F2F2"/>
<path d="M449.747 230.188C452.283 230.188 454.338 228.061 454.338 225.437C454.338 222.812 452.283 220.685 449.747 220.685C447.212 220.685 445.156 222.812 445.156 225.437C445.156 228.061 447.212 230.188 449.747 230.188Z" fill="#F2F2F2"/>
<path d="M464.668 230.188C467.203 230.188 469.259 228.061 469.259 225.437C469.259 222.812 467.203 220.685 464.668 220.685C462.132 220.685 460.077 222.812 460.077 225.437C460.077 228.061 462.132 230.188 464.668 230.188Z" fill="#3E7BFA"/>
<path d="M144.112 345.841C151.984 338.956 156.765 328.08 155.511 317.492C154.258 306.904 146.491 297.171 136.416 294.922C126.342 292.674 114.857 298.898 111.797 309.084C110.113 289.446 108.173 268.984 98.0852 252.26C88.9511 237.117 73.1307 226.282 55.9849 224.343C38.8391 222.405 20.7869 229.726 10.0937 243.733C-0.599508 257.74 -3.2177 278.104 4.27153 294.185C9.78859 306.031 19.9529 314.848 30.6027 322.02C64.5789 344.903 106.726 352.634 146.83 346.526L144.112 345.841Z" fill="#F2F2F2"/>
<path d="M27.0489 230.132C41.1963 242.059 54.175 255.398 65.7974 269.957C77.4216 284.501 87.6554 300.178 96.3552 316.767C101.218 326.072 105.586 335.646 109.441 345.445C110.227 347.438 107.099 348.305 106.322 346.334C99.4952 329.059 91.0488 312.519 81.1042 296.949C71.2079 281.436 59.881 266.953 47.2827 253.704C40.157 246.214 32.6388 239.135 24.7622 232.499C23.1477 231.138 25.4477 228.783 27.0489 230.132V230.132Z" fill="white"/>
<path d="M141.443 59.7999C156.43 59.7999 168.58 47.2246 168.58 31.7121C168.58 16.1996 156.43 3.62424 141.443 3.62424C126.455 3.62424 114.306 16.1996 114.306 31.7121C114.306 47.2246 126.455 59.7999 141.443 59.7999Z" fill="#2F2E41"/>
<path d="M242.653 134.56C242.133 135.37 241.499 136.094 240.772 136.71C239.725 137.603 238.508 138.258 237.199 138.63C235.891 139.003 234.521 139.085 233.18 138.871C231.839 138.657 230.556 138.153 229.417 137.39C228.277 136.628 227.306 135.625 226.567 134.447C226.396 134.172 226.239 133.889 226.097 133.597L183.334 129.327C179.959 128.977 176.783 127.509 174.278 125.142C171.773 122.776 170.071 119.636 169.427 116.189L167 102.945L183.688 100.258L186.683 110.867L228.376 121.467C228.699 121.174 229.042 120.904 229.401 120.66C231.261 119.411 233.48 118.864 235.684 119.112C237.888 119.36 239.942 120.387 241.5 122.021C243.057 123.654 244.022 125.793 244.232 128.078C244.442 130.362 243.885 132.652 242.653 134.56L242.653 134.56Z" fill="#FFB8B8"/>
<path d="M187.708 109.265L169.066 114.478C168.057 114.758 166.983 114.614 166.077 114.075C165.171 113.537 164.509 112.648 164.236 111.605L157.706 86.5869C157.007 83.9071 157.291 81.0541 158.503 78.5781C159.716 76.1021 161.771 74.1784 164.273 73.178C166.774 72.1776 169.545 72.1713 172.051 73.1603C174.557 74.1493 176.621 76.0636 177.844 78.5341L190.187 103.47C190.455 104.011 190.602 104.606 190.619 105.214C190.636 105.821 190.521 106.424 190.284 106.98C190.046 107.535 189.691 108.029 189.246 108.424C188.8 108.82 188.275 109.107 187.708 109.265V109.265Z" fill="#2F2E41"/>
<path d="M176.91 338.987H187.641L192.747 296.141L176.907 296.142L176.91 338.987Z" fill="#FFB8B8"/>
<path d="M208.34 349.3L174.61 349.302L174.61 335.814L195.307 335.813C198.764 335.812 202.078 337.233 204.522 339.763C206.967 342.292 208.34 345.723 208.34 349.3V349.3V349.3Z" fill="#2F2E41"/>
<path d="M81.2559 328.161L91.2966 332.085L110.697 293.869L95.8784 288.078L81.2559 328.161Z" fill="#FFB8B8"/>
<path d="M107.14 349.302L75.5845 336.97L80.1878 324.351L99.5512 331.918C102.785 333.182 105.401 335.723 106.824 338.983C108.247 342.243 108.361 345.955 107.14 349.302V349.302L107.14 349.302Z" fill="#2F2E41"/>
<path d="M176.571 329.035C175.739 329.034 174.928 328.761 174.256 328.254C173.583 327.747 173.083 327.033 172.828 326.213L145.455 238.72C145.374 238.461 145.22 238.233 145.012 238.066C144.804 237.898 144.552 237.8 144.289 237.782C144.026 237.765 143.764 237.83 143.538 237.969C143.311 238.107 143.13 238.313 143.018 238.56L105.083 322.1C104.672 323.003 103.956 323.719 103.069 324.112C102.183 324.506 101.188 324.549 100.272 324.234L85.332 319.079C84.3831 318.75 83.5905 318.059 83.1147 317.148C82.6389 316.237 82.5154 315.172 82.7691 314.17L106.006 223.069C108.437 213.418 110.194 203.599 111.261 193.688C112.891 177.367 120.284 162.242 132.023 151.215C137.148 146.354 140.48 139.799 141.447 132.674L141.51 132.218L175.54 137.779L197.095 319.833C197.206 320.807 196.976 321.79 196.447 322.603C195.917 323.417 195.123 324.006 194.209 324.265L177.599 328.893C177.264 328.988 176.918 329.035 176.571 329.035V329.035Z" fill="#2F2E41"/>
<path d="M152.223 59.6662C164.098 59.6662 173.724 49.7028 173.724 37.4124C173.724 25.122 164.098 15.1587 152.223 15.1587C140.349 15.1587 130.723 25.122 130.723 37.4124C130.723 49.7028 140.349 59.6662 152.223 59.6662Z" fill="#FFB8B8"/>
<path d="M173.425 141.661C173.358 141.661 173.291 141.659 173.223 141.656L139.489 139.91C138.547 139.866 137.652 139.472 136.969 138.801C136.285 138.129 135.858 137.225 135.766 136.254L131.158 89.7477C130.821 86.342 131.293 82.9025 132.534 79.729C133.775 76.5556 135.747 73.7443 138.278 71.5403C140.809 69.3364 143.823 67.8065 147.056 67.084C150.289 66.3615 153.644 66.4684 156.828 67.3952H156.828C159.466 68.1431 161.925 69.452 164.047 71.2385C187.777 91.4094 180.125 127.956 177.215 138.677C176.987 139.535 176.492 140.293 175.808 140.832C175.123 141.371 174.286 141.663 173.425 141.661V141.661Z" fill="#3E7BFA"/>
<path d="M144.078 172.889C143.138 172.889 142.204 172.745 141.307 172.459C140.008 172.052 138.807 171.365 137.783 170.444C136.758 169.523 135.934 168.388 135.363 167.114C134.792 165.84 134.487 164.455 134.469 163.051C134.451 161.647 134.72 160.254 135.258 158.965C135.384 158.665 135.525 158.373 135.681 158.089L115.429 118.873C113.841 115.771 113.262 112.221 113.778 108.752C114.294 105.282 115.877 102.076 118.293 99.6117L127.602 90.1839L139.008 103.077L132.133 111.534L146.701 153.334C147.116 153.45 147.523 153.595 147.918 153.77C149.953 154.681 151.622 156.29 152.644 158.327C153.665 160.364 153.977 162.703 153.525 164.949C153.074 167.196 151.888 169.213 150.167 170.659C148.445 172.106 146.295 172.894 144.078 172.889L144.078 172.889Z" fill="#FFB8B8"/>
<path d="M133.989 111.53L119.47 98.3528C118.685 97.6392 118.206 96.6326 118.138 95.554C118.069 94.4753 118.417 93.4126 119.105 92.599L135.612 73.1142C137.38 71.0271 139.833 69.6914 142.496 69.3647C145.159 69.0381 147.845 69.7436 150.035 71.3452C152.226 72.9468 153.766 75.3312 154.358 78.0384C154.951 80.7457 154.554 83.5842 153.244 86.0066L140.024 110.456C139.737 110.986 139.34 111.443 138.861 111.794C138.381 112.145 137.832 112.38 137.254 112.483C136.676 112.586 136.082 112.554 135.517 112.389C134.952 112.224 134.43 111.931 133.989 111.53V111.53Z" fill="#2F2E41"/>
<path d="M138.387 59.0292C140.349 59.7491 142.754 60.3839 144.298 58.8907C145.805 57.433 145.53 54.7672 144.643 52.8033C143.755 50.8395 142.378 49.0918 141.956 46.9543C141.351 43.8908 142.915 40.7081 145.148 38.7108C147.381 36.7135 150.192 35.6644 152.936 34.6548L167.987 29.1171C171.712 27.7464 175.727 26.1362 177.811 22.529C180.828 17.3096 178.07 9.84865 173.122 6.80299C168.174 3.75734 161.924 4.32473 156.585 6.46629C153.633 7.65075 150.824 9.28292 147.77 10.1167C141.744 11.7623 134.892 10.286 129.596 13.803C124.986 16.8645 122.848 23.1113 123.003 28.9562C123.158 34.8012 125.237 40.3676 127.431 45.7131C128.735 48.8933 130.129 52.1101 132.339 54.6395C134.549 57.1689 137.743 58.9384 140.933 58.473L138.387 59.0292Z" fill="#2F2E41"/>
<path d="M118.683 36.2424C128.352 36.2424 136.191 28.1293 136.191 18.1212C136.191 8.11314 128.352 0 118.683 0C109.013 0 101.175 8.11314 101.175 18.1212C101.175 28.1293 109.013 36.2424 118.683 36.2424Z" fill="#2F2E41"/>
<path d="M260.681 122.726L260.371 122.682L261.541 113.873C261.72 112.52 261.373 111.15 260.577 110.062C259.78 108.974 258.598 108.259 257.292 108.073L239.259 105.507C237.952 105.321 236.628 105.68 235.577 106.505C234.526 107.33 233.835 108.553 233.656 109.905L227.237 158.235C227.057 159.587 227.404 160.958 228.201 162.045C228.998 163.133 230.179 163.849 231.486 164.034L249.519 166.6C250.825 166.786 252.149 166.427 253.2 165.602C254.251 164.778 254.942 163.554 255.122 162.202L259.538 128.953L259.848 128.997L260.681 122.726Z" fill="#3F3D56"/>
<path d="M256.725 110.657L254.48 110.338C254.548 110.615 254.55 110.905 254.485 111.182C254.419 111.46 254.289 111.716 254.105 111.929C253.922 112.143 253.69 112.306 253.431 112.404C253.172 112.503 252.894 112.534 252.62 112.495L242.767 111.093C242.493 111.055 242.233 110.947 242.01 110.779C241.786 110.612 241.606 110.39 241.484 110.134C241.363 109.877 241.305 109.594 241.314 109.308C241.324 109.023 241.401 108.744 241.539 108.497L239.442 108.198C238.981 108.133 238.512 108.162 238.062 108.284C237.612 108.406 237.19 108.618 236.819 108.909C236.449 109.2 236.137 109.564 235.902 109.979C235.667 110.395 235.514 110.854 235.45 111.331L229.337 157.363C229.209 158.326 229.456 159.302 230.023 160.077C230.591 160.852 231.433 161.361 232.363 161.494L249.647 163.953C250.577 164.085 251.521 163.83 252.269 163.242C253.018 162.655 253.51 161.783 253.638 160.82V160.82L259.752 114.788C259.879 113.825 259.632 112.849 259.065 112.074C258.497 111.299 257.655 110.79 256.725 110.657V110.657Z" fill="white"/>
<path d="M244.468 148.875C249.786 148.875 254.097 144.412 254.097 138.908C254.097 133.404 249.786 128.941 244.468 128.941C239.15 128.941 234.838 133.404 234.838 138.908C234.838 144.412 239.15 148.875 244.468 148.875Z" fill="#3E7BFA"/>
<path d="M243.513 142.71C243.296 142.71 243.085 142.638 242.912 142.503L242.901 142.495L240.638 140.702C240.533 140.619 240.444 140.515 240.378 140.397C240.311 140.278 240.268 140.148 240.25 140.012C240.233 139.876 240.241 139.738 240.275 139.606C240.309 139.473 240.368 139.349 240.449 139.24C240.529 139.132 240.63 139.04 240.744 138.972C240.859 138.903 240.985 138.859 241.117 138.841C241.248 138.824 241.381 138.833 241.509 138.869C241.637 138.904 241.757 138.966 241.861 139.05L243.327 140.213L246.791 135.537C246.871 135.429 246.971 135.338 247.086 135.27C247.2 135.201 247.326 135.157 247.457 135.139C247.588 135.121 247.721 135.13 247.849 135.165C247.976 135.201 248.096 135.262 248.2 135.345L248.179 135.375L248.201 135.345C248.412 135.513 248.551 135.761 248.586 136.035C248.62 136.308 248.549 136.585 248.387 136.804L244.313 142.304C244.219 142.431 244.097 142.533 243.959 142.604C243.82 142.674 243.667 142.71 243.513 142.71Z" fill="white"/>
<path d="M740.958 350H6.24584C5.96993 349.999 5.70559 349.885 5.51077 349.683C5.31595 349.481 5.20654 349.207 5.20654 348.921C5.20654 348.636 5.31595 348.362 5.51077 348.159C5.70559 347.957 5.96993 347.843 6.24584 347.842H740.958C741.234 347.842 741.499 347.956 741.695 348.158C741.89 348.361 742 348.635 742 348.921C742 349.207 741.89 349.482 741.695 349.684C741.499 349.886 741.234 350 740.958 350Z" fill="#CCCCCC"/>
</svg>
