<svg width="167" height="123" viewBox="0 0 167 123" fill="none" xmlns="http://www.w3.org/2000/svg">
<rect width="167" height="120" fill="white"/>
<g clip-path="url(#clip0_1168_2072)">
<rect x="41.4619" y="31.4107" width="85.4903" height="66.7321" rx="4.5" stroke="#D1D1D1" stroke-opacity="0.5" stroke-width="3"/>
<path d="M47.9639 89.0656L72.972 66.4763" stroke="#D1D1D1" stroke-opacity="0.5" stroke-width="2"/>
<path d="M44.6489 87.1744L72.7003 62.2321" stroke="#FEC1C0" stroke-width="3" stroke-dasharray="4 4"/>
<line y1="-1" x2="28.2993" y2="-1" transform="matrix(-0.645782 -0.763522 0.750023 -0.661412 91.9019 88.8393)" stroke="#D1D1D1" stroke-opacity="0.5" stroke-width="2"/>
<line x1="79.8974" y1="70.8918" x2="72.8751" y2="62.8918" stroke="#FEC1C0" stroke-width="2" stroke-dasharray="4 4"/>
<path d="M79.9998 70.9999L97.9998 53.4999L125 83M125 90L84.7501 90L44.5002 90" stroke="#FEC1C0" stroke-width="3" stroke-dasharray="4 4"/>
<path d="M80.9921 74.7317L98.1539 57.4107" stroke="#D1D1D1" stroke-opacity="0.5" stroke-width="2"/>
<path d="M116.149 79.2321L97.2019 57.8842" stroke="#D1D1D1" stroke-opacity="0.5" stroke-width="2"/>
<path d="M70.21 48.995C70.21 54.99 65.3501 59.85 59.355 59.85C53.3599 59.85 48.5 54.99 48.5 48.995C48.5 42.9999 53.3599 38.14 59.355 38.14C65.3501 38.14 70.21 42.9999 70.21 48.995Z" stroke="#68D585" stroke-width="2" stroke-dasharray="4 4 4 4"/>
<path d="M67.21 49C67.21 53.3394 63.6932 56.8571 59.355 56.8571C55.0168 56.8571 51.5 53.3394 51.5 49C51.5 44.6606 55.0168 41.1429 59.355 41.1429C63.6932 41.1429 67.21 44.6606 67.21 49Z" stroke="#D1D1D1" stroke-opacity="0.5" stroke-width="3"/>
</g>
<defs>
<clipPath id="clip0_1168_2072">
<rect width="92.3377" height="97.2321" fill="white" transform="translate(39 25)"/>
</clipPath>
</defs>
</svg>
