<svg width="167" height="120" viewBox="0 0 167 120" fill="none" xmlns="http://www.w3.org/2000/svg">
<rect width="167" height="120" fill="white"/>
<path d="M54.25 25.5H88.6156L106.375 45.8706V95.25C106.375 97.2511 105.007 98.5 103.75 98.5H54.25C52.9926 98.5 51.625 97.2511 51.625 95.25V28.75C51.625 26.749 52.9928 25.5 54.25 25.5Z" stroke="#D1D1D1" stroke-opacity="0.5" stroke-width="3"/>
<path d="M107.815 45.3749H93.4375C91.1604 45.3749 89.3125 43.247 89.3125 40.625V24.0474L107.815 45.3749Z" fill="#D2D2D2" fill-opacity="0.5"/>
<path d="M58.375 54.8751V59.625H99.625V54.8751H58.375ZM58.375 69.1274H99.625V64.3774H58.375V69.1274ZM58.375 78.6251H99.625V73.8751H58.375V78.6251ZM58.375 88.125H99.625V83.3773H58.375V88.125ZM81.0624 45.3749H58.375V50.1249H81.0626L81.0624 45.3749ZM81.0624 35.875H58.375V40.625H81.0626L81.0624 35.875Z" fill="#DFDFDF" fill-opacity="0.5"/>
<path d="M104.593 80.0801C104.793 80.0782 104.992 80.0763 105.198 80.0744C105.417 80.074 105.636 80.0737 105.862 80.0733C106.092 80.0717 106.323 80.07 106.561 80.0684C107.194 80.064 107.827 80.0619 108.46 80.0605C108.856 80.0595 109.252 80.0582 109.648 80.0567C110.887 80.0522 112.127 80.049 113.366 80.0478C114.796 80.0463 116.225 80.0405 117.654 80.031C118.759 80.0239 119.865 80.0206 120.971 80.0202C121.631 80.0198 122.29 80.0179 122.95 80.012C123.687 80.0056 124.424 80.007 125.161 80.0092C125.378 80.0061 125.596 80.0031 125.819 80C126.981 80.0105 127.759 80.1 128.64 80.8369C129.607 81.7871 129.73 82.4626 129.718 83.7241C129.719 83.8854 129.72 84.0468 129.722 84.213C129.725 84.745 129.723 85.2768 129.72 85.8088C129.721 86.1796 129.722 86.5505 129.722 86.9213C129.724 87.6982 129.722 88.4751 129.719 89.252C129.715 90.2459 129.717 91.2398 129.721 92.2337C129.724 92.9995 129.723 93.7653 129.721 94.5312C129.721 94.8975 129.721 95.2639 129.723 95.6303C129.725 96.1434 129.722 96.6563 129.718 97.1694C129.719 97.3197 129.721 97.47 129.722 97.6249C129.709 98.5988 129.514 99.34 128.919 100.153C128.156 100.827 127.573 100.991 126.539 101.018C126.338 101.023 126.137 101.029 125.931 101.034C125.71 101.04 125.49 101.045 125.263 101.05C124.914 101.059 124.914 101.059 124.559 101.068C122.414 101.12 120.268 101.15 118.123 101.175C116.681 101.191 115.241 101.215 113.8 101.255C112.542 101.291 111.284 101.313 110.024 101.32C109.359 101.325 108.695 101.335 108.03 101.361C104.008 101.511 104.008 101.511 102.8 100.621C101.97 99.7688 101.389 98.8212 100.856 97.7904C100.546 97.2125 100.171 96.711 99.7659 96.1871C99.4028 95.691 99.0401 95.1947 98.678 94.698C98.1531 93.979 97.6281 93.2616 97.0768 92.5597C97.0006 92.4617 96.9243 92.3638 96.8457 92.2628C96.6564 92.0216 96.4641 91.7823 96.2714 91.5433C95.97 91.0227 95.9737 90.7261 96.029 90.1397C96.2516 89.7241 96.2516 89.7241 96.5685 89.3074C96.687 89.1488 96.8054 88.9903 96.9275 88.827C97.0577 88.6575 97.1879 88.488 97.3221 88.3134C97.5258 88.0421 97.7296 87.7707 97.9331 87.4991C98.1494 87.211 98.3667 86.9235 98.584 86.6361C99.2798 85.7132 99.9579 84.7791 100.638 83.846C100.855 83.5479 101.072 83.2501 101.29 82.9523C101.359 82.8586 101.427 82.7648 101.498 82.6682C101.564 82.5787 101.629 82.4891 101.697 82.3968C102.057 81.9035 102.414 81.4108 102.759 80.9077C103.301 80.1924 103.691 80.0852 104.593 80.0801Z" fill="#68D585"/>
<path d="M132.52 89.2436C133.659 88.8368 134.87 89.0067 136.001 89.3771C136.946 89.866 137.392 90.6102 137.937 91.4529C138.196 91.8057 138.456 92.1573 138.717 92.5078C139.065 92.9835 139.411 93.4607 139.757 93.9379C139.979 94.2434 140.2 94.5487 140.422 94.854C140.495 94.9547 140.568 95.0554 140.644 95.1591C141.123 95.8168 141.613 96.4656 142.112 97.1112C142.236 97.2738 142.36 97.4365 142.488 97.6041C142.72 97.9076 142.955 98.2093 143.193 98.5089C143.649 99.1096 143.935 99.4978 144 100.239C143.682 101.037 143.2 101.658 142.657 102.338C142.429 102.632 142.201 102.925 141.974 103.218C141.86 103.365 141.745 103.512 141.628 103.663C141.144 104.292 140.683 104.935 140.225 105.581C139.463 106.649 138.693 107.713 137.915 108.771C137.817 108.906 137.718 109.041 137.617 109.179C137.525 109.304 137.434 109.428 137.339 109.556C137.258 109.666 137.177 109.776 137.094 109.89C136.876 110.167 136.876 110.167 136.523 110.495C136.107 110.537 136.107 110.537 135.576 110.539C135.274 110.541 135.274 110.541 134.966 110.543C134.745 110.543 134.523 110.543 134.295 110.543C134.062 110.544 133.829 110.545 133.59 110.546C132.95 110.549 132.311 110.55 131.672 110.55C131.138 110.55 130.604 110.551 130.07 110.553C128.81 110.555 127.55 110.556 126.289 110.556C124.99 110.556 123.691 110.559 122.393 110.564C121.277 110.569 120.162 110.57 119.046 110.57C118.38 110.57 117.714 110.571 117.048 110.574C116.421 110.578 115.794 110.578 115.166 110.575C114.828 110.575 114.489 110.577 114.15 110.58C112.965 110.572 112.174 110.54 111.236 109.838C109.759 108.431 109.758 106.201 109.721 104.345C109.752 103.491 109.82 102.679 110.352 101.959C112.37 100.627 116.062 101.291 118.364 101.44C119.402 101.501 120.441 101.526 121.48 101.553C122.65 101.585 123.82 101.621 124.989 101.684C125.258 101.698 125.258 101.698 125.532 101.713C125.864 101.73 126.196 101.75 126.527 101.771C127.577 101.827 128.624 101.795 129.626 101.466C129.626 101.358 129.626 101.25 129.626 101.138C129.75 101.081 129.874 101.023 130.002 100.964C131.093 100.281 131.592 99.286 131.86 98.1218C131.978 97.3407 131.899 96.5711 131.843 95.787C131.566 90.165 131.566 90.165 132.52 89.2436Z" fill="#FEC1C0"/>
</svg>
