<svg width="355" height="292" viewBox="0 0 355 292" fill="none" xmlns="http://www.w3.org/2000/svg">
<g clip-path="url(#clip0_983_1251)">
<path d="M269.066 284.244L263.07 284.244L260.217 261.115L269.067 261.115L269.066 284.244Z" fill="#FFB6B6"/>
<path d="M270.595 290.057L251.26 290.056V289.812C251.26 287.816 252.053 285.902 253.464 284.49C254.876 283.079 256.79 282.286 258.786 282.286H258.786L270.595 282.286L270.595 290.057Z" fill="#2F2E41"/>
<path d="M314.421 279.064L308.713 280.903L298.904 259.763L307.328 257.049L314.421 279.064Z" fill="#FFB6B6"/>
<path d="M317.659 284.127L299.256 290.057L299.181 289.824C298.569 287.924 298.737 285.859 299.647 284.083C300.557 282.307 302.136 280.965 304.036 280.353L304.036 280.353L315.277 276.731L317.659 284.127Z" fill="#2F2E41"/>
<path d="M317.421 205.275C321.556 205.275 324.908 201.922 324.908 197.787C324.908 193.652 321.556 190.299 317.421 190.299C313.285 190.299 309.933 193.652 309.933 197.787C309.933 201.922 313.285 205.275 317.421 205.275Z" fill="#3E7BFA"/>
<path d="M327.226 211.448C327.091 211.521 326.957 211.589 326.824 211.657L311.015 182.303C311.145 182.229 311.275 182.155 311.41 182.082C315.304 179.986 319.871 179.523 324.107 180.793C328.343 182.064 331.901 184.966 333.998 188.859C336.095 192.753 336.559 197.32 335.289 201.556C334.019 205.792 331.119 209.35 327.226 211.448H327.226Z" fill="#3C31C2"/>
<path d="M312.628 196.536L310.418 165.878L310.838 155.646L302.226 157.562L305.398 197.733C305.039 198.474 304.89 199.299 304.968 200.118C305.046 200.938 305.348 201.72 305.84 202.379C306.333 203.039 306.997 203.55 307.761 203.857C308.525 204.165 309.358 204.256 310.17 204.121C310.982 203.987 311.742 203.632 312.366 203.095C312.989 202.558 313.453 201.859 313.707 201.076C313.961 200.293 313.994 199.455 313.804 198.655C313.613 197.854 313.206 197.121 312.628 196.536Z" fill="#FFB8B8"/>
<path d="M273.654 169.513L273.107 159.241L267.579 154.75L266.816 164.622L246.468 188.148C245.621 188.283 244.831 188.659 244.191 189.229C243.551 189.8 243.087 190.542 242.856 191.368C242.624 192.194 242.634 193.068 242.884 193.889C243.134 194.709 243.614 195.44 244.266 195.996C244.919 196.553 245.717 196.91 246.567 197.027C247.417 197.144 248.282 197.014 249.06 196.655C249.839 196.295 250.498 195.72 250.96 194.997C251.422 194.275 251.667 193.435 251.666 192.578C251.666 192.517 251.66 192.458 251.657 192.399L273.654 169.513Z" fill="#FFB8B8"/>
<path d="M274.645 166.225L257.279 188.253L251.396 181.978L263.554 164.329L271.172 130.866C271.374 130.437 271.661 130.053 272.016 129.737C272.37 129.421 272.785 129.179 273.234 129.027C273.677 128.876 274.145 128.815 274.611 128.848C275.078 128.882 275.532 129.009 275.948 129.222L276.047 129.272L274.645 166.225Z" fill="#3E7BFA"/>
<path d="M304.494 187.076L298.977 148.73L298.986 148.694L304.652 126.423L305.183 126.361C306.713 126.192 308.252 126.6 309.498 127.506C310.743 128.412 311.606 129.749 311.918 131.257L312.338 188.253L304.494 187.076Z" fill="#3E7BFA"/>
<path d="M306.235 120.409H277.562V107.454C277.561 105.571 277.931 103.706 278.651 101.966C279.371 100.226 280.427 98.6442 281.758 97.3121C283.089 95.9801 284.67 94.9234 286.41 94.2024C288.15 93.4815 290.015 93.1104 291.898 93.1104C293.781 93.1104 295.646 93.4815 297.386 94.2024C299.126 94.9234 300.707 95.9801 302.038 97.3121C303.37 98.6442 304.426 100.226 305.146 101.966C305.866 103.706 306.236 105.571 306.235 107.454V120.409Z" fill="#2F2E41"/>
<path d="M301.85 114.701C304.954 109.022 302.867 101.902 297.188 98.7977C291.51 95.6935 284.39 97.7805 281.285 103.459C278.181 109.138 280.268 116.258 285.947 119.362C291.626 122.467 298.746 120.38 301.85 114.701Z" fill="#FFB8B8"/>
<path d="M297.225 99.1382C301.533 99.1382 305.025 95.6458 305.025 91.3377C305.025 87.0296 301.533 83.5371 297.225 83.5371C292.917 83.5371 289.424 87.0296 289.424 91.3377C289.424 95.6458 292.917 99.1382 297.225 99.1382Z" fill="#2F2E41"/>
<path d="M309.44 109.7H278.943V109.527C278.943 101.622 285.784 95.1907 294.192 95.1907C302.6 95.1907 309.44 101.622 309.44 109.527V109.7Z" fill="#2F2E41"/>
<path d="M270.514 272.684L259.184 271.875L259.169 271.709C254.203 217.503 257.021 181.701 267.1 170.89L269.944 165.57L268.387 156.616C264.228 145.662 271.213 137.649 271.741 137.067L273.993 130.313C274.148 129.848 274.435 129.437 274.818 129.13C275.2 128.823 275.664 128.633 276.152 128.583L306.749 125.454L306.769 125.649L306.749 125.454C307.087 125.419 307.43 125.453 307.755 125.552C308.081 125.652 308.383 125.816 308.644 126.034C308.905 126.253 309.12 126.522 309.275 126.824C309.431 127.127 309.524 127.458 309.55 127.797L309.553 127.833L309.543 127.868L298.389 165.428L299.367 178.138L312.53 269.099L301.193 271.528L301.141 271.356L280.222 202.788L270.514 272.684Z" fill="#2F2E41"/>
<path d="M241.983 218.648H2.7453C2.06943 218.647 1.42147 218.378 0.943561 217.9C0.465651 217.422 0.196818 216.774 0.196045 216.098V2.74535C0.196818 2.06948 0.465651 1.42152 0.943561 0.94361C1.42147 0.465699 2.06943 0.19687 2.7453 0.196096H241.983C242.659 0.196878 243.307 0.46571 243.785 0.943619C244.263 1.42153 244.532 2.06949 244.532 2.74535V216.098C244.532 216.774 244.263 217.422 243.785 217.9C243.307 218.378 242.659 218.647 241.983 218.648Z" fill="white"/>
<path d="M81.8478 9.58159V64.718H81.7354C74.4239 64.718 67.4118 61.8135 62.2418 56.6434C57.0717 51.4734 54.1672 44.4613 54.1672 37.1498C54.1672 29.8382 57.0717 22.8262 62.2418 17.6561C67.4118 12.4861 74.4239 9.58159 81.7354 9.58159H81.8478Z" fill="#3E7BFA"/>
<path d="M75.6091 22.0082V52.2914H75.5474C71.5316 52.2914 67.6802 50.6961 64.8406 47.8565C62.001 45.0169 60.4058 41.1656 60.4058 37.1498C60.4058 33.134 62.001 29.2826 64.8406 26.443C67.6802 23.6034 71.5316 22.0082 75.5474 22.0082H75.6091Z" fill="white"/>
<path d="M122.577 110.206H39.2766V36.7575H54.1674V37.5419H40.061V109.422H122.577V110.206Z" fill="#3C31C2"/>
<path d="M133.809 128.703C137.944 128.703 141.296 125.351 141.296 121.216C141.296 117.08 137.944 113.728 133.809 113.728C129.673 113.728 126.321 117.08 126.321 121.216C126.321 125.351 129.673 128.703 133.809 128.703Z" fill="#3E7BFA"/>
<path d="M203.58 201.198C207.715 201.198 211.068 197.845 211.068 193.71C211.068 189.575 207.715 186.222 203.58 186.222C199.445 186.222 196.092 189.575 196.092 193.71C196.092 197.845 199.445 201.198 203.58 201.198Z" fill="#3C31C2"/>
<path d="M39.5323 116.791C43.6677 116.791 47.02 113.439 47.02 109.304C47.02 105.168 43.6677 101.816 39.5323 101.816C35.397 101.816 32.0447 105.168 32.0447 109.304C32.0447 113.439 35.397 116.791 39.5323 116.791Z" fill="#3E7BFA"/>
<path d="M122.577 109.984H141.296V91.2653H103.858V128.703H122.577V109.984Z" fill="#3C31C2"/>
<path d="M244.762 15.7079H162.738V25.9183H244.762V15.7079Z" fill="#E4E4E4"/>
<path d="M244.762 37.8305H162.738V48.0409H244.762V37.8305Z" fill="#E4E4E4"/>
<path d="M220.257 72.8863C220.257 73.0395 220.254 73.1892 220.25 73.339H186.91C186.906 73.1892 186.903 73.0395 186.903 72.8863C186.903 68.4633 188.66 64.2214 191.787 61.0939C194.915 57.9663 199.157 56.2093 203.58 56.2093C208.003 56.2093 212.245 57.9663 215.372 61.0939C218.5 64.2214 220.257 68.4633 220.257 72.8863Z" fill="#E4E4E4"/>
<path d="M220.257 191.555C220.257 191.709 220.254 191.858 220.25 192.008H186.91C186.906 191.858 186.903 191.709 186.903 191.555C186.903 187.132 188.66 182.891 191.787 179.763C194.915 176.635 199.157 174.878 203.58 174.878C208.003 174.878 212.245 176.635 215.372 179.763C218.5 182.891 220.257 187.132 220.257 191.555Z" fill="#E4E4E4"/>
<path d="M203.972 89.5633H203.188V174.835H203.972V89.5633Z" fill="#3C31C2"/>
<path d="M107.261 183.499C107.261 190.25 104.587 196.725 99.8245 201.509C95.0617 206.293 88.598 208.996 81.8477 209.026V157.973C88.598 158.003 95.0617 160.706 99.8245 165.49C104.587 170.273 107.261 176.749 107.261 183.499Z" fill="#3E7BFA"/>
<path d="M242.72 219.628H2.43426C1.78887 219.627 1.17014 219.371 0.713788 218.914C0.257439 218.458 0.000737984 217.839 0 217.194V2.43434C0.000737984 1.78896 0.257439 1.17021 0.713788 0.713848C1.17014 0.257483 1.78887 0.000760859 2.43426 0H242.72C243.365 0.000760857 243.984 0.257483 244.44 0.713848C244.897 1.17021 245.154 1.78896 245.154 2.43434V217.194C245.154 217.839 244.897 218.458 244.44 218.914C243.984 219.371 243.365 219.627 242.72 219.628ZM2.43426 0.784386C1.99682 0.784886 1.57745 0.958882 1.26815 1.2682C0.958842 1.57752 0.784863 1.99691 0.784386 2.43434V217.194C0.784863 217.631 0.958842 218.051 1.26815 218.36C1.57745 218.669 1.99682 218.843 2.43426 218.844H242.72C243.157 218.843 243.577 218.669 243.886 218.36C244.195 218.051 244.369 217.631 244.37 217.194V2.43434C244.369 1.99691 244.195 1.57753 243.886 1.26821C243.577 0.958893 243.157 0.784893 242.72 0.784386H2.43426Z" fill="#3C31C2"/>
<path d="M81.4556 65.1117V9.18781L81.8493 9.18934C89.2455 9.21892 96.3287 12.1778 101.548 17.4182C106.768 22.6586 109.698 29.7535 109.698 37.1498C109.698 44.546 106.768 51.641 101.548 56.8814C96.3287 62.1217 89.2455 65.0806 81.8493 65.1102L81.4556 65.1117ZM82.24 9.97813V64.3214C89.3589 64.1891 96.1416 61.2682 101.129 56.187C106.117 51.1057 108.911 44.2699 108.911 37.1498C108.911 30.0296 106.117 23.1938 101.129 18.1125C96.1416 13.0313 89.3589 10.1104 82.24 9.97813Z" fill="#3C31C2"/>
<path d="M82.2399 209.418H81.7354C74.8614 209.418 68.269 206.687 63.4084 201.826C58.5478 196.966 55.8171 190.373 55.8171 183.499C55.8171 176.626 58.5478 170.033 63.4084 165.172C68.269 160.312 74.8614 157.581 81.7354 157.581H82.24L82.2399 209.418ZM81.4556 158.367C74.8385 158.441 68.5175 161.121 63.8643 165.826C59.2112 170.532 56.6014 176.882 56.6014 183.499C56.6014 190.117 59.2112 196.467 63.8643 201.173C68.5175 205.878 74.8385 208.558 81.4556 208.632V158.367Z" fill="#3C31C2"/>
<path d="M203.58 89.9555C199.126 89.9793 194.841 88.2518 191.649 85.1453C188.457 82.0389 186.614 77.8024 186.518 73.3495L186.507 72.9468H220.653L220.642 73.3495C220.545 77.8024 218.702 82.0389 215.51 85.1453C212.319 88.2518 208.034 89.9794 203.58 89.9555ZM187.317 73.7312C187.534 77.8983 189.341 81.8233 192.368 84.6963C195.394 87.5693 199.407 89.1711 203.58 89.1711C207.753 89.1711 211.766 87.5693 214.792 84.6963C217.818 81.8233 219.626 77.8983 219.842 73.7312H187.317Z" fill="#3C31C2"/>
<path d="M244.762 145.896H0.39209V146.68H244.762V145.896Z" fill="#3C31C2"/>
<path d="M244.762 72.9468H0.39209V73.7312H244.762V72.9468Z" fill="#3C31C2"/>
<path d="M163.698 0.392193H162.913V219.236H163.698V0.392193Z" fill="#3C31C2"/>
<path d="M82.24 0.392193H81.4556V219.236H82.24V0.392193Z" fill="#3C31C2"/>
<path d="M57.2303 190.306C61.3657 190.306 64.718 186.954 64.718 182.819C64.718 178.683 61.3657 175.331 57.2303 175.331C53.095 175.331 49.7427 178.683 49.7427 182.819C49.7427 186.954 53.095 190.306 57.2303 190.306Z" fill="#3E7BFA"/>
<path d="M354.498 291.007H205.072C204.968 291.007 204.869 290.966 204.795 290.892C204.721 290.819 204.68 290.719 204.68 290.615C204.68 290.511 204.721 290.411 204.795 290.338C204.869 290.264 204.968 290.223 205.072 290.223H354.498C354.602 290.223 354.702 290.264 354.775 290.338C354.849 290.411 354.89 290.511 354.89 290.615C354.89 290.719 354.849 290.819 354.775 290.892C354.702 290.966 354.602 291.007 354.498 291.007Z" fill="#CACACA"/>
<path d="M225.284 290.217C227.491 283.103 225.347 275.014 220.312 269.608C218.892 268.08 217.238 266.789 215.411 265.782C215.288 265.715 215.144 265.694 215.007 265.723C214.869 265.752 214.746 265.829 214.661 265.94C214.575 266.051 214.531 266.19 214.538 266.33C214.545 266.47 214.602 266.604 214.698 266.706L215.706 267.797V266.965C213.755 268.786 210.197 267.397 209.843 264.809C209.771 264.134 209.855 263.453 210.088 262.816C210.32 262.18 210.696 261.605 211.185 261.136C211.711 260.641 212.355 260.291 213.056 260.117C213.756 259.943 214.49 259.952 215.186 260.143C215.92 260.321 216.607 260.657 217.199 261.126C217.792 261.595 218.275 262.186 218.617 262.86C219.246 264.245 219.305 265.822 218.781 267.25C217.705 270.395 214.271 271.874 211.138 271.133C207.941 270.376 205.65 267.362 205.545 264.107C205.529 262.53 205.994 260.986 206.879 259.681C207.763 258.376 209.024 257.371 210.495 256.802C213.851 255.562 217.495 256.802 220.33 258.718C223.221 260.748 225.585 263.439 227.224 266.568C228.891 269.604 229.84 272.982 229.998 276.441C230.089 279.287 229.485 282.519 227.386 284.598C226.883 285.091 226.303 285.499 225.668 285.804L226.262 286.82C229.976 284.671 232.989 281.492 234.936 277.668C236.884 273.844 237.682 269.537 237.236 265.269C236.951 262.699 236.225 260.198 235.09 257.875C234.758 257.195 233.743 257.79 234.074 258.469C235.99 262.409 236.632 266.847 235.914 271.169C235.386 274.212 234.194 277.1 232.423 279.629C230.652 282.159 228.346 284.267 225.668 285.804C225.005 286.185 225.588 287.151 226.262 286.82C229.43 285.266 230.812 281.749 231.117 278.418C231.464 274.615 230.475 270.665 228.873 267.235C227.203 263.608 224.65 260.457 221.448 258.071C218.294 255.77 214.021 254.249 210.182 255.667C206.749 256.936 204.253 260.413 204.369 264.107C204.485 267.814 207.045 271.302 210.683 272.232C214.313 273.16 218.281 271.56 219.744 268.012C220.444 266.369 220.494 264.522 219.884 262.843C219.562 262.029 219.074 261.291 218.453 260.674C217.831 260.058 217.089 259.576 216.273 259.26C215.47 258.923 214.6 258.777 213.731 258.834C212.862 258.89 212.018 259.148 211.266 259.586C210.577 260.026 209.991 260.609 209.547 261.296C209.104 261.982 208.813 262.756 208.696 263.565C208.567 264.348 208.644 265.15 208.92 265.894C209.197 266.637 209.662 267.296 210.271 267.804C210.868 268.283 211.563 268.624 212.306 268.804C213.05 268.983 213.824 268.996 214.574 268.841C215.311 268.676 215.99 268.316 216.538 267.797C216.646 267.685 216.707 267.536 216.707 267.381C216.707 267.226 216.646 267.077 216.538 266.965L215.53 265.874L214.817 266.798C220.985 270.184 224.845 277.07 224.975 284.053C225.014 286.035 224.736 288.01 224.149 289.904C223.924 290.629 225.06 290.939 225.284 290.217Z" fill="#F0F0F0"/>
</g>
<defs>
<clipPath id="clip0_983_1251">
<rect width="354.89" height="291.007" fill="white"/>
</clipPath>
</defs>
</svg>
